<?xml version="1.0" standalone="no"?>
<!DOCTYPE svg PUBLIC "-//W3C//DTD SVG 1.1//EN" "http://www.w3.org/Graphics/SVG/1.1/DTD/svg11.dtd" >
<svg>
<metadata>
Created by FontForge 20090914 at Fri Jul  6 11:22:01 2018
 By www-data
Copyright (c) 2015, Cadson Demak (info@cadsondemak.com)
</metadata>
<defs>
<font id="Prompt-Regular" horiz-adv-x="0" >
  <font-face 
    font-family="Prompt"
    font-weight="400"
    font-stretch="normal"
    units-per-em="1000"
    panose-1="0 0 5 0 0 0 0 0 0 0"
    ascent="750"
    descent="-250"
    x-height="480"
    cap-height="699"
    bbox="-607 -368 1244 1061"
    underline-thickness="50"
    underline-position="-50"
    unicode-range="U+000D-U+FB02"
  />
<missing-glyph horiz-adv-x="504" 
d="M45 714h414v-714h-414v714zM403 53v607h-302v-607h302z" />
    <glyph glyph-name="fi" unicode="fi" horiz-adv-x="597" 
d="M98 402l-73 -0.000976562v78h73v91c0 55.333 17.667 98 53 128s79.333 45 132 45c26.667 0 52.667 -4 78 -12v-82c-18.667 7.33301 -38 11 -58 11c-34 0 -59.833 -8.16699 -77.5 -24.5s-26.5 -40.166 -26.5 -71.499v-85h324v-480h-101v402h-223v-402h-101v402z
M429 590.999c-11.333 11.333 -17.002 25.333 -17.002 42s5.83301 30.667 17.5 42s25.834 17 42.501 17s30.834 -5.66699 42.501 -17s17.5 -25.333 17.5 -42s-5.83301 -30.667 -17.5 -42s-25.834 -17 -42.501 -17c-17.333 0 -31.666 5.66699 -42.999 17z" />
    <glyph glyph-name="fl" unicode="fl" horiz-adv-x="590" 
d="M98 402l-73.001 0.000976562v78h73v94c0 54.667 17.5 96.667 52.5 126s79.167 44 132.5 44c26.667 0 52.667 -4 78 -12v-82c-18.667 7.33301 -37.667 11 -57 11c-33.333 0 -59.166 -7.83301 -77.499 -23.5s-27.5 -38.834 -27.5 -69.501v-88h224v218h102v-698h-102v402
h-224v-402h-101v402z" />
    <glyph glyph-name="ru_lakkhangyaothai" unicode="&#xe24;&#xe45;" horiz-adv-x="877" 
d="M473 335c0 46 -12.1689 79.832 -36.502 101.499s-60.833 32.5 -109.5 32.5c-37.333 0 -69.666 -5.33301 -96.999 -16s-52.666 -28.334 -75.999 -53.001l43 -67v-198c0 -18.667 3.83301 -31.667 11.5 -39s20.5 -11 38.5 -11h56v-85h-106
c-33.333 0 -58.666 9.33301 -75.999 28s-26 44.334 -26 77.001v228l-50 81c35.333 44.667 75.666 78.5 120.999 101.5s99 34.5 161 34.5c57.333 0 105.333 -9.66699 144 -29c16 8 36.833 14.833 62.5 20.5s51.167 8.5 76.5 8.5c67.333 0 117.833 -18.167 151.5 -54.5
s50.5 -88.5 50.5 -156.5v-535h-102v542c0 42.667 -8.66699 73.834 -26 93.501s-48 29.5 -92 29.5c-16.667 0 -34 -1.66699 -52 -5c23.333 -32.667 35 -73 35 -121v-539h-102v531z" />
    <glyph glyph-name="lu_lakkhangyaothai" unicode="&#xe26;&#xe45;" horiz-adv-x="895" 
d="M492 335c0 46 -12.333 79.832 -37 101.499s-61 32.5 -109 32.5c-36.667 0 -68.5 -5.16699 -95.5 -15.5s-51.833 -27.166 -74.5 -50.499l60 -69v-229c0 -32.667 -8.83301 -58.334 -26.5 -77.001s-43.167 -28 -76.5 -28h-88v85h42c18 0 30.333 3.5 37 10.5
s10 20.167 10 39.5v198l-70 81c34 44 74 77.667 120 101s100.333 35 163 35c56.667 0 104.334 -9.66699 143.001 -29c16 8 36.833 14.833 62.5 20.5s51.167 8.5 76.5 8.5c67.333 0 117.666 -18.167 150.999 -54.5s50 -88.5 50 -156.5v-535h-102v542
c0 42.667 -8.66699 73.834 -26 93.501s-48 29.5 -92 29.5c-16 0 -33 -1.66699 -51 -5c23.333 -32.667 35 -73 35 -121v-539h-102v531z" />
    <glyph glyph-name=".notdef" horiz-adv-x="504" 
d="M45 714h414v-714h-414v714zM403 53v607h-302v-607h302z" />
    <glyph glyph-name="nonmarkingreturn" unicode="&#xd;" horiz-adv-x="260" 
 />
    <glyph glyph-name="space" unicode=" " horiz-adv-x="370" 
 />
    <glyph glyph-name="exclam" unicode="!" horiz-adv-x="209" 
d="M56 699h98v-499h-98v499zM62 2c-11.333 11.333 -17 25.333 -17 42s5.66699 30.667 17 42s25.333 17 42 17s30.834 -5.66699 42.501 -17s17.5 -25.333 17.5 -42s-5.83301 -30.667 -17.5 -42s-25.834 -17 -42.501 -17s-30.667 5.66699 -42 17z" />
    <glyph glyph-name="quotedbl" unicode="&#x22;" horiz-adv-x="338" 
d="M45 699h86v-187h-86v187zM207 699h86v-187h-86v187z" />
    <glyph glyph-name="numbersign" unicode="#" horiz-adv-x="763" 
d="M141 170h-96v80h118l52 182h-129v80h151l53 187h90l-53 -187h211l53 187h91l-53 -187h89v-80h-111l-52 -182h122v-80h-144l-48 -170h-91l48 170h-211l-48 -170h-90zM464 250l52 182h-211l-52 -182h211z" />
    <glyph glyph-name="dollar" unicode="$" horiz-adv-x="561" 
d="M241 -15c-37.333 0.666992 -73.5 4.49805 -108.5 11.498s-64.167 16.167 -87.5 27.5v91c60 -28.667 125.333 -43.667 196 -45v248c-1.33301 0 -2.33301 0.333008 -3 1c-66 26.667 -113.667 55.834 -143 87.501s-44 71.834 -44 120.501c0 49.333 17.167 90.5 51.5 123.5
s80.5 53.167 138.5 60.5v91h88v-89c54 -4 105 -16.333 153 -37v-88c-51.333 23.333 -102.333 36.333 -153 39v-244c44.667 -18 80.167 -35.667 106.5 -53s46.333 -38.166 60 -62.499s20.5 -54.833 20.5 -91.5c0 -52 -15.667 -93.833 -47 -125.5s-78 -51.834 -140 -60.501
v-93h-88v88zM241 619.998c-27.333 -7.33301 -48.167 -18.833 -62.5 -34.5s-21.5 -35.167 -21.5 -58.5c0 -24 6.5 -43.833 19.5 -59.5s34.5 -31.167 64.5 -46.5v199zM408.999 175.998c0 24.667 -6.16699 44.667 -18.5 60s-32.833 30 -61.5 44v-201c53.333 14.667 80 47 80 97
z" />
    <glyph glyph-name="percent" unicode="%" horiz-adv-x="885" 
d="M139 371.5c-28 16.333 -50.167 38.5 -66.5 66.5s-24.5 58.667 -24.5 92s8.16699 64.166 24.5 92.499s38.5 50.666 66.5 66.999s58.667 24.5 92 24.5s64.166 -8.16699 92.499 -24.5s50.666 -38.666 66.999 -66.999s24.5 -59.166 24.5 -92.499s-8.16699 -64 -24.5 -92
s-38.666 -50.167 -66.999 -66.5s-59.166 -24.5 -92.499 -24.5s-64 8.16699 -92 24.5zM588 699h99l-387 -699h-99zM307.5 452c20.333 20.667 30.5 46 30.5 76c0 30.667 -10.167 56.334 -30.5 77.001s-45.833 31 -76.5 31s-56.167 -10.333 -76.5 -31
s-30.5 -46.334 -30.5 -77.001c0 -30 10.167 -55.333 30.5 -76s45.833 -31 76.5 -31s56.167 10.333 76.5 31zM564 9.5c-28 16.333 -50.167 38.5 -66.5 66.5s-24.5 58.667 -24.5 92s8.16699 64.166 24.5 92.499s38.5 50.666 66.5 66.999s58.667 24.5 92 24.5
s64.166 -8.16699 92.499 -24.5s50.666 -38.666 66.999 -66.999s24.5 -59.166 24.5 -92.499s-8.16699 -64 -24.5 -92s-38.666 -50.167 -66.999 -66.5s-59.166 -24.5 -92.499 -24.5s-64 8.16699 -92 24.5zM732 90c20.667 20.667 31 46 31 76
c0 30.667 -10.333 56.334 -31 77.001s-46.334 31 -77.001 31c-30 0 -55.333 -10.333 -76 -31s-31 -46.334 -31 -77.001c0 -30 10.333 -55.333 31 -76s46 -31 76 -31c30.667 0 56.334 10.333 77.001 31z" />
    <glyph glyph-name="ampersand" unicode="&#x26;" horiz-adv-x="773" 
d="M115 34.5c-46.667 33 -70 79.501 -70 139.501c0 44.667 12.5 83 37.5 115s65.167 63.667 120.5 95c-33.333 30.667 -57.666 58.5 -72.999 83.5s-23 52.833 -23 83.5c0 49.333 16.833 88.833 50.5 118.5s78.5 44.5 134.5 44.5c35.333 0 66.833 -7.16699 94.5 -21.5
s49.167 -33.833 64.5 -58.5s23 -52.334 23 -83.001c0 -36.667 -9.83301 -68 -29.5 -94s-53.5 -54.667 -101.5 -86l190 -180c12 19.333 20.167 42.166 24.5 68.499s6.5 58.5 6.5 96.5h89c0 -51.333 -4 -94.166 -12 -128.499s-22 -67.833 -42 -100.5l134 -127h-122l-71 68
c-30 -28.667 -65 -49.667 -105 -63s-86 -20 -138 -20c-74.667 0 -135.334 16.5 -182.001 49.5zM361 482.501c16 18.333 24.001 39.833 24.001 64.5c0 27.333 -8.33301 49.166 -25 65.499s-39.334 24.5 -68.001 24.5c-29.333 0 -52.333 -8 -69 -24s-25 -38 -25 -66
c0 -21.333 6.33301 -40.666 19 -57.999s34 -40 64 -68c37.333 22.667 64 43.167 80 61.5zM401.001 77.501c30.667 11.667 56.333 28.168 77 49.501l-208 201c-44.667 -22 -77 -44.833 -97 -68.5s-30 -52.167 -30 -85.5c0 -36.667 14.5 -64.834 43.5 -84.501
s66.167 -29.5 111.5 -29.5c38 0 72.333 5.83301 103 17.5z" />
    <glyph glyph-name="quotesingle" unicode="'" horiz-adv-x="176" 
d="M45 699h86v-187h-86v187z" />
    <glyph glyph-name="parenleft" unicode="(" horiz-adv-x="330" 
d="M83 26c-25.333 74.667 -38 156.001 -38 244.001c0 87.333 12.667 168.5 38 243.5s62 141.833 110 200.5h107c-50.667 -64.667 -88.667 -133.334 -114 -206.001s-38 -152 -38 -238s12.667 -165.333 38 -238s63.333 -141.334 114 -206.001h-107
c-48 58.667 -84.667 125.334 -110 200.001z" />
    <glyph glyph-name="parenright" unicode=")" horiz-adv-x="330" 
d="M144 32c25.333 72.667 38 151.999 38 237.999s-12.667 165.333 -38 238s-63.333 141.334 -114 206.001h107c48 -58.667 84.667 -125.5 110 -200.5s38 -156.167 38 -243.5c0 -88 -12.667 -169.333 -38 -244s-62 -141.334 -110 -200.001h-107
c50.667 64.667 88.667 133.334 114 206.001z" />
    <glyph glyph-name="asterisk" unicode="*" horiz-adv-x="436" 
d="M86 419l81 112l-122 44l24 57l113 -42v109h72v-109l112 42l25 -57l-123 -43l82 -112l-56 -36l-76 106l-76 -107z" />
    <glyph glyph-name="plus" unicode="+" horiz-adv-x="409" 
d="M163 256h-118v83h118v118h82v-118h119v-83h-119v-119h-82v119z" />
    <glyph glyph-name="comma" unicode="," horiz-adv-x="277" 
d="M126 53h106l-95 -201h-92z" />
    <glyph glyph-name="hyphen" unicode="-" horiz-adv-x="409" 
d="M45 339h319v-83h-319v83z" />
    <glyph glyph-name="period" unicode="." horiz-adv-x="185" 
d="M58.5 13.5c-9 9 -13.5 20.167 -13.5 33.5s4.5 24.666 13.5 33.999s20.167 14 33.5 14s24.666 -4.66699 33.999 -14s14 -20.666 14 -33.999s-4.66699 -24.5 -14 -33.5s-20.666 -13.5 -33.999 -13.5s-24.5 4.5 -33.5 13.5z" />
    <glyph glyph-name="slash" unicode="/" horiz-adv-x="477" 
d="M330 714h102l-285 -714h-102z" />
    <glyph glyph-name="zero" unicode="0" horiz-adv-x="672" 
d="M180.5 29c-43.667 29.333 -77.1689 71.333 -100.502 126s-35 119.334 -35 194.001s11.5 139.5 34.5 194.5s56.333 97.167 100 126.5s95.834 44 156.501 44s112.834 -14.667 156.501 -44s77 -71.5 100 -126.5s34.5 -119.833 34.5 -194.5s-11.667 -139.334 -35 -194.001
s-56.833 -96.667 -100.5 -126s-95.5 -44 -155.5 -44s-111.833 14.667 -155.5 44zM475.498 148.5c33.667 49 50.5 115.5 50.5 199.5s-16.667 150.667 -50 200s-80 74 -140 74s-106.667 -24.667 -140 -74s-50 -116 -50 -200s16.833 -150.5 50.5 -199.5
s80.167 -73.5 139.5 -73.5s105.833 24.5 139.5 73.5z" />
    <glyph glyph-name="one" unicode="1" horiz-adv-x="363" 
d="M196 589l-151 -109v97l165 122h88v-699h-102v589z" />
    <glyph glyph-name="two" unicode="2" horiz-adv-x="581" 
d="M45 67l151.001 145.001c13.333 13.333 32 30.666 56 51.999c38 34.667 67 62.667 87 84s36.333 44.166 49 68.499s19 50.5 19 78.5c0 41.333 -12 72.833 -36 94.5s-59 32.5 -105 32.5c-31.333 0 -63.5 -5.66699 -96.5 -17s-63.833 -28 -92.5 -50v98
c56 40.667 124.333 61 205 61c72 0 128 -19.167 168 -57.5s60 -90.5 60 -156.5c0 -32 -6.83301 -62.667 -20.5 -92s-32.834 -58.166 -57.501 -86.499s-58 -62.833 -100 -103.5l-136 -133h340v-85h-491v67z" />
    <glyph glyph-name="three" unicode="3" horiz-adv-x="574" 
d="M141.5 -5.5c-37 6.33301 -69.166 15.835 -96.499 28.502v84c62 -28 128.667 -42 200 -42c61.333 0 106.833 11.167 136.5 33.5s44.5 54.166 44.5 95.499c0 42.667 -15.333 73.167 -46 91.5s-77.334 27.5 -140.001 27.5h-82v82h80c50 0 90.333 10.167 121 30.5
s46 50.166 46 89.499c0 38.667 -12.667 68 -38 88s-62 30 -110 30c-37.333 0 -71 -4.33301 -101 -13s-61 -23 -93 -43v84c58.667 35.333 127.334 53 206.001 53c78 0 137.333 -17.333 178 -52s61 -82.667 61 -144c0 -37.333 -10 -70 -30 -98s-50 -49.667 -90 -65
c45.333 -10.667 80.166 -30 104.499 -58s36.5 -63.333 36.5 -106c0 -63.333 -21.667 -113.5 -65 -150.5s-112 -55.5 -206 -55.5c-40.667 0 -79.5 3.16699 -116.5 9.5z" />
    <glyph glyph-name="four" unicode="4" horiz-adv-x="601" 
d="M365 172h-340v65l339 462h104v-447h108v-80h-108v-172h-103v172zM377 252v325l-237 -325h237z" />
    <glyph glyph-name="five" unicode="5" horiz-adv-x="570" 
d="M133 -3.5c-34.667 7.66699 -64 18.166 -88 31.499v91c27.333 -16.667 58.333 -29.5 93 -38.5s67.667 -13.5 99 -13.5c60.667 0 106.667 12.833 138 38.5s47 63.5 47 113.5c0 47.333 -14.5 83.5 -43.5 108.5s-72.167 37.5 -129.5 37.5c-24 0 -49.167 -2.33301 -75.5 -7
s-49.833 -11 -70.5 -19l-45 26l26 334h391v-86h-298l-15 -180c41.333 8.66699 83.333 13 126 13c74 0 132 -20.667 174 -62s63 -96.333 63 -165c0 -75.333 -23.667 -133.166 -71 -173.499s-118.666 -60.5 -213.999 -60.5c-36.667 0 -72.334 3.83301 -107.001 11.5z" />
    <glyph glyph-name="six" unicode="6" horiz-adv-x="609" 
d="M173.5 19.5c-39.667 23 -71 57.001 -94 102.001s-34.5 99.167 -34.5 162.5c0 138.667 28.5 245 85.5 319s138.833 111 245.5 111c36.667 0 69.334 -4 98.001 -12v-86c-23.333 10 -53.333 15 -90 15c-142.667 0 -221 -85.667 -235 -257c20 25.333 46.5 44.5 79.5 57.5
s69.167 19.5 108.5 19.5c45.333 0 85 -9.33301 119 -28s60.5 -45.334 79.5 -80.001s28.5 -75 28.5 -121c0 -45.333 -10.167 -86 -30.5 -122s-49.833 -64.167 -88.5 -84.5s-84.334 -30.5 -137.001 -30.5c-50 0 -94.833 11.5 -134.5 34.5zM420.5 106.501
c28.333 28.333 42.502 65.832 42.502 112.499s-14.167 83.667 -42.5 111s-65.833 41 -112.5 41c-28.667 0 -54.834 -6.33301 -78.501 -19s-42.334 -30.667 -56.001 -54s-20.5 -50.333 -20.5 -81c0 -27.333 6.5 -52.666 19.5 -75.999s31.167 -42 54.5 -56s50.333 -21 81 -21
c46.667 0 84.167 14.167 112.5 42.5z" />
    <glyph glyph-name="seven" unicode="7" horiz-adv-x="545" 
d="M406 613h-371v86h475v-75l-281 -624h-100z" />
    <glyph glyph-name="eight" unicode="8" horiz-adv-x="602" 
d="M114 38.5c-46 35.667 -69.001 86.5 -69.001 152.5c0 44.667 11.667 82.167 35 112.5s54.333 50.833 93 61.5c-32 13.333 -57.333 33.833 -76 61.5s-28 59.834 -28 96.501c0 58.667 21 105.167 63 139.5s98.333 51.5 169 51.5c70 0 126 -17.167 168 -51.5
s63 -80.833 63 -139.5c0 -36.667 -9.33301 -68.834 -28 -96.501s-44 -48.167 -76 -61.5c38.667 -10.667 69.834 -31.167 93.501 -61.5s35.5 -67.833 35.5 -112.5c0 -66 -23 -116.833 -69 -152.5s-108.333 -53.5 -187 -53.5s-141 17.833 -187 53.5zM396.999 428.5
c24.667 21.667 37 50.167 37 85.5c0 36 -12.167 65.333 -36.5 88s-56.5 34 -96.5 34s-72.167 -11.333 -96.5 -34s-36.5 -52 -36.5 -88c0 -35.333 12.333 -63.833 37 -85.5s56.667 -32.5 96 -32.5s71.333 10.833 96 32.5zM413.999 96c27.333 24.667 41 58.667 41 102
c0 41.333 -14.167 74 -42.5 98s-65.5 36 -111.5 36s-83.333 -12 -112 -36s-43 -56.667 -43 -98c0 -43.333 13.833 -77.333 41.5 -102s65.5 -37 113.5 -37s85.667 12.333 113 37z" />
    <glyph glyph-name="nine" unicode="9" horiz-adv-x="609" 
d="M135 -3l-0.000976562 84.999c26 -10 56 -15 90 -15c143.333 0 222 85.667 236 257c-20 -25.333 -46.167 -44.333 -78.5 -57s-68.5 -19 -108.5 -19c-44.667 0 -84.334 9.33301 -119.001 28s-61.667 45.334 -81 80.001s-29 75 -29 121c0 45.333 10.167 86 30.5 122
s49.833 64.167 88.5 84.5s84.334 30.5 137.001 30.5c50.667 0 95.834 -11.333 135.501 -34s70.834 -56.5 93.501 -101.5s34 -99.5 34 -163.5c0 -138.667 -28.5 -245 -85.5 -319s-138.833 -111 -245.5 -111c-36.667 0 -69.334 4 -98.001 12zM411.499 369.999
c29.667 28 44.5 65.001 44.5 111.001c0 27.333 -6.5 52.666 -19.5 75.999s-31.167 42 -54.5 56s-50.333 21 -81 21c-46.667 0 -84.167 -14 -112.5 -42s-42.5 -65.333 -42.5 -112s14.167 -83.667 42.5 -111s65.833 -41 112.5 -41c44 0 80.833 14 110.5 42z" />
    <glyph glyph-name="colon" unicode=":" horiz-adv-x="200" 
d="M61 387c-10.667 10.667 -16 23.667 -16 39s5.33301 28.5 16 39.5s23.667 16.5 39 16.5s28.333 -5.5 39 -16.5s16 -24.167 16 -39.5c0 -14.667 -5.33301 -27.5 -16 -38.5s-23.667 -16.5 -39 -16.5s-28.333 5.33301 -39 16zM61 36c-10.667 10.667 -16 23.667 -16 39
s5.33301 28.5 16 39.5s23.667 16.5 39 16.5s28.333 -5.5 39 -16.5s16 -24.167 16 -39.5c0 -14.667 -5.33301 -27.5 -16 -38.5s-23.667 -16.5 -39 -16.5s-28.333 5.33301 -39 16z" />
    <glyph glyph-name="semicolon" unicode=";" horiz-adv-x="277" 
d="M134 387c-10.667 10.667 -16 23.667 -16 39s5.33301 28.5 16 39.5s23.667 16.5 39 16.5s28.333 -5.5 39 -16.5s16 -24.167 16 -39.5c0 -14.667 -5.33301 -27.5 -16 -38.5s-23.667 -16.5 -39 -16.5s-28.333 5.33301 -39 16zM126 53h106l-95 -201h-92z" />
    <glyph glyph-name="less" unicode="&#x3c;" horiz-adv-x="544" 
d="M45 287v73l454 223v-102l-329 -158l329 -158v-101z" />
    <glyph glyph-name="equal" unicode="=" horiz-adv-x="524" 
d="M45 454h434v-82h-434v82zM45 258h434v-81h-434v81z" />
    <glyph glyph-name="greater" unicode="&#x3e;" horiz-adv-x="544" 
d="M45 165l328 158l-328 158v102l454 -223v-73l-454 -223v101z" />
    <glyph glyph-name="question" unicode="?" horiz-adv-x="515" 
d="M166 220c0 40.667 7.66797 74.6689 23.001 102.002s41.333 53.666 78 78.999c26.667 18.667 46.667 33.5 60 44.5s23.833 23.333 31.5 37s11.5 29.834 11.5 48.501c0 30 -12 53.667 -36 71s-58.667 26 -104 26c-66.667 0 -128.334 -13.333 -185.001 -40v88
c26.667 11.333 55.834 20.5 87.501 27.5s64.167 10.5 97.5 10.5c73.333 0 131.666 -16.333 174.999 -49s65 -77.334 65 -134.001c0 -34.667 -9 -64.334 -27 -89.001s-46.333 -51 -85 -79c-28 -20 -48 -35.833 -60 -47.5s-20.667 -24.667 -26 -39s-8 -33.5 -8 -57.5v-20h-98
v21zM172.001 2.00195c-11.333 11.333 -17 25.333 -17 42s5.66699 30.667 17 42s25.333 17 42 17s30.834 -5.66699 42.501 -17s17.5 -25.333 17.5 -42s-5.83301 -30.667 -17.5 -42s-25.834 -17 -42.501 -17s-30.667 5.66699 -42 17z" />
    <glyph glyph-name="at" unicode="@" horiz-adv-x="910" 
d="M237 -35c-60.667 27.333 -107.834 67.8301 -141.501 121.497s-50.5 118.834 -50.5 195.501c0 84 17.833 158.833 53.5 224.5s86.667 116.667 153 153s143.166 54.5 230.499 54.5c120.667 0 214.667 -29.833 282 -89.5s101 -144.167 101 -253.5
c0 -75.333 -15.5 -137.833 -46.5 -187.5s-74.833 -74.5 -131.5 -74.5c-24.667 0 -47.5 6.5 -68.5 19.5s-34.833 30.5 -41.5 52.5c-15.333 -23.333 -35.833 -41.166 -61.5 -53.499s-54.5 -18.5 -86.5 -18.5c-51.333 0 -92.833 15.167 -124.5 45.5s-47.5 74.166 -47.5 131.499
c0 44.667 9.16699 85 27.5 121s44.5 64.5 78.5 85.5s73.667 31.5 119 31.5c26.667 0 53.834 -2.83301 81.501 -8.5s51.834 -13.5 72.501 -23.5l-13 -232c-1.33301 -25.333 3.66699 -44.833 15 -58.5s27 -20.5 47 -20.5c32 0 54.667 16.5 68 49.5s20 79.833 20 140.5
c0 88.667 -24 154.834 -72 198.501s-121 65.5 -219 65.5c-69.333 0 -130 -14.167 -182 -42.5s-92.167 -69.166 -120.5 -122.499s-42.5 -116 -42.5 -188c0 -91.333 26.667 -161 80 -209s131 -72 233 -72c69.333 0 132.666 9.66699 189.999 29v-74
c-55.333 -21.333 -118.666 -32 -189.999 -32c-81.333 0 -152.333 13.667 -213 41zM515 210.497c18 18.333 27.668 40.5 29.001 66.5l10 160c-20 8.66699 -44.667 13 -74 13c-39.333 0 -71 -14.667 -95 -44s-36 -67 -36 -113c0 -36 7.66699 -63.333 23 -82
s37.666 -28 66.999 -28c32.667 0 58 9.16699 76 27.5z" />
    <glyph glyph-name="A" unicode="A" horiz-adv-x="746" 
d="M324 699h98l279 -699h-104l-70 174h-309l-68 -174h-105zM499 259l-126 327l-126 -327h252z" />
    <glyph glyph-name="B" unicode="B" horiz-adv-x="649" 
d="M65 699l321.001 0.000976562c62 0 110 -16 144 -48s51 -78.667 51 -140c0 -34.667 -8.16699 -65.167 -24.5 -91.5s-37.833 -45.833 -64.5 -58.5c74.667 -22 112 -76.333 112 -163c0 -40.667 -8.83301 -75.834 -26.5 -105.501s-41.834 -52.5 -72.501 -68.5
s-64.667 -24 -102 -24h-338v699zM373.001 399.001c32.667 0 58.333 9 77 27s28 44.667 28 80c0 40.667 -9.16699 69.167 -27.5 85.5s-46.5 24.5 -84.5 24.5h-199v-217h206zM380 83.001c39.333 0 69.333 8.66699 90 26s31 47 31 89s-10.833 72 -32.5 90s-54.167 27 -97.5 27
h-204v-232h213z" />
    <glyph glyph-name="C" unicode="C" horiz-adv-x="710" 
d="M223 30c-56 30 -99.668 72.5 -131.001 127.5s-47 118.833 -47 191.5s15.667 136.667 47 192s75 98 131 128s120 45 192 45c96 0 176.333 -24.333 241 -73v-98c-58 51.333 -135.333 77 -232 77c-54 0 -101.833 -11 -143.5 -33s-74.167 -53.5 -97.5 -94.5
s-35 -88.833 -35 -143.5s11.833 -102.667 35.5 -144s56.334 -73 98.001 -95s89.167 -33 142.5 -33c49.333 0 93.5 6.5 132.5 19.5s75.167 33.833 108.5 62.5v-99c-60 -50 -143.333 -75 -250 -75c-72 0 -136 15 -192 45z" />
    <glyph glyph-name="D" unicode="D" horiz-adv-x="703" 
d="M65 699h225.001c75.333 0 140.666 -14 195.999 -42s97.833 -68 127.5 -120s44.5 -113.333 44.5 -184c0 -116 -33.5 -203.833 -100.5 -263.5s-160.833 -89.5 -281.5 -89.5h-211v699zM275.001 85c93.333 0 163.334 23 210.001 69s70 112.333 70 199
c0 80 -22.833 143.333 -68.5 190s-110.834 70 -195.501 70h-124v-528h108z" />
    <glyph glyph-name="E" unicode="E" horiz-adv-x="566" 
d="M65 699h461v-86h-359v-221h268v-85h-268v-222h359v-85h-461v699z" />
    <glyph glyph-name="F" unicode="F" horiz-adv-x="551" 
d="M65 699h461v-86h-359v-223h268v-81h-268v-309h-102v699z" />
    <glyph glyph-name="G" unicode="G" horiz-adv-x="716" 
d="M223 30c-56 30 -99.668 72.5 -131.001 127.5s-47 118.833 -47 191.5s15.667 136.667 47 192s75 98 131 128s120 45 192 45c96.667 0 177 -24 241 -72v-98c-58 50.667 -135.333 76 -232 76c-52.667 0 -100 -11 -142 -33s-74.833 -53.5 -98.5 -94.5
s-35.5 -88.833 -35.5 -143.5s11.667 -102.667 35 -144s55.666 -73 96.999 -95s88 -33 140 -33c60.667 0 110.334 12.333 149.001 37v183h-133v83h235v-320c-31.333 -26 -68.166 -45 -110.499 -57s-90.833 -18 -145.5 -18c-72 0 -136 15 -192 45z" />
    <glyph glyph-name="H" unicode="H" horiz-adv-x="699" 
d="M65 699h102v-300h365v300h102v-699h-102v313h-365v-313h-102v699z" />
    <glyph glyph-name="I" unicode="I" horiz-adv-x="233" 
d="M65 699h103v-699h-103v699z" />
    <glyph glyph-name="J" unicode="J" horiz-adv-x="373" 
d="M72 -10c-20.667 3.33301 -36.332 7.33203 -46.999 11.999v87c10 -4 22.833 -7.33301 38.5 -10s30.5 -4 44.5 -4c68.667 0 103 33.333 103 100v524h102v-531c0 -57.333 -16.333 -102.166 -49 -134.499s-77 -48.5 -133 -48.5c-18.667 0 -38.334 1.66699 -59.001 5z" />
    <glyph glyph-name="K" unicode="K" horiz-adv-x="670" 
d="M65 699h102v-699h-102v699zM172 356l319 343h124l-319 -343l339 -356h-124z" />
    <glyph glyph-name="L" unicode="L" horiz-adv-x="546" 
d="M65 699h102v-614h354v-85h-456v699z" />
    <glyph glyph-name="M" unicode="M" horiz-adv-x="832" 
d="M65 699h102l249 -545l249 545h102v-699h-99v497l-227 -497h-50l-228 497v-497h-98v699z" />
    <glyph glyph-name="N" unicode="N" horiz-adv-x="686" 
d="M65 699h97l356 -527v527h103v-699h-98l-356 527v-527h-102v699z" />
    <glyph glyph-name="O" unicode="O" horiz-adv-x="826" 
d="M225 30.5c-56 30.333 -100 73.166 -132 128.499s-48 118.666 -48 189.999s16 134.666 48 189.999s76 98.333 132 129s118.667 46 188 46s132 -15.333 188 -46s100 -73.667 132 -129s48 -118.666 48 -189.999s-16 -134.666 -48 -189.999s-76 -98.166 -132 -128.499
s-118.667 -45.5 -188 -45.5s-132 15.167 -188 45.5zM547.5 110.5c40.333 22.333 72.1699 54 95.5029 95s35 88.833 35 143.5c0 54 -11.5 101.5 -34.5 142.5s-54.5 72.667 -94.5 95s-84.667 33.5 -134 33.5c-50 0 -95.167 -11 -135.5 -33s-72.333 -53.667 -96 -95
s-35.5 -89 -35.5 -143c0 -54.667 11.667 -102.5 35 -143.5s55.166 -72.667 95.499 -95s85.166 -33.5 134.499 -33.5s94.166 11.167 134.499 33.5z" />
    <glyph glyph-name="P" unicode="P" horiz-adv-x="603" 
d="M65 699h269c75.333 0 134.833 -18.833 178.5 -56.5s65.5 -91.167 65.5 -160.5c0 -70.667 -21.667 -124.167 -65 -160.5s-103 -54.5 -179 -54.5h-167v-267h-102v699zM323 352c46.667 0 83.667 9.66699 111 29s41 53 41 101s-13.667 81.833 -41 101.5
s-64.333 29.5 -111 29.5h-156v-261h156z" />
    <glyph glyph-name="Q" unicode="Q" horiz-adv-x="817" 
d="M229.5 43c-58.333 28.667 -103.667 69.5 -136 122.5s-48.5 114.833 -48.5 185.5c0 71.333 16 134.5 48 189.5s76 97.667 132 128s118.667 45.5 188 45.5s132 -15.167 188 -45.5s100 -73 132 -128s48 -118.167 48 -189.5c0 -56.667 -12.833 -108.5 -38.5 -155.5
s-59.5 -82.833 -101.5 -107.5h151v-88h-361c-76 -0 -143.167 14.333 -201.5 43zM549.999 123c40 20 71.165 49.501 93.498 88.501s33.5 85.5 33.5 139.5c0 53.333 -11.667 100.5 -35 141.5s-55 72.5 -95 94.5s-84.667 33 -134 33s-94.166 -11 -134.499 -33
s-72.166 -53.333 -95.499 -94s-35 -88 -35 -142c0 -54.667 11.167 -101.334 33.5 -140.001s53.5 -68 93.5 -88s86 -30 138 -30c51.333 0 97 10 137 30z" />
    <glyph glyph-name="R" unicode="R" horiz-adv-x="623" 
d="M65 699l281 0.000976562c74.667 0 132 -18 172 -54s60 -88.667 60 -158c0 -51.333 -13.667 -94.833 -41 -130.5s-66 -59.834 -116 -72.501l154 -284h-106l-149 276h-153v-276h-102v699zM329 362.001c44.667 0 80.167 10.501 106.5 31.501s39.5 52.167 39.5 93.5
c0 45.333 -12.833 77.666 -38.5 96.999s-61.5 29 -107.5 29h-162v-251h162z" />
    <glyph glyph-name="S" unicode="S" horiz-adv-x="561" 
d="M140.5 -4.5c-39 7 -70.833 16.499 -95.5 28.499v92c64 -30 133 -45 207 -45c104 0 156 35 156 105c0 24 -5.66699 43.333 -17 58s-27.666 27.5 -48.999 38.5s-56 26.167 -104 45.5c-66 26.667 -113.667 56 -143 88s-44 72.333 -44 121c0 36.667 10 69.167 30 97.5
s48 50.333 84 66s77.333 23.5 124 23.5c38 0 72.333 -3 103 -9s60.667 -15.667 90 -29v-88c-58 26 -116.667 39 -176 39c-48 0 -84.667 -8.66699 -110 -26s-38 -42 -38 -74c0 -22 5.5 -40.5 16.5 -55.5s27.333 -28.333 49 -40s53.834 -26.167 96.501 -43.5
c47.333 -19.333 84.666 -37.666 111.999 -54.999s48.166 -38.5 62.499 -63.5s21.5 -56.167 21.5 -93.5c0 -60.667 -21.667 -107.667 -65 -141s-107.333 -50 -192 -50c-40 0 -79.5 3.5 -118.5 10.5z" />
    <glyph glyph-name="T" unicode="T" horiz-adv-x="587" 
d="M242 613h-217v86h537v-86h-217v-613h-103v613z" />
    <glyph glyph-name="U" unicode="U" horiz-adv-x="697" 
d="M133 58.5c-48.667 49 -72.998 116.499 -72.998 202.499v438h102v-442c0 -59.333 16.667 -104.166 50 -134.499s79 -45.5 137 -45.5c57.333 0 102.666 15.167 135.999 45.5s50 75.166 50 134.499v442h102v-438c0 -85.333 -24.333 -152.666 -73 -201.999
s-120.334 -74 -215.001 -74c-95.333 0 -167.333 24.5 -216 73.5z" />
    <glyph glyph-name="V" unicode="V" horiz-adv-x="746" 
d="M45 699h108l220 -560l220 560h108l-279 -699h-98z" />
    <glyph glyph-name="W" unicode="W" horiz-adv-x="1001" 
d="M45 699h106l156 -531l154 531h80l153 -531l156 531h106l-204 -699h-97l-155 528l-154 -528h-97z" />
    <glyph glyph-name="X" unicode="X" horiz-adv-x="732" 
d="M307 355l-252 344h117l194 -264l194 264h117l-253 -344l262 -355h-117l-203 276l-203 -276h-117z" />
    <glyph glyph-name="Y" unicode="Y" horiz-adv-x="700" 
d="M299 265l-254 434h109l195 -337l198 337h108l-257 -434v-265h-99v265z" />
    <glyph glyph-name="Z" unicode="Z" horiz-adv-x="618" 
d="M45 69l387 544h-378v86h502v-70l-386 -544h403v-85h-528v69z" />
    <glyph glyph-name="bracketleft" unicode="[" horiz-adv-x="305" 
d="M45 787h225v-86h-123v-712h123v-85h-225v883z" />
    <glyph glyph-name="backslash" unicode="\" horiz-adv-x="474" 
d="M45 714h99l285 -714h-99z" />
    <glyph glyph-name="bracketright" unicode="]" horiz-adv-x="305" 
d="M35 -11h122v712h-122v86h225v-883h-225v85z" />
    <glyph glyph-name="asciicircum" unicode="^" horiz-adv-x="548" 
d="M234 719h80l189 -329h-98l-131 232l-132 -232h-97z" />
    <glyph glyph-name="underscore" unicode="_" horiz-adv-x="487" 
d="M45 0h397v-88h-397v88z" />
    <glyph glyph-name="grave" unicode="`" horiz-adv-x="265" 
d="M45 742h107l68 -172h-92z" />
    <glyph glyph-name="a" unicode="a" horiz-adv-x="569" 
d="M97.5 29.5c-35 29.667 -52.499 69.834 -52.499 120.501c0 53.333 16.833 94.5 50.5 123.5s81.5 43.5 143.5 43.5c66 0 122 -13.333 168 -40v25c0 38 -11.5 66.167 -34.5 84.5s-59.167 27.5 -108.5 27.5c-29.333 0 -57.833 -2.83301 -85.5 -8.5s-52.5 -13.5 -74.5 -23.5
v82c20 9.33301 46 16.833 78 22.5s63 8.5 93 8.5c79.333 0 138.166 -17.5 176.499 -52.5s57.5 -83.5 57.5 -145.5v-297h-95v54c-20.667 -22.667 -45.167 -39.834 -73.5 -51.501s-62.833 -17.5 -103.5 -17.5c-58 0 -104.5 14.833 -139.5 44.5zM349.001 81
c26 12.667 45.332 30.333 57.999 53v65c-43.333 28 -91.666 42 -144.999 42c-38.667 0 -67.5 -7.5 -86.5 -22.5s-28.5 -37.833 -28.5 -68.5c0 -58.667 38.333 -88 115 -88c32 0 61 6.33301 87 19z" />
    <glyph glyph-name="b" unicode="b" horiz-adv-x="660" 
d="M250.5 5.5c-31.667 13.667 -60.833 35.168 -87.5 64.501v-70h-98v739h101v-323c22 26 50.333 45.667 85 59s72 20 112 20c48 0 91.167 -10.833 129.5 -32.5s68.333 -51.834 90 -90.501s32.5 -83 32.5 -133c0 -50.667 -10.833 -95.167 -32.5 -133.5s-51.667 -68 -90 -89
s-81.5 -31.5 -129.5 -31.5c-43.333 0 -80.833 6.83301 -112.5 20.5zM428.501 86.501c26.333 14.333 47 34.833 62 61.5s22.5 57 22.5 91s-7.5 64.333 -22.5 91s-35.667 47.334 -62 62.001s-55.833 22 -88.5 22c-40.667 0 -77 -11 -109 -33s-53.667 -51.333 -65 -88v-108
c12.667 -36.667 34.5 -65.834 65.5 -87.501s67.167 -32.5 108.5 -32.5c32.667 0 62.167 7.16699 88.5 21.5z" />
    <glyph glyph-name="c" unicode="c" horiz-adv-x="547" 
d="M176 15c-41.333 20 -73.501 49.166 -96.501 87.499s-34.5 83.833 -34.5 136.5s11.5 98.167 34.5 136.5s55.333 67.833 97 88.5s89.5 31 143.5 31c73.333 0 132 -14.333 176 -43v-83c-43.333 30 -98.666 45 -165.999 45c-54.667 0 -98.834 -14.833 -132.501 -44.5
s-50.5 -73.167 -50.5 -130.5s16.667 -100.666 50 -129.999s77 -44 131 -44c67.333 0 125.333 16 174 48v-82c-23.333 -16 -49.833 -27.667 -79.5 -35s-64.5 -11 -104.5 -11c-53.333 0 -100.666 10 -141.999 30z" />
    <glyph glyph-name="d" unicode="d" horiz-adv-x="660" 
d="M167.5 16.5c-38.333 21 -68.333 50.666 -90 88.999s-32.5 82.833 -32.5 133.5c0 50 10.833 94.333 32.5 133s51.667 68.834 90 90.501s81.5 32.5 129.5 32.5c86.667 0 152.334 -26.333 197.001 -79v323h101v-739h-98v70c-26.667 -29.333 -55.834 -50.833 -87.501 -64.5
s-69.167 -20.5 -112.5 -20.5c-48 0 -91.167 10.5 -129.5 31.5zM428.5 97.499c31 21.667 52.833 50.834 65.5 87.501v108c-11.333 36.667 -32.833 66 -64.5 88s-68.167 33 -109.5 33c-32.667 0 -62.167 -7.33301 -88.5 -22s-47 -35.334 -62 -62.001s-22.5 -57 -22.5 -91
s7.5 -64.333 22.5 -91s35.667 -47.167 62 -61.5s55.833 -21.5 88.5 -21.5c41.333 0 77.5 10.833 108.5 32.5z" />
    <glyph glyph-name="e" unicode="e" horiz-adv-x="608" 
d="M120.5 51.5c-50.333 44.333 -75.501 106.833 -75.501 187.5c0 78.667 22.5 141 67.5 187s109.167 69 192.5 69c55.333 0 102.333 -10.5 141 -31.5s67.834 -50 87.501 -87s29.5 -79.167 29.5 -126.5v-50h-422c3.33301 -45.333 22.5 -79.166 57.5 -101.499
s82.5 -33.5 142.5 -33.5c30.667 0 61.667 2.83301 93 8.5s59 13.167 83 22.5v-81c-21.333 -8.66699 -49.5 -15.834 -84.5 -21.501s-69.5 -8.5 -103.5 -8.5c-88.667 0 -158.167 22.167 -208.5 66.5zM467.999 271c-1.33301 45.333 -16.167 80.5 -44.5 105.5
s-68.5 37.5 -120.5 37.5c-50.667 0 -90 -13 -118 -39s-42.667 -60.667 -44 -104h327z" />
    <glyph glyph-name="f" unicode="f" horiz-adv-x="353" 
d="M98 402h-73v78h73v94c0 55.333 15.667 97.5 47 126.5s73.333 43.5 126 43.5c27.333 0 53 -4 77 -12v-84c-18.667 8.66699 -38 13 -58 13c-31.333 0 -54.333 -7.5 -69 -22.5s-22 -38.5 -22 -70.5v-88h120v-78h-120v-402h-101v402z" />
    <glyph glyph-name="g" unicode="g" horiz-adv-x="660" 
d="M220.5 -222c-31 5.33301 -57.165 13.001 -78.498 23.001v83c50 -22.667 108 -34 174 -34c62 0 107.167 13.5 135.5 40.5s42.5 67.833 42.5 122.5v51c-44 -52.667 -108.667 -79 -194 -79c-48.667 0 -92.334 10.667 -131.001 32s-69 51.333 -91 90s-33 83 -33 133
c0 50.667 10.833 95.167 32.5 133.5s51.667 68.166 90 89.499s81.5 32 129.5 32c44.667 0 82.5 -6.5 113.5 -19.5s59.833 -34.5 86.5 -64.5v69h98v-456c0 -82 -22.833 -144.833 -68.5 -188.5s-115.834 -65.5 -210.501 -65.5c-32.667 0 -64.5 2.66699 -95.5 8z
M429.502 98.001c31.667 22 53.167 51.334 64.5 88.001v108c-12.667 37.333 -34.5 66.666 -65.5 87.999s-67.167 32 -108.5 32c-32.667 0 -62.167 -7.16699 -88.5 -21.5s-47 -34.833 -62 -61.5s-22.5 -57 -22.5 -91c0 -34.667 7.5 -65.167 22.5 -91.5
s35.667 -46.833 62 -61.5s55.833 -22 88.5 -22c41.333 0 77.833 11 109.5 33z" />
    <glyph glyph-name="h" unicode="h" horiz-adv-x="600" 
d="M65 739h101v-325c46 54 107.333 81 184 81c64 0 111.667 -17 143 -51s47 -79.667 47 -137v-307h-101v297c0 78 -37.333 117 -112 117c-32 0 -61.833 -7.5 -89.5 -22.5s-51.5 -37.833 -71.5 -68.5v-323h-101v739z" />
    <glyph glyph-name="i" unicode="i" horiz-adv-x="250" 
d="M82 591c-11.333 11.333 -17 25.333 -17 42s5.66699 30.667 17 42s25.333 17 42 17c17.333 0 31.833 -5.66699 43.5 -17s17.5 -25.333 17.5 -42s-5.83301 -30.667 -17.5 -42s-26.167 -17 -43.5 -17c-16.667 0 -30.667 5.66699 -42 17zM73 480h103v-480h-103v480z" />
    <glyph glyph-name="j" unicode="j" horiz-adv-x="250" 
d="M82 591c-11.333 11.333 -17.002 25.333 -17.002 42s5.83301 30.667 17.5 42s25.834 17 42.501 17s30.834 -5.66699 42.501 -17s17.5 -25.333 17.5 -42s-5.83301 -30.667 -17.5 -42s-25.834 -17 -42.501 -17c-17.333 0 -31.666 5.66699 -42.999 17zM-70.002 -220v83
c17.333 -8 37.333 -12 60 -12c30 0 51.5 7.16699 64.5 21.5s19.5 37.5 19.5 69.5v538h102v-545c0 -55.333 -15.333 -96.833 -46 -124.5s-72 -41.5 -124 -41.5c-30 0 -55.333 3.66699 -76 11z" />
    <glyph glyph-name="k" unicode="k" horiz-adv-x="569" 
d="M65 739h101v-739h-101v739zM167 243l221 237h123l-222 -237l245 -243h-123z" />
    <glyph glyph-name="l" unicode="l" horiz-adv-x="231" 
d="M65 739h101v-739h-101v739z" />
    <glyph glyph-name="m" unicode="m" horiz-adv-x="867" 
d="M65 480l95.9961 0.00195312v-69c22.667 28 48.334 49 77.001 63s58.334 21 89.001 21c38.667 0 69.334 -6.5 92.001 -19.5s39.334 -32.833 50.001 -59.5c21.333 26 47.5 45.667 78.5 59s62.167 20 93.5 20c58.667 0 101 -14.833 127 -44.5s39 -73.5 39 -131.5v-319h-98
v306c0 39.333 -7.33301 67.166 -22 83.499s-39.667 24.5 -75 24.5c-50.667 0 -92 -22 -124 -66c1.33301 -10 2 -26.333 2 -49v-299h-98v306c0 39.333 -6.66699 67.166 -20 83.499s-37.333 24.5 -72 24.5c-50.667 0 -96 -28.667 -136 -86v-328h-99v480z" />
    <glyph glyph-name="n" unicode="n" horiz-adv-x="600" 
d="M65 480l98 -0.000976562v-69c22.667 28.667 50.5 49.834 83.5 63.501s67.5 20.5 103.5 20.5c64 0 111.667 -17 143 -51s47 -79.667 47 -137v-307h-101v297c0 78 -37.333 117 -112 117c-32 0 -61.833 -7.5 -89.5 -22.5s-51.5 -37.833 -71.5 -68.5v-323h-101v480z" />
    <glyph glyph-name="o" unicode="o" horiz-adv-x="637" 
d="M175.5 15.5c-41 20.333 -73 49.666 -96 87.999s-34.5 83.5 -34.5 135.5c0 51.333 11.333 96.333 34 135s54.667 68.5 96 89.5s89 31.5 143 31.5s101.667 -10.5 143 -31.5s73.5 -50.833 96.5 -89.5s34.5 -83.667 34.5 -135c0 -52 -11.5 -97.167 -34.5 -135.5
s-55.167 -67.666 -96.5 -87.999s-89 -30.5 -143 -30.5s-101.5 10.167 -142.5 30.5zM442 113c30.667 32 46 74 46 126c0 54 -15.333 96.667 -46 128s-72 47 -124 47s-93.333 -15.667 -124 -47s-46 -74 -46 -128c0 -52 15.333 -94 46 -126s72 -48 124 -48s93.333 16 124 48z
" />
    <glyph glyph-name="p" unicode="p" horiz-adv-x="660" 
d="M65 480l98 -0.000976562v-71c49.333 57.333 116 86 200 86c48 0 91.167 -10.667 129.5 -32s68.333 -51.166 90 -89.499s32.5 -82.833 32.5 -133.5c0 -50 -10.833 -94.333 -32.5 -133s-51.5 -68.667 -89.5 -90s-81.333 -32 -130 -32c-40 0 -77.333 6.66699 -112 20
s-63 33 -85 59v-283h-101v699zM428.5 86.499c26.333 14.333 47 34.832 62 61.499s22.5 57.334 22.5 92.001s-7.5 65.167 -22.5 91.5s-35.667 46.666 -62 60.999s-55.833 21.5 -88.5 21.5c-40.667 0 -76.5 -10.667 -107.5 -32s-53.167 -50.666 -66.5 -87.999v-108
c11.333 -36.667 33 -66 65 -88s68.333 -33 109 -33c32.667 0 62.167 7.16699 88.5 21.5z" />
    <glyph glyph-name="q" unicode="q" horiz-adv-x="660" 
d="M494 64c-22 -26 -50.333 -45.666 -85 -58.999s-72 -20 -112 -20c-48.667 0 -92 10.667 -130 32s-67.833 51.333 -89.5 90s-32.5 83 -32.5 133c0 50.667 10.833 95.167 32.5 133.5s51.667 68.166 90 89.499s81.5 32 129.5 32c84 0 150.667 -28.667 200 -86v71h98v-699
h-101v283zM429 98.001c32 22 53.667 51.334 65 88.001v108c-13.333 37.333 -35.5 66.666 -66.5 87.999s-66.833 32 -107.5 32c-32.667 0 -62.167 -7.16699 -88.5 -21.5s-47 -34.666 -62 -60.999s-22.5 -56.833 -22.5 -91.5s7.5 -65.334 22.5 -92.001
s35.667 -47.167 62 -61.5s55.833 -21.5 88.5 -21.5c40.667 0 77 11 109 33z" />
    <glyph glyph-name="r" unicode="r" horiz-adv-x="399" 
d="M65 480h98v-86c20 29.333 48.167 51 84.5 65s78.5 21 126.5 21v-79c-51.333 0 -95.333 -8.33301 -132 -25s-62 -43 -76 -79v-297h-101v480z" />
    <glyph glyph-name="s" unicode="s" horiz-adv-x="489" 
d="M136 -2.5c-37.333 8.33301 -66.6719 19.501 -88.0049 33.501v86c26 -15.333 56 -27.833 90 -37.5s67 -14.5 99 -14.5c36 0 62.333 4.33301 79 13s25 22.667 25 42c0 14.667 -3.83301 26.5 -11.5 35.5s-20.667 17.167 -39 24.5s-45.833 16 -82.5 26
c-39.333 11.333 -70.5 22.833 -93.5 34.5s-40.333 26.5 -52 44.5s-17.5 41.333 -17.5 70c0 46 18.167 80.833 54.5 104.5s85.166 35.5 146.499 35.5c32 0 63.333 -3 94 -9s55.334 -14.333 74.001 -25v-84c-19.333 11.333 -43.166 20.333 -71.499 27s-57.166 10 -86.499 10
c-35.333 0 -62.333 -4.33301 -81 -13s-28 -24 -28 -46c0 -14 4 -25.333 12 -34s20.833 -16.167 38.5 -22.5s45.834 -14.5 84.501 -24.5c60.667 -16.667 102.834 -36.334 126.501 -59.001s35.5 -54 35.5 -94c0 -41.333 -17 -74.333 -51 -99s-84.333 -37 -151 -37
c-33.333 0 -68.666 4.16699 -105.999 12.5z" />
    <glyph glyph-name="t" unicode="t" horiz-adv-x="374" 
d="M137.5 27c-26.333 28 -39.5 67.667 -39.5 119v256h-73v78h73v144h102v-144h118v-78h-118v-249c0 -32 6.16699 -54.667 18.5 -68s34.833 -20 67.5 -20c19.333 0 38.666 4.33301 57.999 13v-80c-25.333 -8.66699 -56.666 -13 -93.999 -13c-48.667 0 -86.167 14 -112.5 42z
" />
    <glyph glyph-name="u" unicode="u" horiz-adv-x="600" 
d="M109.5 37c-33 34.667 -49.5 81 -49.5 139v304h101v-300c0 -76.667 38.333 -115 115 -115c67.333 0 120 30.333 158 91v324h101v-480h-98v68c-22.667 -28.667 -49.5 -49.667 -80.5 -63s-64.5 -20 -100.5 -20c-64.667 0 -113.5 17.333 -146.5 52z" />
    <glyph glyph-name="v" unicode="v" horiz-adv-x="586" 
d="M45 480h107l141 -345l141 345h107l-204 -480h-88z" />
    <glyph glyph-name="w" unicode="w" horiz-adv-x="818" 
d="M45 480h103l108 -356l107 356h91l107 -356l108 356h104l-156 -480h-97l-111 358l-111 -358h-98z" />
    <glyph glyph-name="x" unicode="x" horiz-adv-x="617" 
d="M251 251l-188 229h115l130 -159l131 159h115l-188 -229l206 -251h-114l-150 181l-149 -181h-114z" />
    <glyph glyph-name="y" unicode="y" horiz-adv-x="587" 
d="M77 -187l0.00195312 79c17.333 -6.66699 38.666 -10 63.999 -10c23.333 0 41.666 5.83301 54.999 17.5s25.333 30.5 36 56.5l23 56l-210 468h104l160 -369l149 369h104l-216 -534c-20 -50 -43.833 -86.5 -71.5 -109.5s-63.5 -34.5 -107.5 -34.5c-36 0 -66 3.66699 -90 11
z" />
    <glyph glyph-name="z" unicode="z" horiz-adv-x="499" 
d="M45 65l273 337h-267v78h393v-66l-273 -336h283v-78h-409v65z" />
    <glyph glyph-name="braceleft" unicode="{" horiz-adv-x="343" 
d="M142.5 -73c-14.333 16 -21.5 40 -21.5 72v226c0 50.667 -22 76 -66 76h-20v88h20c44 0 66 25.333 66 76v226c0 32 7.16699 56 21.5 72s34.833 24 61.5 24h94v-86h-37c-14 0 -23.833 -3.5 -29.5 -10.5s-8.5 -18.5 -8.5 -34.5v-204c0 -56.667 -22 -92 -66 -106v-2
c44 -12.667 66 -48 66 -106v-204c0 -16 2.83301 -27.5 8.5 -34.5s15.5 -10.5 29.5 -10.5h37v-86h-94c-26.667 0 -47.167 8 -61.5 24z" />
    <glyph glyph-name="bar" unicode="|" horiz-adv-x="192" 
d="M45 812h102v-956h-102v956z" />
    <glyph glyph-name="braceright" unicode="}" horiz-adv-x="343" 
d="M45 -11h37c14 0 23.833 3.5 29.5 10.5s8.5 18.5 8.5 34.5v204c0 58 22 93.333 66 106v2c-44 14 -66 49.333 -66 106v204c0 16 -2.83301 27.5 -8.5 34.5s-15.5 10.5 -29.5 10.5h-37v86h94c26.667 0 47.167 -8 61.5 -24s21.5 -40 21.5 -72v-226c0 -50.667 22 -76 66 -76h20
v-88h-20c-44 0 -66 -25.333 -66 -76v-226c0 -32 -7.16699 -56 -21.5 -72s-34.833 -24 -61.5 -24h-94v86z" />
    <glyph glyph-name="asciitilde" unicode="~" horiz-adv-x="550" 
d="M336 283c-18 5.33301 -39.002 13 -63.002 23s-44.833 17.5 -62.5 22.5s-35.5 7.5 -53.5 7.5c-23.333 0 -44.166 -4.66699 -62.499 -14s-34.833 -24.666 -49.5 -45.999v95c9.33301 16.667 24 29.5 44 38.5s42.667 13.5 68 13.5c20 0 39 -2.66699 57 -8s40 -13.333 66 -24
c27.333 -10.667 48.5 -18.167 63.5 -22.5s31.167 -6.5 48.5 -6.5c23.333 0 44.333 4.66699 63 14s35.334 24.666 50.001 45.999v-95c-10 -16.667 -25 -29.5 -45 -38.5s-42.667 -13.5 -68 -13.5c-19.333 0 -38 2.66699 -56 8z" />
    <glyph glyph-name="uni00A0" unicode="&#xa0;" horiz-adv-x="370" 
 />
    <glyph glyph-name="exclamdown" unicode="&#xa1;" horiz-adv-x="209" 
d="M62 449c-11.333 11.333 -17 25.333 -17 42s5.66699 30.667 17 42s25.333 17 42 17s30.834 -5.66699 42.501 -17s17.5 -25.333 17.5 -42s-5.83301 -30.667 -17.5 -42s-25.834 -17 -42.501 -17s-30.667 5.66699 -42 17zM56 332h98v-499h-98v499z" />
    <glyph glyph-name="cent" unicode="&#xa2;" horiz-adv-x="547" 
d="M274 -12c-70 7.33301 -125.668 32.9971 -167.001 76.9971s-62 102 -62 174c0 70.667 20.667 128.334 62 173.001s97 71.334 167 80.001v88h89v-87c52.667 -4 97 -17.667 133 -41v-83c-36.667 25.333 -81 40 -133 44v-347c52.667 4.66699 99 20.334 139 47.001v-82
c-37.333 -25.333 -83.666 -40 -138.999 -44v-88h-89v89zM273.999 407.997c-39.333 -9.33301 -70.333 -28.165 -93 -56.498s-34 -65.833 -34 -112.5s11.333 -84.334 34 -113.001s53.667 -47.334 93 -56.001v338z" />
    <glyph glyph-name="sterling" unicode="&#xa3;" horiz-adv-x="491" 
d="M45 82h80v254h-74v82h74v114c0 57.333 18.667 102 56 134s84 48 140 48c26.667 0 52.667 -4 78 -12v-83c-16.667 7.33301 -35.667 11 -57 11c-36.667 0 -64.667 -8.66699 -84 -26s-29 -43 -29 -77v-109h175v-82h-175v-254h217v-82h-401v82z" />
    <glyph glyph-name="currency" unicode="&#xa4;" horiz-adv-x="590" 
d="M45 107l85.001 62.999c-22 30 -33 64.333 -33 103c0 39.333 11 74 33 104l-85 63l44 55l87 -70c33.333 27.333 73 41 119 41c45.333 0 84.666 -13.667 117.999 -41l88 70l44 -55l-85 -63c22 -31.333 33 -66 33 -104c0 -37.333 -11 -71.666 -33 -102.999l85 -63l-44 -55
l-88 68c-34 -26.667 -73.333 -40 -118 -40s-84 13.333 -118 40l-88 -68zM377.501 189.999c22.333 22.667 33.5 50.334 33.5 83.001s-11.333 60.5 -34 83.5s-50 34.5 -82 34.5c-32.667 0 -60.167 -11.333 -82.5 -34s-33.5 -50.667 -33.5 -84
c0 -32.667 11.167 -60.334 33.5 -83.001s49.833 -34 82.5 -34s60.167 11.333 82.5 34z" />
    <glyph glyph-name="yen" unicode="&#xa5;" horiz-adv-x="701" 
d="M299 105h-138v69h138v73h-138v68h108l-224 384h109l195 -337l198 337h108l-227 -384h110v-68h-139v-73h139v-69h-139v-105h-100v105z" />
    <glyph glyph-name="brokenbar" unicode="&#xa6;" horiz-adv-x="193" 
d="M45 812h103v-383h-103v383zM45 238h103v-382h-103v382z" />
    <glyph glyph-name="section" unicode="&#xa7;" horiz-adv-x="561" 
d="M140.5 -159.5c-39 7 -70.832 16.5029 -95.499 28.5029v92c64 -30 133 -45 207 -45c51.333 0 89.833 9 115.5 27s38.5 44 38.5 78c0 24 -5.33301 43.667 -16 59s-27.167 28.666 -49.5 39.999s-56.5 26 -102.5 44c-65.333 25.333 -112.833 54.166 -142.5 86.499
s-44.5 72.833 -44.5 121.5c0 28.667 6.66699 53.667 20 75c-13.333 22 -20 48.667 -20 80c0 36.667 10 69.167 30 97.5s48 50.333 84 66s77.333 23.5 124 23.5c38 0 72.333 -3 103 -9s60.667 -15.667 90 -29v-89c-29.333 14 -58.333 24.167 -87 30.5
s-59.334 9.5 -92.001 9.5c-44 0 -78.833 -9.33301 -104.5 -28s-38.5 -43.334 -38.5 -74.001c0 -20 5.33301 -37.333 16 -52s27.167 -28.667 49.5 -42s53.833 -28.666 94.5 -45.999c50.667 -21.333 89 -40 115 -56s46 -35.833 60 -59.5s21 -54.834 21 -93.501
c0 -26.667 -6 -52 -18 -76c12 -24 18 -50.333 18 -79c0 -60.667 -21.667 -107.667 -65 -141s-107.333 -50 -192 -50c-40 0 -79.5 3.5 -118.5 10.5zM433.001 184.003c0 22 -5.66699 40.668 -17 56.001s-27.833 28.833 -49.5 40.5s-52.167 25.167 -91.5 40.5
c-28 10.667 -54.167 22.667 -78.5 36s-41.833 26.333 -52.5 39c-4 -10.667 -6 -22.667 -6 -36c0 -28 11.667 -51.833 35 -71.5s61.333 -39.834 114 -60.501c36.667 -15.333 66.5 -29 89.5 -41s40.5 -24.667 52.5 -38c2.66699 13.333 4 25 4 35z" />
    <glyph glyph-name="dieresis" unicode="&#xa8;" horiz-adv-x="433" 
d="M62.5 602c-11.667 11.333 -17.5 25 -17.5 41s5.83301 29.667 17.5 41s25.167 17 40.5 17s28.833 -5.66699 40.5 -17s17.5 -25 17.5 -41s-5.83301 -29.667 -17.5 -41s-25.167 -17 -40.5 -17s-28.833 5.66699 -40.5 17zM289.5 602c-11.667 11.333 -17.5 25 -17.5 41
s5.83301 29.667 17.5 41s25.167 17 40.5 17s28.833 -5.66699 40.5 -17s17.5 -25 17.5 -41s-5.83301 -29.667 -17.5 -41s-25.167 -17 -40.5 -17s-28.833 5.66699 -40.5 17z" />
    <glyph glyph-name="copyright" unicode="&#xa9;" horiz-adv-x="823" 
d="M226 31c-56 30.667 -100.167 73.5 -132.5 128.5s-48.5 118.167 -48.5 189.5s16.167 134.666 48.5 189.999s76.5 98.333 132.5 129s118 46 186 46s129.833 -15.333 185.5 -46s99.667 -73.667 132 -129s48.5 -118.666 48.5 -189.999s-16.167 -134.5 -48.5 -189.5
s-76.333 -97.833 -132 -128.5s-117.5 -46 -185.5 -46s-130 15.333 -186 46zM551.5 105c41.667 22 74.502 54.001 98.502 96.001s36 91.333 36 148c0 56 -12 105 -36 147s-56.667 74.167 -98 96.5s-88 33.5 -140 33.5c-52.667 0 -99.834 -11.167 -141.501 -33.5
s-74.334 -54.333 -98.001 -96s-35.5 -90.834 -35.5 -147.501s12 -106 36 -148s56.833 -74 98.5 -96s88.5 -33 140.5 -33c51.333 0 97.833 11 139.5 33zM290.502 145.501c-35 18.333 -62.3311 44.832 -81.998 79.499s-29.5 75.667 -29.5 123s10 88.333 30 123
s47.5 61.167 82.5 79.5s74.833 27.5 119.5 27.5c67.333 0 120.333 -13 159 -39v-76c-38.667 27.333 -88.334 41 -149.001 41c-48.667 0 -86.667 -13.167 -114 -39.5s-41 -65.166 -41 -116.499s13.5 -90 40.5 -116s64.167 -39 111.5 -39c62 0 114.667 14.667 158 44v-76
c-42.667 -28.667 -98.334 -43 -167.001 -43c-44 0 -83.5 9.16699 -118.5 27.5z" />
    <glyph glyph-name="ordfeminine" unicode="&#xaa;" horiz-adv-x="423" 
d="M83 380.5c-25.333 21 -38 49.5 -38 85.5c0 37.333 12.5 66.5 37.5 87.5s59.167 31.5 102.5 31.5c45.333 0 84.666 -9.33301 117.999 -28v20c0 26.667 -8 46 -24 58s-42 18 -78 18c-43.333 0 -81.333 -7.33301 -114 -22v60c14 6.66699 32.5 12.167 55.5 16.5
s45.5 6.5 67.5 6.5c56.667 0 98.834 -12.5 126.501 -37.5s41.5 -59.5 41.5 -103.5v-213h-70v35c-29.333 -30.667 -71.333 -46 -126 -46c-40.667 0 -73.667 10.5 -99 31.5zM261.5 419c18.333 8.66699 32.168 21 41.501 37v43c-28.667 19.333 -63 29 -103 29
c-26.667 0 -46.5 -5 -59.5 -15s-19.5 -25.667 -19.5 -47c0 -40 26 -60 78 -60c23.333 0 44.166 4.33301 62.499 13z" />
    <glyph glyph-name="guillemotleft" unicode="&#xab;" horiz-adv-x="599" 
d="M45 308v30l232 197l50 -64l-176 -148l176 -147l-50 -64zM272 308v30l232 197l50 -64l-176 -148l176 -147l-50 -64z" />
    <glyph glyph-name="logicalnot" unicode="&#xac;" horiz-adv-x="440" 
d="M300 258h-255v80h350v-204h-95v124z" />
    <glyph glyph-name="uni00AD" unicode="&#xad;" horiz-adv-x="409" 
d="M45 339h319v-83h-319v83z" />
    <glyph glyph-name="registered" unicode="&#xae;" horiz-adv-x="823" 
d="M226 31c-56 30.667 -100.167 73.5 -132.5 128.5s-48.5 118.167 -48.5 189.5s16.167 134.666 48.5 189.999s76.5 98.333 132.5 129s118 46 186 46s129.833 -15.333 185.5 -46s99.667 -73.667 132 -129s48.5 -118.666 48.5 -189.999s-16.167 -134.5 -48.5 -189.5
s-76.333 -97.833 -132 -128.5s-117.5 -46 -185.5 -46s-130 15.333 -186 46zM551.5 105c41.667 22 74.502 54.001 98.502 96.001s36 91.333 36 148c0 56 -12 105 -36 147s-56.667 74.167 -98 96.5s-88 33.5 -140 33.5c-52.667 0 -99.834 -11.167 -141.501 -33.5
s-74.334 -54.333 -98.001 -96s-35.5 -90.834 -35.5 -147.501s12 -106 36 -148s56.833 -74 98.5 -96s88.5 -33 140.5 -33c51.333 0 97.833 11 139.5 33zM259.002 575.001h177c48.667 0 86.667 -11.167 114 -33.5s41 -55.5 41 -99.5c0 -33.333 -9.83301 -61.5 -29.5 -84.5
s-47.5 -37.833 -83.5 -44.5l94 -185h-81l-93 182h-60v-182h-79v447zM429.002 373.001c30 0 52.167 5.33203 66.5 15.999s21.5 28.334 21.5 53.001c0 28 -6.83301 46.5 -20.5 55.5s-36.167 13.5 -67.5 13.5h-91v-138h91z" />
    <glyph glyph-name="macron" unicode="&#xaf;" horiz-adv-x="401" 
d="M45 673h311v-69h-311v69z" />
    <glyph glyph-name="degree" unicode="&#xb0;" horiz-adv-x="378" 
d="M117 458.5c-22 13 -39.5 30.5 -52.5 52.5s-19.5 46 -19.5 72s6.5 50 19.5 72s30.5 39.5 52.5 52.5s46 19.5 72 19.5s50 -6.5 72 -19.5s39.5 -30.5 52.5 -52.5s19.5 -46 19.5 -72s-6.5 -50 -19.5 -72s-30.5 -39.5 -52.5 -52.5s-46 -19.5 -72 -19.5s-50 6.5 -72 19.5z
M242.5 528.5c15 15 22.5 33.167 22.5 54.5c0 20.667 -7.5 38.5 -22.5 53.5s-33.167 22.5 -54.5 22.5c-20.667 0 -38.5 -7.5 -53.5 -22.5s-22.5 -32.833 -22.5 -53.5s7.5 -38.667 22.5 -54s32.833 -23 53.5 -23c21.333 0 39.5 7.5 54.5 22.5z" />
    <glyph glyph-name="plusminus" unicode="&#xb1;" horiz-adv-x="409" 
d="M163 266h-118v83h118v118h82v-118h119v-83h-119v-119h-82v119zM45 82h319v-82h-319v82z" />
    <glyph glyph-name="uni00B2" unicode="&#xb2;" horiz-adv-x="341" 
d="M45 420l73 63.002c3.33301 3.33301 8.33301 7.66602 15 12.999c32 26.667 53.833 46.834 65.5 60.501s17.5 28.5 17.5 44.5c0 28.667 -18 43 -54 43c-16 0 -33.833 -2.83301 -53.5 -8.5s-35.834 -12.834 -48.501 -21.501v67c12.667 8 29.167 14.667 49.5 20
s39.166 8 56.499 8c41.333 0 72.833 -9.83301 94.5 -29.5s32.5 -44.5 32.5 -74.5c0 -17.333 -3.16699 -32.333 -9.5 -45s-14.666 -24.334 -24.999 -35.001s-27.166 -25.667 -50.499 -45l-59 -50h147v-60h-251v50z" />
    <glyph glyph-name="uni00B3" unicode="&#xb3;" horiz-adv-x="345" 
d="M45 378v60.001c13.333 -6.66699 29.5 -11.834 48.5 -15.501s36.833 -5.5 53.5 -5.5c48.667 0 73 15 73 45c0 16 -5.5 27.5 -16.5 34.5s-29.833 10.5 -56.5 10.5h-46v57h45c43.333 0 65 14.333 65 43s-22.333 43 -67 43c-32.667 0 -63.334 -8.66699 -92.001 -26v59
c29.333 17.333 67 26 113 26c40 0 71 -8.33301 93 -25s33 -39.667 33 -69c0 -38 -18.667 -64.333 -56 -79c43.333 -8.66699 65 -35 65 -79c0 -30 -12.167 -53.667 -36.5 -71s-58.166 -26 -101.499 -26c-50 0 -89 6 -117 18z" />
    <glyph glyph-name="acute" unicode="&#xb4;" horiz-adv-x="265" 
d="M114 753h106l-83 -172h-92z" />
    <glyph glyph-name="paragraph" unicode="&#xb6;" horiz-adv-x="741" 
d="M352 266l-61 -0.00195312c-47.333 0 -89.5 9.33301 -126.5 28s-66.167 46.334 -87.5 83.001s-32 81.334 -32 134.001c0 81.333 23.5 143.5 70.5 186.5s109.833 64.5 188.5 64.5h392v-896h-103v810h-139v-810h-102v400z" />
    <glyph glyph-name="periodcentered" unicode="&#xb7;" horiz-adv-x="185" 
d="M58.5 261c-9 9.33301 -13.5 20.666 -13.5 33.999s4.66699 24.666 14 33.999s20.333 14 33 14c13.333 0 24.666 -4.66699 33.999 -14s14 -20.666 14 -33.999s-4.66699 -24.666 -14 -33.999s-20.666 -14 -33.999 -14s-24.5 4.66699 -33.5 14z" />
    <glyph glyph-name="cedilla" unicode="&#xb8;" horiz-adv-x="306" 
d="M45 -237v58c7.33301 -3.33301 16.333 -6 27 -8s21 -3 31 -3c42 0 63 15.333 63 46c0 36.667 -33.667 55 -101 55l34 89h92l-22 -56c30 -4 52.833 -14.167 68.5 -30.5s23.5 -37.833 23.5 -64.5c0 -29.333 -12.167 -52.833 -36.5 -70.5s-56.833 -26.5 -97.5 -26.5
c-38 0 -65.333 3.66699 -82 11z" />
    <glyph glyph-name="uni00B9" unicode="&#xb9;" horiz-adv-x="233" 
d="M131 620l-86 -62v72l92 69h71v-329h-77v250z" />
    <glyph glyph-name="ordmasculine" unicode="&#xba;" horiz-adv-x="482" 
d="M98.5 397c-35.667 32.667 -53.5 77.333 -53.5 134c0 54.667 18 98.834 54 132.501s83.333 50.5 142 50.5c58 0 105.167 -16.833 141.5 -50.5s54.5 -77.834 54.5 -132.501c0 -56 -18 -100.5 -54 -133.5s-83.333 -49.5 -142 -49.5c-59.333 0 -106.833 16.333 -142.5 49z
M325 443.999c21.333 22 32 51 32 87c0 36.667 -10.5 65.667 -31.5 87s-49.167 32 -84.5 32s-63.5 -10.667 -84.5 -32s-31.5 -50.333 -31.5 -87c0 -36 10.667 -65 32 -87s49.333 -33 84 -33s62.667 11 84 33z" />
    <glyph glyph-name="guillemotright" unicode="&#xbb;" horiz-adv-x="599" 
d="M45 176l176 147l-176 148l50 64l232 -197v-30l-232 -196zM272 176l176 147l-176 148l50 64l232 -197v-30l-232 -196z" />
    <glyph glyph-name="onequarter" unicode="&#xbc;" horiz-adv-x="715" 
d="M131 620l-86 -62v72l92 69h71v-329h-77v250zM493 699h104l-387 -699h-104zM546 72h-158v54l151 203h84v-200h47v-57h-47v-72h-77v72zM557 129v126l-96 -126h96z" />
    <glyph glyph-name="onehalf" unicode="&#xbd;" horiz-adv-x="738" 
d="M131 620l-86 -62v72l92 69h71v-329h-77v250zM493 699h104l-387 -699h-104zM440 50l73.999 63c38 32.667 63.667 56.334 77 71.001s20 30.667 20 48c0 28.667 -18 43 -54 43c-15.333 0 -33 -2.83301 -53 -8.5s-36.333 -12.834 -49 -21.501v67
c12.667 8 29.167 14.667 49.5 20s39.5 8 57.5 8c41.333 0 72.666 -9.83301 93.999 -29.5s32 -44.5 32 -74.5c0 -17.333 -3.16699 -32.333 -9.5 -45s-14.666 -24.167 -24.999 -34.5s-27.166 -25.833 -50.499 -46.5l-58 -50h148v-60h-253v50z" />
    <glyph glyph-name="threequarters" unicode="&#xbe;" horiz-adv-x="735" 
d="M45 378v60.001c13.333 -6.66699 29.5 -11.834 48.5 -15.501s36.833 -5.5 53.5 -5.5c48.667 0 73 15 73 45c0 16 -5.5 27.5 -16.5 34.5s-29.833 10.5 -56.5 10.5h-46v57h45c43.333 0 65 14.333 65 43s-22.333 43 -67 43c-32.667 0 -63.334 -8.66699 -92.001 -26v59
c29.333 17.333 67 26 113 26c40 0 71 -8.33301 93 -25s33 -39.667 33 -69c0 -38 -18.667 -64.333 -56 -79c43.333 -8.66699 65 -35 65 -79c0 -30 -12.167 -53.667 -36.5 -71s-58.166 -26 -101.499 -26c-50 0 -89 6 -117 18zM513 699.001h104l-387 -699h-104zM566 72.001
h-158v54l151 203h84v-200h47v-57h-47v-72h-77v72zM577 129.001v126l-96 -126h96z" />
    <glyph glyph-name="questiondown" unicode="&#xbf;" horiz-adv-x="515" 
d="M257.5 449c-11.667 11.333 -17.502 25.333 -17.502 42s5.83301 30.667 17.5 42s25.834 17 42.501 17s30.834 -5.66699 42.501 -17s17.5 -25.333 17.5 -42s-5.66699 -30.667 -17 -42s-25.666 -17 -42.999 -17c-16.667 0 -30.834 5.66699 -42.501 17zM109.998 -130
c-43.333 32.667 -64.999 77.332 -64.999 133.999c0 34.667 9 64.334 27 89.001s46.333 50.667 85 78c27.333 20 47.166 35.833 59.499 47.5s21 24.667 26 39s7.5 33.5 7.5 57.5v20h98v-21c0 -40.667 -7.66699 -74.5 -23 -101.5s-41 -53.167 -77 -78.5
c-27.333 -19.333 -47.5 -34.5 -60.5 -45.5s-23.333 -23.167 -31 -36.5s-11.5 -29.333 -11.5 -48c0 -30.667 11.833 -54.667 35.5 -72s58.167 -26 103.5 -26c67.333 0 129.333 13.333 186 40v-88c-57.333 -24.667 -119.333 -37 -186 -37c-72.667 0 -130.667 16.333 -174 49z
" />
    <glyph glyph-name="Agrave" unicode="&#xc0;" horiz-adv-x="746" 
d="M240 913h107l69 -172h-93zM324 699h98l279 -699h-104l-70 174h-309l-68 -174h-105zM499 259l-126 327l-126 -327h252z" />
    <glyph glyph-name="Aacute" unicode="&#xc1;" horiz-adv-x="746" 
d="M400 913h107l-83 -172h-92zM324 699h98l279 -699h-104l-70 174h-309l-68 -174h-105zM499 259l-126 327l-126 -327h252z" />
    <glyph glyph-name="Acircumflex" unicode="&#xc2;" horiz-adv-x="746" 
d="M329 907h89l142 -166h-102l-84 107l-84 -107h-103zM324 699h98l279 -699h-104l-70 174h-309l-68 -174h-105zM499 259l-126 327l-126 -327h252z" />
    <glyph glyph-name="Atilde" unicode="&#xc3;" horiz-adv-x="746" 
d="M183 828c20.667 28.667 53.3311 42.999 97.998 42.999c14.667 0 28.834 -2 42.501 -6s31.167 -10.333 52.5 -19c18 -8 33.833 -14.167 47.5 -18.5s27.834 -6.5 42.501 -6.5c20 0 38 3.83301 54 11.5s30.333 20.834 43 39.501v-86c-20 -28 -52.333 -42 -97 -42
c-16.667 0 -32.5 2.16699 -47.5 6.5s-32.167 10.833 -51.5 19.5c-19.333 8 -35 14 -47 18s-25 6 -39 6c-19.333 0 -37 -3.83301 -53 -11.5s-31 -21.167 -45 -40.5v86zM323.997 698.999h98l279 -699h-104l-70 174h-309l-68 -174h-105zM498.997 258.999l-126 327l-126 -327
h252z" />
    <glyph glyph-name="Adieresis" unicode="&#xc4;" horiz-adv-x="746" 
d="M218.5 758c-11.667 11.333 -17.5 25 -17.5 41s5.83301 29.667 17.5 41s25.5 17 41.5 17c15.333 0 28.666 -5.66699 39.999 -17s17 -25 17 -41s-5.66699 -29.667 -17 -41s-24.666 -17 -39.999 -17c-16 0 -29.833 5.66699 -41.5 17zM445.5 758
c-11.667 11.333 -17.5 25 -17.5 41s5.83301 29.667 17.5 41s25.5 17 41.5 17c15.333 0 28.666 -5.66699 39.999 -17s17 -25 17 -41s-5.66699 -29.667 -17 -41s-24.666 -17 -39.999 -17c-16 0 -29.833 5.66699 -41.5 17zM324 699h98l279 -699h-104l-70 174h-309l-68 -174
h-105zM499 259l-126 327l-126 -327h252z" />
    <glyph glyph-name="Aring" unicode="&#xc5;" horiz-adv-x="746" 
d="M701 0l-104 0.00195312l-70 174h-309l-68 -174h-105l267 670c-16.667 10 -30 23.667 -40 41s-15 36.666 -15 57.999c0 32 11.167 59.333 33.5 82s49.833 34 82.5 34c32 0 59.333 -11.333 82 -34s34 -50 34 -82c0 -20.667 -5 -39.834 -15 -57.501s-23.333 -31.5 -40 -41.5
zM335 807.002c-10.667 -10.667 -16 -23.334 -16 -38.001c0 -15.333 5.33301 -28.333 16 -39s23.334 -16 38.001 -16s27.334 5.5 38.001 16.5s16 23.833 16 38.5s-5.33301 27.334 -16 38.001s-23.334 16 -38.001 16s-27.334 -5.33301 -38.001 -16zM499 259.002l-126 327
l-126 -327h252z" />
    <glyph glyph-name="AE" unicode="&#xc6;" horiz-adv-x="922" 
d="M388 699h489v-86h-320v-221h229v-85h-229v-222h320v-85h-422v179h-215l-87 -179h-108zM455 259v348h-8l-166 -348h174z" />
    <glyph glyph-name="Ccedilla" unicode="&#xc7;" horiz-adv-x="710" 
d="M469 -13l-17.002 -43.001c30 -4 52.667 -14.167 68 -30.5s23 -37.833 23 -64.5c0 -29.333 -12 -52.833 -36 -70.5s-56.667 -26.5 -98 -26.5c-36.667 0 -64 3.66699 -82 11l1 58c6.66699 -3.33301 15.5 -6 26.5 -8s21.167 -3 30.5 -3c42.667 0 64 15.333 64 46
c0 36.667 -33.667 55 -101 55l29 76c-65.333 4.66699 -123.166 22.5 -173.499 53.5s-89.333 73 -117 126s-41.5 113.833 -41.5 182.5c0 72.667 15.667 136.667 47 192s75 98 131 128s120 45 192 45c96 0 176.333 -24.333 241 -73v-98c-58 51.333 -135.333 77 -232 77
c-54 0 -101.833 -11 -143.5 -33s-74.167 -53.5 -97.5 -94.5s-35 -88.833 -35 -143.5s11.833 -102.667 35.5 -144s56.334 -73 98.001 -95s89.167 -33 142.5 -33c49.333 0 93.5 6.5 132.5 19.5s75.167 33.833 108.5 62.5v-99c-50 -41.333 -115.333 -65.666 -196 -72.999z" />
    <glyph glyph-name="Egrave" unicode="&#xc8;" horiz-adv-x="571" 
d="M164 926h107l69 -172h-93zM65 699h461v-86h-359v-221h268v-85h-268v-222h359v-85h-461v699z" />
    <glyph glyph-name="Eacute" unicode="&#xc9;" horiz-adv-x="566" 
d="M301 913h107l-83 -172h-92zM65 699h461v-86h-359v-221h268v-85h-268v-222h359v-85h-461v699z" />
    <glyph glyph-name="Ecircumflex" unicode="&#xca;" horiz-adv-x="571" 
d="M236 913h89l142 -166h-102l-84 107l-84 -107h-103zM65 699h461v-86h-359v-221h268v-85h-268v-222h359v-85h-461v699z" />
    <glyph glyph-name="Edieresis" unicode="&#xcb;" horiz-adv-x="571" 
d="M130.5 768c-11.667 11.333 -17.5 25 -17.5 41s5.83301 29.667 17.5 41s25.5 17 41.5 17c15.333 0 28.666 -5.66699 39.999 -17s17 -25 17 -41s-5.66699 -29.667 -17 -41s-24.666 -17 -39.999 -17c-16 0 -29.833 5.66699 -41.5 17zM357.5 768
c-11.667 11.333 -17.5 25 -17.5 41s5.83301 29.667 17.5 41s25.5 17 41.5 17c15.333 0 28.666 -5.66699 39.999 -17s17 -25 17 -41s-5.66699 -29.667 -17 -41s-24.666 -17 -39.999 -17c-16 0 -29.833 5.66699 -41.5 17zM65 699h461v-86h-359v-221h268v-85h-268v-222h359v-85
h-461v699z" />
    <glyph glyph-name="Igrave" unicode="&#xcc;" horiz-adv-x="236" 
d="M-12 913h107l69 -172h-93zM66 699h103v-699h-103v699z" />
    <glyph glyph-name="Iacute" unicode="&#xcd;" horiz-adv-x="236" 
d="M140 913h107l-83 -172h-92zM66 699h103v-699h-103v699z" />
    <glyph glyph-name="Icircumflex" unicode="&#xce;" horiz-adv-x="236" 
d="M73 907h89l142 -166h-102l-84 107l-84 -107h-103zM66 699h103v-699h-103v699z" />
    <glyph glyph-name="Idieresis" unicode="&#xcf;" horiz-adv-x="236" 
d="M-37.5 758c-11.667 11.333 -17.5 25 -17.5 41s5.83301 29.667 17.5 41s25.5 17 41.5 17c15.333 0 28.666 -5.66699 39.999 -17s17 -25 17 -41s-5.66699 -29.667 -17 -41s-24.666 -17 -39.999 -17c-16 0 -29.833 5.66699 -41.5 17zM189.5 758
c-11.667 11.333 -17.5 25 -17.5 41s5.83301 29.667 17.5 41s25.5 17 41.5 17c15.333 0 28.666 -5.66699 39.999 -17s17 -25 17 -41s-5.66699 -29.667 -17 -41s-24.666 -17 -39.999 -17c-16 0 -29.833 5.66699 -41.5 17zM66 699h103v-699h-103v699z" />
    <glyph glyph-name="Eth" unicode="&#xd0;" horiz-adv-x="727" 
d="M89 310h-63.999v78h64v311h225c75.333 0 140.666 -14 195.999 -42s97.833 -68 127.5 -120s44.5 -113.333 44.5 -184c0 -116 -33.5 -203.833 -100.5 -263.5s-160.833 -89.5 -281.5 -89.5h-211v310zM299.001 88c92 0 161.668 22.834 209.001 68.501s71 111.167 71 196.5
c0 79.333 -23.333 142.166 -70 188.499s-111.334 69.5 -194.001 69.5h-123v-223h184v-78h-184v-222h107z" />
    <glyph glyph-name="Ntilde" unicode="&#xd1;" horiz-adv-x="686" 
d="M164 828c20.667 28.667 53.3311 42.999 97.998 42.999c14.667 0 28.834 -2 42.501 -6s31.167 -10.333 52.5 -19c18 -8 33.833 -14.167 47.5 -18.5s27.834 -6.5 42.501 -6.5c20 0 38 3.83301 54 11.5s30.333 20.834 43 39.501v-86c-20 -28 -52.333 -42 -97 -42
c-16.667 0 -32.5 2.16699 -47.5 6.5s-32.167 10.833 -51.5 19.5c-19.333 8 -35 14 -47 18s-25 6 -39 6c-19.333 0 -37 -3.83301 -53 -11.5s-31 -21.167 -45 -40.5v86zM64.9971 698.999h97l356 -527v527h103v-699h-98l-356 527v-527h-102v699z" />
    <glyph glyph-name="Ograve" unicode="&#xd2;" horiz-adv-x="826" 
d="M294 913h107l69 -172h-93zM225 30.5c-56 30.333 -100 73.166 -132 128.499s-48 118.666 -48 189.999s16 134.666 48 189.999s76 98.333 132 129s118.667 46 188 46s132 -15.333 188 -46s100 -73.667 132 -129s48 -118.666 48 -189.999s-16 -134.666 -48 -189.999
s-76 -98.166 -132 -128.499s-118.667 -45.5 -188 -45.5s-132 15.167 -188 45.5zM547.5 110.5c40.333 22.333 72.1699 54 95.5029 95s35 88.833 35 143.5c0 54 -11.5 101.5 -34.5 142.5s-54.5 72.667 -94.5 95s-84.667 33.5 -134 33.5c-50 0 -95.167 -11 -135.5 -33
s-72.333 -53.667 -96 -95s-35.5 -89 -35.5 -143c0 -54.667 11.667 -102.5 35 -143.5s55.166 -72.667 95.499 -95s85.166 -33.5 134.499 -33.5s94.166 11.167 134.499 33.5z" />
    <glyph glyph-name="Oacute" unicode="&#xd3;" horiz-adv-x="826" 
d="M434 913h107l-83 -172h-92zM225 30.5c-56 30.333 -100 73.166 -132 128.499s-48 118.666 -48 189.999s16 134.666 48 189.999s76 98.333 132 129s118.667 46 188 46s132 -15.333 188 -46s100 -73.667 132 -129s48 -118.666 48 -189.999s-16 -134.666 -48 -189.999
s-76 -98.166 -132 -128.499s-118.667 -45.5 -188 -45.5s-132 15.167 -188 45.5zM547.5 110.5c40.333 22.333 72.1699 54 95.5029 95s35 88.833 35 143.5c0 54 -11.5 101.5 -34.5 142.5s-54.5 72.667 -94.5 95s-84.667 33.5 -134 33.5c-50 0 -95.167 -11 -135.5 -33
s-72.333 -53.667 -96 -95s-35.5 -89 -35.5 -143c0 -54.667 11.667 -102.5 35 -143.5s55.166 -72.667 95.499 -95s85.166 -33.5 134.499 -33.5s94.166 11.167 134.499 33.5z" />
    <glyph glyph-name="Ocircumflex" unicode="&#xd4;" horiz-adv-x="826" 
d="M369 907h89l142 -166h-102l-84 107l-84 -107h-103zM225 30.5c-56 30.333 -100 73.166 -132 128.499s-48 118.666 -48 189.999s16 134.666 48 189.999s76 98.333 132 129s118.667 46 188 46s132 -15.333 188 -46s100 -73.667 132 -129s48 -118.666 48 -189.999
s-16 -134.666 -48 -189.999s-76 -98.166 -132 -128.499s-118.667 -45.5 -188 -45.5s-132 15.167 -188 45.5zM547.5 110.5c40.333 22.333 72.1699 54 95.5029 95s35 88.833 35 143.5c0 54 -11.5 101.5 -34.5 142.5s-54.5 72.667 -94.5 95s-84.667 33.5 -134 33.5
c-50 0 -95.167 -11 -135.5 -33s-72.333 -53.667 -96 -95s-35.5 -89 -35.5 -143c0 -54.667 11.667 -102.5 35 -143.5s55.166 -72.667 95.499 -95s85.166 -33.5 134.499 -33.5s94.166 11.167 134.499 33.5z" />
    <glyph glyph-name="Otilde" unicode="&#xd5;" horiz-adv-x="826" 
d="M223 828c20.667 28.667 53.3311 42.999 97.998 42.999c14.667 0 28.834 -2 42.501 -6s31.167 -10.333 52.5 -19c18 -8 33.833 -14.167 47.5 -18.5s27.834 -6.5 42.501 -6.5c20 0 38 3.83301 54 11.5s30.333 20.834 43 39.501v-86c-20 -28 -52.333 -42 -97 -42
c-16.667 0 -32.5 2.16699 -47.5 6.5s-32.167 10.833 -51.5 19.5c-19.333 8 -35 14 -47 18s-25 6 -39 6c-19.333 0 -37 -3.83301 -53 -11.5s-31 -21.167 -45 -40.5v86zM224.997 30.499c-56 30.333 -100 73.166 -132 128.499s-48 118.666 -48 189.999s16 134.666 48 189.999
s76 98.333 132 129s118.667 46 188 46s132 -15.333 188 -46s100 -73.667 132 -129s48 -118.666 48 -189.999s-16 -134.666 -48 -189.999s-76 -98.166 -132 -128.499s-118.667 -45.5 -188 -45.5s-132 15.167 -188 45.5zM547.497 110.499c40.333 22.333 72.1699 54 95.5029 95
s35 88.833 35 143.5c0 54 -11.5 101.5 -34.5 142.5s-54.5 72.667 -94.5 95s-84.667 33.5 -134 33.5c-50 0 -95.167 -11 -135.5 -33s-72.333 -53.667 -96 -95s-35.5 -89 -35.5 -143c0 -54.667 11.667 -102.5 35 -143.5s55.166 -72.667 95.499 -95s85.166 -33.5 134.499 -33.5
s94.166 11.167 134.499 33.5z" />
    <glyph glyph-name="Odieresis" unicode="&#xd6;" horiz-adv-x="826" 
d="M258.5 758c-11.667 11.333 -17.5 25 -17.5 41s5.83301 29.667 17.5 41s25.5 17 41.5 17c15.333 0 28.666 -5.66699 39.999 -17s17 -25 17 -41s-5.66699 -29.667 -17 -41s-24.666 -17 -39.999 -17c-16 0 -29.833 5.66699 -41.5 17zM485.5 758
c-11.667 11.333 -17.5 25 -17.5 41s5.83301 29.667 17.5 41s25.5 17 41.5 17c15.333 0 28.666 -5.66699 39.999 -17s17 -25 17 -41s-5.66699 -29.667 -17 -41s-24.666 -17 -39.999 -17c-16 0 -29.833 5.66699 -41.5 17zM225 30.5c-56 30.333 -100 73.166 -132 128.499
s-48 118.666 -48 189.999s16 134.666 48 189.999s76 98.333 132 129s118.667 46 188 46s132 -15.333 188 -46s100 -73.667 132 -129s48 -118.666 48 -189.999s-16 -134.666 -48 -189.999s-76 -98.166 -132 -128.499s-118.667 -45.5 -188 -45.5s-132 15.167 -188 45.5z
M547.5 110.5c40.333 22.333 72.1699 54 95.5029 95s35 88.833 35 143.5c0 54 -11.5 101.5 -34.5 142.5s-54.5 72.667 -94.5 95s-84.667 33.5 -134 33.5c-50 0 -95.167 -11 -135.5 -33s-72.333 -53.667 -96 -95s-35.5 -89 -35.5 -143c0 -54.667 11.667 -102.5 35 -143.5
s55.166 -72.667 95.499 -95s85.166 -33.5 134.499 -33.5s94.166 11.167 134.499 33.5z" />
    <glyph glyph-name="multiply" unicode="&#xd7;" horiz-adv-x="374" 
d="M187 243l-83 -83l-58 57l83 84l-84 84l58 58l83 -84l85 85l58 -59l-85 -85l84 -83l-57 -58z" />
    <glyph glyph-name="Oslash" unicode="&#xd8;" horiz-adv-x="826" 
d="M236 25c-58.667 30 -105.167 73.167 -139.5 129.5s-51.5 121.166 -51.5 194.499c0 71.333 16 134.666 48 189.999s76 98.333 132 129s118.667 46 188 46c32 0 63.667 -3.66699 95 -11l33 81h100l-46 -113c58 -30 103.5 -73 136.5 -129s49.5 -120.333 49.5 -193
c0 -71.333 -16 -134.666 -48 -189.999s-76 -98.166 -132 -128.499s-118.667 -45.5 -188 -45.5c-28 0 -58 3.33301 -90 10l-32 -81h-100zM472 614c-19.333 4 -39 5.99902 -59 5.99902c-50 0 -95 -11.167 -135 -33.5s-71.667 -54 -95 -95s-35 -88.5 -35 -142.5
c0 -52.667 11 -99.167 33 -139.5s52 -72.166 90 -95.499zM547.5 110.499c40.333 22.333 72.168 54 95.501 95s35 88.833 35 143.5c0 51.333 -10.667 96.833 -32 136.5s-50.333 71.167 -87 94.5l-201 -498c14.667 -3.33301 33 -5 55 -5c49.333 0 94.166 11.167 134.499 33.5z
" />
    <glyph glyph-name="Ugrave" unicode="&#xd9;" horiz-adv-x="697" 
d="M224 913h107l69 -172h-93zM133 58.5c-48.667 49 -72.998 116.499 -72.998 202.499v438h102v-442c0 -59.333 16.667 -104.166 50 -134.499s79 -45.5 137 -45.5c57.333 0 102.666 15.167 135.999 45.5s50 75.166 50 134.499v442h102v-438
c0 -85.333 -24.333 -152.666 -73 -201.999s-120.334 -74 -215.001 -74c-95.333 0 -167.333 24.5 -216 73.5z" />
    <glyph glyph-name="Uacute" unicode="&#xda;" horiz-adv-x="697" 
d="M363 913h107l-83 -172h-92zM133 58.5c-48.667 49 -72.998 116.499 -72.998 202.499v438h102v-442c0 -59.333 16.667 -104.166 50 -134.499s79 -45.5 137 -45.5c57.333 0 102.666 15.167 135.999 45.5s50 75.166 50 134.499v442h102v-438
c0 -85.333 -24.333 -152.666 -73 -201.999s-120.334 -74 -215.001 -74c-95.333 0 -167.333 24.5 -216 73.5z" />
    <glyph glyph-name="Ucircumflex" unicode="&#xdb;" horiz-adv-x="697" 
d="M304 907h89l142 -166h-102l-84 107l-84 -107h-103zM133 58.5c-48.667 49 -72.998 116.499 -72.998 202.499v438h102v-442c0 -59.333 16.667 -104.166 50 -134.499s79 -45.5 137 -45.5c57.333 0 102.666 15.167 135.999 45.5s50 75.166 50 134.499v442h102v-438
c0 -85.333 -24.333 -152.666 -73 -201.999s-120.334 -74 -215.001 -74c-95.333 0 -167.333 24.5 -216 73.5z" />
    <glyph glyph-name="Udieresis" unicode="&#xdc;" horiz-adv-x="697" 
d="M193.5 758c-11.667 11.333 -17.5 25 -17.5 41s5.83301 29.667 17.5 41s25.5 17 41.5 17c15.333 0 28.666 -5.66699 39.999 -17s17 -25 17 -41s-5.66699 -29.667 -17 -41s-24.666 -17 -39.999 -17c-16 0 -29.833 5.66699 -41.5 17zM420.5 758
c-11.667 11.333 -17.5 25 -17.5 41s5.83301 29.667 17.5 41s25.5 17 41.5 17c15.333 0 28.666 -5.66699 39.999 -17s17 -25 17 -41s-5.66699 -29.667 -17 -41s-24.666 -17 -39.999 -17c-16 0 -29.833 5.66699 -41.5 17zM133 58.5
c-48.667 49 -72.998 116.499 -72.998 202.499v438h102v-442c0 -59.333 16.667 -104.166 50 -134.499s79 -45.5 137 -45.5c57.333 0 102.666 15.167 135.999 45.5s50 75.166 50 134.499v442h102v-438c0 -85.333 -24.333 -152.666 -73 -201.999s-120.334 -74 -215.001 -74
c-95.333 0 -167.333 24.5 -216 73.5z" />
    <glyph glyph-name="Yacute" unicode="&#xdd;" horiz-adv-x="700" 
d="M355 926h107l-83 -172h-92zM299 265l-254 434h109l195 -337l198 337h108l-257 -434v-265h-99v265z" />
    <glyph glyph-name="Thorn" unicode="&#xde;" horiz-adv-x="603" 
d="M65 699h102v-138h173c76 0 134.667 -17.333 176 -52s62 -87.667 62 -159c0 -70.667 -20.667 -123.167 -62 -157.5s-100 -51.5 -176 -51.5h-173v-141h-102v699zM323 226c47.333 0 84.5 8.83301 111.5 26.5s40.5 50.167 40.5 97.5c0 48 -13.333 80.833 -40 98.5
s-64 26.5 -112 26.5h-156v-249h156z" />
    <glyph glyph-name="germandbls" unicode="&#xdf;" horiz-adv-x="633" 
d="M233 4l0.00195312 93.998c30 -14 68.667 -21 116 -21c42 0 75.167 12.667 99.5 38s36.5 59 36.5 101c0 80.667 -50.667 121 -152 121h-50v86h43c34 0 59.667 10 77 30s26 48 26 84c0 34 -11.5 61.333 -34.5 82s-54.167 31 -93.5 31c-92.667 0 -139 -46.667 -139 -140
v-510h-102v504c0 76.667 20.667 135.834 62 177.501s100.666 62.5 177.999 62.5c51.333 0 94.333 -9.66699 129 -29s60.5 -44.833 77.5 -76.5s25.5 -65.5 25.5 -101.5c0 -34 -7.33301 -64.5 -22 -91.5s-35.334 -46.833 -62.001 -59.5c45.333 -10.667 80 -31.667 104 -63
s36 -71.666 36 -120.999c0 -65.333 -19.167 -117.833 -57.5 -157.5s-93.5 -59.5 -165.5 -59.5c-58 0 -102 6.33301 -132 19z" />
    <glyph glyph-name="agrave" unicode="&#xe0;" horiz-adv-x="569" 
d="M171 706h107l69 -172h-93zM97.5 29.5c-35 29.667 -52.499 69.834 -52.499 120.501c0 53.333 16.833 94.5 50.5 123.5s81.5 43.5 143.5 43.5c66 0 122 -13.333 168 -40v25c0 38 -11.5 66.167 -34.5 84.5s-59.167 27.5 -108.5 27.5c-29.333 0 -57.833 -2.83301 -85.5 -8.5
s-52.5 -13.5 -74.5 -23.5v82c20 9.33301 46 16.833 78 22.5s63 8.5 93 8.5c79.333 0 138.166 -17.5 176.499 -52.5s57.5 -83.5 57.5 -145.5v-297h-95v54c-20.667 -22.667 -45.167 -39.834 -73.5 -51.501s-62.833 -17.5 -103.5 -17.5c-58 0 -104.5 14.833 -139.5 44.5z
M349.001 81c26 12.667 45.332 30.333 57.999 53v65c-43.333 28 -91.666 42 -144.999 42c-38.667 0 -67.5 -7.5 -86.5 -22.5s-28.5 -37.833 -28.5 -68.5c0 -58.667 38.333 -88 115 -88c32 0 61 6.33301 87 19z" />
    <glyph glyph-name="aacute" unicode="&#xe1;" horiz-adv-x="569" 
d="M305 706h107l-83 -172h-92zM97.5 29.5c-35 29.667 -52.499 69.834 -52.499 120.501c0 53.333 16.833 94.5 50.5 123.5s81.5 43.5 143.5 43.5c66 0 122 -13.333 168 -40v25c0 38 -11.5 66.167 -34.5 84.5s-59.167 27.5 -108.5 27.5c-29.333 0 -57.833 -2.83301 -85.5 -8.5
s-52.5 -13.5 -74.5 -23.5v82c20 9.33301 46 16.833 78 22.5s63 8.5 93 8.5c79.333 0 138.166 -17.5 176.499 -52.5s57.5 -83.5 57.5 -145.5v-297h-95v54c-20.667 -22.667 -45.167 -39.834 -73.5 -51.501s-62.833 -17.5 -103.5 -17.5c-58 0 -104.5 14.833 -139.5 44.5z
M349.001 81c26 12.667 45.332 30.333 57.999 53v65c-43.333 28 -91.666 42 -144.999 42c-38.667 0 -67.5 -7.5 -86.5 -22.5s-28.5 -37.833 -28.5 -68.5c0 -58.667 38.333 -88 115 -88c32 0 61 6.33301 87 19z" />
    <glyph glyph-name="acircumflex" unicode="&#xe2;" horiz-adv-x="569" 
d="M249 700h89l142 -166h-102l-84 107l-84 -107h-103zM97.5 29.5c-35 29.667 -52.499 69.834 -52.499 120.501c0 53.333 16.833 94.5 50.5 123.5s81.5 43.5 143.5 43.5c66 0 122 -13.333 168 -40v25c0 38 -11.5 66.167 -34.5 84.5s-59.167 27.5 -108.5 27.5
c-29.333 0 -57.833 -2.83301 -85.5 -8.5s-52.5 -13.5 -74.5 -23.5v82c20 9.33301 46 16.833 78 22.5s63 8.5 93 8.5c79.333 0 138.166 -17.5 176.499 -52.5s57.5 -83.5 57.5 -145.5v-297h-95v54c-20.667 -22.667 -45.167 -39.834 -73.5 -51.501s-62.833 -17.5 -103.5 -17.5
c-58 0 -104.5 14.833 -139.5 44.5zM349.001 81c26 12.667 45.332 30.333 57.999 53v65c-43.333 28 -91.666 42 -144.999 42c-38.667 0 -67.5 -7.5 -86.5 -22.5s-28.5 -37.833 -28.5 -68.5c0 -58.667 38.333 -88 115 -88c32 0 61 6.33301 87 19z" />
    <glyph glyph-name="atilde" unicode="&#xe3;" horiz-adv-x="569" 
d="M110 620c20.667 28.667 53.3311 42.999 97.998 42.999c14.667 0 28.834 -2 42.501 -6s31.167 -10.333 52.5 -19c18 -8 33.833 -14.167 47.5 -18.5s27.834 -6.5 42.501 -6.5c20 0 38 3.83301 54 11.5s30.333 20.834 43 39.501v-86c-20 -28 -52.333 -42 -97 -42
c-16.667 0 -32.5 2.16699 -47.5 6.5s-32.167 10.833 -51.5 19.5c-19.333 8 -35 14 -47 18s-25 6 -39 6c-19.333 0 -37 -3.83301 -53 -11.5s-31 -21.167 -45 -40.5v86zM97.4971 29.499c-35 29.667 -52.499 69.834 -52.499 120.501c0 53.333 16.833 94.5 50.5 123.5
s81.5 43.5 143.5 43.5c66 0 122 -13.333 168 -40v25c0 38 -11.5 66.167 -34.5 84.5s-59.167 27.5 -108.5 27.5c-29.333 0 -57.833 -2.83301 -85.5 -8.5s-52.5 -13.5 -74.5 -23.5v82c20 9.33301 46 16.833 78 22.5s63 8.5 93 8.5c79.333 0 138.166 -17.5 176.499 -52.5
s57.5 -83.5 57.5 -145.5v-297h-95v54c-20.667 -22.667 -45.167 -39.834 -73.5 -51.501s-62.833 -17.5 -103.5 -17.5c-58 0 -104.5 14.833 -139.5 44.5zM348.998 80.999c26 12.667 45.332 30.333 57.999 53v65c-43.333 28 -91.666 42 -144.999 42
c-38.667 0 -67.5 -7.5 -86.5 -22.5s-28.5 -37.833 -28.5 -68.5c0 -58.667 38.333 -88 115 -88c32 0 61 6.33301 87 19z" />
    <glyph glyph-name="adieresis" unicode="&#xe4;" horiz-adv-x="569" 
d="M133.5 547c-11.667 11.333 -17.5 25 -17.5 41s5.83301 29.667 17.5 41s25.5 17 41.5 17c15.333 0 28.666 -5.66699 39.999 -17s17 -25 17 -41s-5.66699 -29.667 -17 -41s-24.666 -17 -39.999 -17c-16 0 -29.833 5.66699 -41.5 17zM360.5 547
c-11.667 11.333 -17.5 25 -17.5 41s5.83301 29.667 17.5 41s25.5 17 41.5 17c15.333 0 28.666 -5.66699 39.999 -17s17 -25 17 -41s-5.66699 -29.667 -17 -41s-24.666 -17 -39.999 -17c-16 0 -29.833 5.66699 -41.5 17zM97.5 29.5
c-35 29.667 -52.499 69.834 -52.499 120.501c0 53.333 16.833 94.5 50.5 123.5s81.5 43.5 143.5 43.5c66 0 122 -13.333 168 -40v25c0 38 -11.5 66.167 -34.5 84.5s-59.167 27.5 -108.5 27.5c-29.333 0 -57.833 -2.83301 -85.5 -8.5s-52.5 -13.5 -74.5 -23.5v82
c20 9.33301 46 16.833 78 22.5s63 8.5 93 8.5c79.333 0 138.166 -17.5 176.499 -52.5s57.5 -83.5 57.5 -145.5v-297h-95v54c-20.667 -22.667 -45.167 -39.834 -73.5 -51.501s-62.833 -17.5 -103.5 -17.5c-58 0 -104.5 14.833 -139.5 44.5zM349.001 81
c26 12.667 45.332 30.333 57.999 53v65c-43.333 28 -91.666 42 -144.999 42c-38.667 0 -67.5 -7.5 -86.5 -22.5s-28.5 -37.833 -28.5 -68.5c0 -58.667 38.333 -88 115 -88c32 0 61 6.33301 87 19z" />
    <glyph glyph-name="aring" unicode="&#xe5;" horiz-adv-x="569" 
d="M218.5 568.5c-22.333 22.333 -33.5 49.833 -33.5 82.5c0 32 11.167 59.333 33.5 82s49.833 34 82.5 34c32 0 59.333 -11.333 82 -34s34 -50 34 -82c0 -32.667 -11.333 -60.167 -34 -82.5s-50 -33.5 -82 -33.5c-32.667 0 -60.167 11.167 -82.5 33.5zM339 612.5
c10.667 11 16 23.833 16 38.5s-5.33301 27.334 -16 38.001s-23.334 16 -38.001 16s-27.334 -5.33301 -38.001 -16s-16 -23.334 -16 -38.001c0 -15.333 5.33301 -28.333 16 -39s23.334 -16 38.001 -16s27.334 5.5 38.001 16.5zM97.5 29.5
c-35 29.667 -52.499 69.834 -52.499 120.501c0 53.333 16.833 94.5 50.5 123.5s81.5 43.5 143.5 43.5c66 0 122 -13.333 168 -40v25c0 38 -11.5 66.167 -34.5 84.5s-59.167 27.5 -108.5 27.5c-29.333 0 -57.833 -2.83301 -85.5 -8.5s-52.5 -13.5 -74.5 -23.5v82
c20 9.33301 46 16.833 78 22.5s63 8.5 93 8.5c79.333 0 138.166 -17.5 176.499 -52.5s57.5 -83.5 57.5 -145.5v-297h-95v54c-20.667 -22.667 -45.167 -39.834 -73.5 -51.501s-62.833 -17.5 -103.5 -17.5c-58 0 -104.5 14.833 -139.5 44.5zM349.001 81
c26 12.667 45.332 30.333 57.999 53v65c-43.333 28 -91.666 42 -144.999 42c-38.667 0 -67.5 -7.5 -86.5 -22.5s-28.5 -37.833 -28.5 -68.5c0 -58.667 38.333 -88 115 -88c32 0 61 6.33301 87 19z" />
    <glyph glyph-name="ae" unicode="&#xe6;" horiz-adv-x="972" 
d="M97.5 29c-35 29.333 -52.4971 69.668 -52.4971 121.001c0 53.333 16.833 94.5 50.5 123.5s81.5 43.5 143.5 43.5c66 0 122 -13.333 168 -40v25c0 38 -11.5 66.167 -34.5 84.5s-59.167 27.5 -108.5 27.5c-29.333 0 -57.833 -2.83301 -85.5 -8.5s-52.5 -13.5 -74.5 -23.5
v82c20 9.33301 46 16.833 78 22.5s63 8.5 93 8.5c88 0 152 -26.667 192 -80c22.667 25.333 51 45 85 59s72.667 21 116 21c55.333 0 102.5 -10.5 141.5 -31.5s68.333 -50 88 -87s29.5 -79.167 29.5 -126.5v-50h-420c3.33301 -46 22.166 -80 56.499 -102
s81.166 -33 140.499 -33c31.333 0 62.5 2.83301 93.5 8.5s58.5 13.167 82.5 22.5v-81c-21.333 -8.66699 -49.5 -15.834 -84.5 -21.501s-69.5 -8.5 -103.5 -8.5c-98.667 0 -174.334 29.667 -227.001 89c-26 -28.667 -57 -50.667 -93 -66s-79.667 -23 -131 -23
c-60.667 0 -108.5 14.667 -143.5 44zM831.003 271.002c-1.33301 45.333 -16.001 80.5 -44.001 105.5s-68 37.5 -120 37.5c-50.667 0 -89.667 -13 -117 -39s-41.666 -60.667 -42.999 -104h324zM348.502 80.502c25.667 12.333 45.166 29.833 58.499 52.5v66
c-43.333 28 -91.666 42 -144.999 42c-38.667 0 -67.5 -7.5 -86.5 -22.5s-28.5 -37.833 -28.5 -68.5c0 -58.667 38.333 -88 115 -88c32 0 60.833 6.16699 86.5 18.5z" />
    <glyph glyph-name="ccedilla" unicode="&#xe7;" horiz-adv-x="547" 
d="M363 -13l-17.001 -43.001c30 -4 52.667 -14.167 68 -30.5s23 -37.833 23 -64.5c0 -29.333 -12 -52.833 -36 -70.5s-56.667 -26.5 -98 -26.5c-36.667 0 -64 3.66699 -82 11l1 58c6.66699 -3.33301 15.5 -6 26.5 -8s21.167 -3 30.5 -3c42.667 0 64 15.333 64 46
c0 36.667 -33.667 55 -101 55l29 77c-69.333 8 -124.333 34 -165 78s-61 101.667 -61 173c0 52.667 11.5 98.167 34.5 136.5s55.333 67.833 97 88.5s89.5 31 143.5 31c73.333 0 132 -14.333 176 -43v-83c-43.333 30 -98.666 45 -165.999 45
c-54.667 0 -98.834 -14.833 -132.501 -44.5s-50.5 -73.167 -50.5 -130.5s16.667 -100.666 50 -129.999s77 -44 131 -44c67.333 0 125.333 16 174 48v-82c-37.333 -25.333 -83.666 -40 -138.999 -44z" />
    <glyph glyph-name="egrave" unicode="&#xe8;" horiz-adv-x="608" 
d="M188 706h107l69 -172h-93zM120.5 51.5c-50.333 44.333 -75.501 106.833 -75.501 187.5c0 78.667 22.5 141 67.5 187s109.167 69 192.5 69c55.333 0 102.333 -10.5 141 -31.5s67.834 -50 87.501 -87s29.5 -79.167 29.5 -126.5v-50h-422
c3.33301 -45.333 22.5 -79.166 57.5 -101.499s82.5 -33.5 142.5 -33.5c30.667 0 61.667 2.83301 93 8.5s59 13.167 83 22.5v-81c-21.333 -8.66699 -49.5 -15.834 -84.5 -21.501s-69.5 -8.5 -103.5 -8.5c-88.667 0 -158.167 22.167 -208.5 66.5zM467.999 271
c-1.33301 45.333 -16.167 80.5 -44.5 105.5s-68.5 37.5 -120.5 37.5c-50.667 0 -90 -13 -118 -39s-42.667 -60.667 -44 -104h327z" />
    <glyph glyph-name="eacute" unicode="&#xe9;" horiz-adv-x="608" 
d="M319 706h107l-83 -172h-92zM120.5 51.5c-50.333 44.333 -75.501 106.833 -75.501 187.5c0 78.667 22.5 141 67.5 187s109.167 69 192.5 69c55.333 0 102.333 -10.5 141 -31.5s67.834 -50 87.501 -87s29.5 -79.167 29.5 -126.5v-50h-422
c3.33301 -45.333 22.5 -79.166 57.5 -101.499s82.5 -33.5 142.5 -33.5c30.667 0 61.667 2.83301 93 8.5s59 13.167 83 22.5v-81c-21.333 -8.66699 -49.5 -15.834 -84.5 -21.501s-69.5 -8.5 -103.5 -8.5c-88.667 0 -158.167 22.167 -208.5 66.5zM467.999 271
c-1.33301 45.333 -16.167 80.5 -44.5 105.5s-68.5 37.5 -120.5 37.5c-50.667 0 -90 -13 -118 -39s-42.667 -60.667 -44 -104h327z" />
    <glyph glyph-name="ecircumflex" unicode="&#xea;" horiz-adv-x="608" 
d="M267 700h89l142 -166h-102l-84 107l-84 -107h-103zM120.5 51.5c-50.333 44.333 -75.501 106.833 -75.501 187.5c0 78.667 22.5 141 67.5 187s109.167 69 192.5 69c55.333 0 102.333 -10.5 141 -31.5s67.834 -50 87.501 -87s29.5 -79.167 29.5 -126.5v-50h-422
c3.33301 -45.333 22.5 -79.166 57.5 -101.499s82.5 -33.5 142.5 -33.5c30.667 0 61.667 2.83301 93 8.5s59 13.167 83 22.5v-81c-21.333 -8.66699 -49.5 -15.834 -84.5 -21.501s-69.5 -8.5 -103.5 -8.5c-88.667 0 -158.167 22.167 -208.5 66.5zM467.999 271
c-1.33301 45.333 -16.167 80.5 -44.5 105.5s-68.5 37.5 -120.5 37.5c-50.667 0 -90 -13 -118 -39s-42.667 -60.667 -44 -104h327z" />
    <glyph glyph-name="edieresis" unicode="&#xeb;" horiz-adv-x="608" 
d="M154.5 551c-11.667 11.333 -17.5 25 -17.5 41s5.83301 29.667 17.5 41s25.5 17 41.5 17c15.333 0 28.666 -5.66699 39.999 -17s17 -25 17 -41s-5.66699 -29.667 -17 -41s-24.666 -17 -39.999 -17c-16 0 -29.833 5.66699 -41.5 17zM381.5 551
c-11.667 11.333 -17.5 25 -17.5 41s5.83301 29.667 17.5 41s25.5 17 41.5 17c15.333 0 28.666 -5.66699 39.999 -17s17 -25 17 -41s-5.66699 -29.667 -17 -41s-24.666 -17 -39.999 -17c-16 0 -29.833 5.66699 -41.5 17zM120.5 51.5
c-50.333 44.333 -75.501 106.833 -75.501 187.5c0 78.667 22.5 141 67.5 187s109.167 69 192.5 69c55.333 0 102.333 -10.5 141 -31.5s67.834 -50 87.501 -87s29.5 -79.167 29.5 -126.5v-50h-422c3.33301 -45.333 22.5 -79.166 57.5 -101.499s82.5 -33.5 142.5 -33.5
c30.667 0 61.667 2.83301 93 8.5s59 13.167 83 22.5v-81c-21.333 -8.66699 -49.5 -15.834 -84.5 -21.501s-69.5 -8.5 -103.5 -8.5c-88.667 0 -158.167 22.167 -208.5 66.5zM467.999 271c-1.33301 45.333 -16.167 80.5 -44.5 105.5s-68.5 37.5 -120.5 37.5
c-50.667 0 -90 -13 -118 -39s-42.667 -60.667 -44 -104h327z" />
    <glyph glyph-name="igrave" unicode="&#xec;" horiz-adv-x="232" 
d="M-13 706h107l69 -172h-93zM65 480h102v-480h-102v480z" />
    <glyph glyph-name="iacute" unicode="&#xed;" horiz-adv-x="232" 
d="M137 706h107l-83 -172h-92zM65 480h102v-480h-102v480z" />
    <glyph glyph-name="icircumflex" unicode="&#xee;" horiz-adv-x="232" 
d="M72 700h89l142 -166h-102l-84 107l-84 -107h-103zM65 480h102v-480h-102v480z" />
    <glyph glyph-name="idieresis" unicode="&#xef;" horiz-adv-x="232" 
d="M-38.5 551c-11.667 11.333 -17.5 25 -17.5 41s5.83301 29.667 17.5 41s25.5 17 41.5 17c15.333 0 28.666 -5.66699 39.999 -17s17 -25 17 -41s-5.66699 -29.667 -17 -41s-24.666 -17 -39.999 -17c-16 0 -29.833 5.66699 -41.5 17zM188.5 551
c-11.667 11.333 -17.5 25 -17.5 41s5.83301 29.667 17.5 41s25.5 17 41.5 17c15.333 0 28.666 -5.66699 39.999 -17s17 -25 17 -41s-5.66699 -29.667 -17 -41s-24.666 -17 -39.999 -17c-16 0 -29.833 5.66699 -41.5 17zM65 480h102v-480h-102v480z" />
    <glyph glyph-name="eth" unicode="&#xf0;" horiz-adv-x="625" 
d="M162 14.5c-38 19.667 -67.001 47.167 -87.001 82.5s-30 75.666 -30 120.999c0 70.667 22.167 126.667 66.5 168s105.5 62 183.5 62c36 0 69.667 -6.66699 101 -20s56.666 -32.666 75.999 -57.999c-3.33301 82.667 -19.333 146 -48 190l-146 -69v67l103 48
c-26.667 18.667 -58 28 -94 28c-18 0 -38.167 -1.5 -60.5 -4.5s-39.5 -6.83301 -51.5 -11.5v83c14 3.33301 31.667 6.33301 53 9s40.333 4 57 4c76.667 0 137.334 -22.333 182.001 -67l113 54v-67l-76 -36c40 -66.667 60 -163.667 60 -291c0 -70 -11.333 -129 -34 -177
s-54.167 -84.167 -94.5 -108.5s-86.166 -36.5 -137.499 -36.5c-52.667 0 -98 9.83301 -136 29.5zM379.999 83.5c22.667 14.333 40.333 33.1689 53 56.502s19 48.666 19 75.999c0 29.333 -6.66699 55.666 -20 78.999s-31.5 41.5 -54.5 54.5s-48.5 19.5 -76.5 19.5
c-46 0 -83.5 -14 -112.5 -42s-43.5 -65 -43.5 -111s14.5 -83.167 43.5 -111.5s66.5 -42.5 112.5 -42.5c30 0 56.333 7.16699 79 21.5z" />
    <glyph glyph-name="ntilde" unicode="&#xf1;" horiz-adv-x="600" 
d="M104 621c20.667 28.667 53.3311 42.999 97.998 42.999c14.667 0 28.834 -2 42.501 -6s31.167 -10.333 52.5 -19c18 -8 33.833 -14.167 47.5 -18.5s27.834 -6.5 42.501 -6.5c20 0 38 3.83301 54 11.5s30.333 20.834 43 39.501v-86c-20 -28 -52.333 -42 -97 -42
c-16.667 0 -32.5 2.16699 -47.5 6.5s-32.167 10.833 -51.5 19.5c-19.333 8 -35 14 -47 18s-25 6 -39 6c-19.333 0 -37 -3.83301 -53 -11.5s-31 -21.167 -45 -40.5v86zM64.9971 479.999l98 -0.000976562v-69c22.667 28.667 50.5 49.834 83.5 63.501s67.5 20.5 103.5 20.5
c64 0 111.667 -17 143 -51s47 -79.667 47 -137v-307h-101v297c0 78 -37.333 117 -112 117c-32 0 -61.833 -7.5 -89.5 -22.5s-51.5 -37.833 -71.5 -68.5v-323h-101v480z" />
    <glyph glyph-name="ograve" unicode="&#xf2;" horiz-adv-x="637" 
d="M200 706h107l69 -172h-93zM175.5 15.5c-41 20.333 -73 49.666 -96 87.999s-34.5 83.5 -34.5 135.5c0 51.333 11.333 96.333 34 135s54.667 68.5 96 89.5s89 31.5 143 31.5s101.667 -10.5 143 -31.5s73.5 -50.833 96.5 -89.5s34.5 -83.667 34.5 -135
c0 -52 -11.5 -97.167 -34.5 -135.5s-55.167 -67.666 -96.5 -87.999s-89 -30.5 -143 -30.5s-101.5 10.167 -142.5 30.5zM442 113c30.667 32 46 74 46 126c0 54 -15.333 96.667 -46 128s-72 47 -124 47s-93.333 -15.667 -124 -47s-46 -74 -46 -128c0 -52 15.333 -94 46 -126
s72 -48 124 -48s93.333 16 124 48z" />
    <glyph glyph-name="oacute" unicode="&#xf3;" horiz-adv-x="637" 
d="M330 706h107l-83 -172h-92zM175.5 15.5c-41 20.333 -73 49.666 -96 87.999s-34.5 83.5 -34.5 135.5c0 51.333 11.333 96.333 34 135s54.667 68.5 96 89.5s89 31.5 143 31.5s101.667 -10.5 143 -31.5s73.5 -50.833 96.5 -89.5s34.5 -83.667 34.5 -135
c0 -52 -11.5 -97.167 -34.5 -135.5s-55.167 -67.666 -96.5 -87.999s-89 -30.5 -143 -30.5s-101.5 10.167 -142.5 30.5zM442 113c30.667 32 46 74 46 126c0 54 -15.333 96.667 -46 128s-72 47 -124 47s-93.333 -15.667 -124 -47s-46 -74 -46 -128c0 -52 15.333 -94 46 -126
s72 -48 124 -48s93.333 16 124 48z" />
    <glyph glyph-name="ocircumflex" unicode="&#xf4;" horiz-adv-x="655" 
d="M292 700h89l142 -166h-102l-84 107l-84 -107h-103zM193.5 15.5c-41 20.333 -73 49.666 -96 87.999s-34.5 83.5 -34.5 135.5c0 51.333 11.333 96.333 34 135s54.667 68.5 96 89.5s89 31.5 143 31.5s101.667 -10.5 143 -31.5s73.5 -50.833 96.5 -89.5
s34.5 -83.667 34.5 -135c0 -52 -11.5 -97.167 -34.5 -135.5s-55.167 -67.666 -96.5 -87.999s-89 -30.5 -143 -30.5s-101.5 10.167 -142.5 30.5zM460 113c30.667 32 46 74 46 126c0 54 -15.333 96.667 -46 128s-72 47 -124 47s-93.333 -15.667 -124 -47s-46 -74 -46 -128
c0 -52 15.333 -94 46 -126s72 -48 124 -48s93.333 16 124 48z" />
    <glyph glyph-name="otilde" unicode="&#xf5;" horiz-adv-x="651" 
d="M142 627c20.667 28.667 53.3311 42.999 97.998 42.999c14.667 0 28.834 -2 42.501 -6s31.167 -10.333 52.5 -19c18 -8 33.833 -14.167 47.5 -18.5s27.834 -6.5 42.501 -6.5c20 0 38 3.83301 54 11.5s30.333 20.834 43 39.501v-86c-20 -28 -52.333 -42 -97 -42
c-16.667 0 -32.5 2.16699 -47.5 6.5s-32.167 10.833 -51.5 19.5c-19.333 8 -35 14 -47 18s-25 6 -39 6c-19.333 0 -37 -3.83301 -53 -11.5s-31 -21.167 -45 -40.5v86zM189.497 15.499c-41 20.333 -73 49.666 -96 87.999s-34.5 83.5 -34.5 135.5
c0 51.333 11.333 96.333 34 135s54.667 68.5 96 89.5s89 31.5 143 31.5s101.667 -10.5 143 -31.5s73.5 -50.833 96.5 -89.5s34.5 -83.667 34.5 -135c0 -52 -11.5 -97.167 -34.5 -135.5s-55.167 -67.666 -96.5 -87.999s-89 -30.5 -143 -30.5s-101.5 10.167 -142.5 30.5z
M455.997 112.999c30.667 32 46 74 46 126c0 54 -15.333 96.667 -46 128s-72 47 -124 47s-93.333 -15.667 -124 -47s-46 -74 -46 -128c0 -52 15.333 -94 46 -126s72 -48 124 -48s93.333 16 124 48z" />
    <glyph glyph-name="odieresis" unicode="&#xf6;" horiz-adv-x="646" 
d="M172.5 551c-11.667 11.333 -17.5 25 -17.5 41s5.83301 29.667 17.5 41s25.5 17 41.5 17c15.333 0 28.666 -5.66699 39.999 -17s17 -25 17 -41s-5.66699 -29.667 -17 -41s-24.666 -17 -39.999 -17c-16 0 -29.833 5.66699 -41.5 17zM399.5 551
c-11.667 11.333 -17.5 25 -17.5 41s5.83301 29.667 17.5 41s25.5 17 41.5 17c15.333 0 28.666 -5.66699 39.999 -17s17 -25 17 -41s-5.66699 -29.667 -17 -41s-24.666 -17 -39.999 -17c-16 0 -29.833 5.66699 -41.5 17zM184.5 15.5c-41 20.333 -73 49.666 -96 87.999
s-34.5 83.5 -34.5 135.5c0 51.333 11.333 96.333 34 135s54.667 68.5 96 89.5s89 31.5 143 31.5s101.667 -10.5 143 -31.5s73.5 -50.833 96.5 -89.5s34.5 -83.667 34.5 -135c0 -52 -11.5 -97.167 -34.5 -135.5s-55.167 -67.666 -96.5 -87.999s-89 -30.5 -143 -30.5
s-101.5 10.167 -142.5 30.5zM451 113c30.667 32 46 74 46 126c0 54 -15.333 96.667 -46 128s-72 47 -124 47s-93.333 -15.667 -124 -47s-46 -74 -46 -128c0 -52 15.333 -94 46 -126s72 -48 124 -48s93.333 16 124 48z" />
    <glyph glyph-name="divide" unicode="&#xf7;" horiz-adv-x="409" 
d="M168.5 399c-9.66699 9.33301 -14.5 21 -14.5 35c0 14.667 4.83301 26.834 14.5 36.501s21.5 14.5 35.5 14.5s25.833 -4.83301 35.5 -14.5s14.5 -21.834 14.5 -36.501c0 -14 -4.83301 -25.667 -14.5 -35s-21.5 -14 -35.5 -14s-25.833 4.66699 -35.5 14zM45 338h319v-81
h-319v81zM168.5 124c-9.66699 9.33301 -14.5 21 -14.5 35c0 14.667 4.83301 26.834 14.5 36.501s21.5 14.5 35.5 14.5s25.833 -4.83301 35.5 -14.5s14.5 -21.834 14.5 -36.501c0 -14 -4.83301 -25.667 -14.5 -35s-21.5 -14 -35.5 -14s-25.833 4.66699 -35.5 14z" />
    <glyph glyph-name="oslash" unicode="&#xf8;" horiz-adv-x="637" 
d="M176 15c-41.333 20.667 -73.501 50.166 -96.501 88.499s-34.5 83.5 -34.5 135.5c0 51.333 11.333 96.333 34 135s54.667 68.5 96 89.5s89 31.5 143 31.5c12 0 28.667 -1.33301 50 -4l30 75h100l-41 -101c42.667 -20.667 75.834 -50.5 99.501 -89.5
s35.5 -84.5 35.5 -136.5s-11.5 -97.167 -34.5 -135.5s-55.167 -67.666 -96.5 -87.999s-89 -30.5 -143 -30.5c-20.667 0 -38 1.33301 -52 4l-30 -75h-100zM335.999 412.999c-4 0.666992 -10 1 -18 1c-52 0 -93.333 -15.667 -124 -47s-46 -74 -46 -128
c0 -30.667 5.33301 -58 16 -82s26 -43.667 46 -59zM441.999 112.999c30.667 32 46 74.001 46 126.001c0 32 -5.5 60.167 -16.5 84.5s-26.833 44.166 -47.5 59.499l-127 -317c4.66699 -0.666992 11.667 -1 21 -1c52 0 93.333 16 124 48z" />
    <glyph glyph-name="ugrave" unicode="&#xf9;" horiz-adv-x="600" 
d="M174 706h107l69 -172h-93zM109.5 37c-33 34.667 -49.5 81 -49.5 139v304h101v-300c0 -76.667 38.333 -115 115 -115c67.333 0 120 30.333 158 91v324h101v-480h-98v68c-22.667 -28.667 -49.5 -49.667 -80.5 -63s-64.5 -20 -100.5 -20c-64.667 0 -113.5 17.333 -146.5 52z
" />
    <glyph glyph-name="uacute" unicode="&#xfa;" horiz-adv-x="600" 
d="M314 706h107l-83 -172h-92zM109.5 37c-33 34.667 -49.5 81 -49.5 139v304h101v-300c0 -76.667 38.333 -115 115 -115c67.333 0 120 30.333 158 91v324h101v-480h-98v68c-22.667 -28.667 -49.5 -49.667 -80.5 -63s-64.5 -20 -100.5 -20c-64.667 0 -113.5 17.333 -146.5 52
z" />
    <glyph glyph-name="ucircumflex" unicode="&#xfb;" horiz-adv-x="600" 
d="M248 700h89l142 -166h-102l-84 107l-84 -107h-103zM109.5 37c-33 34.667 -49.5 81 -49.5 139v304h101v-300c0 -76.667 38.333 -115 115 -115c67.333 0 120 30.333 158 91v324h101v-480h-98v68c-22.667 -28.667 -49.5 -49.667 -80.5 -63s-64.5 -20 -100.5 -20
c-64.667 0 -113.5 17.333 -146.5 52z" />
    <glyph glyph-name="udieresis" unicode="&#xfc;" horiz-adv-x="600" 
d="M141.5 551c-11.667 11.333 -17.5 25 -17.5 41s5.83301 29.667 17.5 41s25.5 17 41.5 17c15.333 0 28.666 -5.66699 39.999 -17s17 -25 17 -41s-5.66699 -29.667 -17 -41s-24.666 -17 -39.999 -17c-16 0 -29.833 5.66699 -41.5 17zM368.5 551
c-11.667 11.333 -17.5 25 -17.5 41s5.83301 29.667 17.5 41s25.5 17 41.5 17c15.333 0 28.666 -5.66699 39.999 -17s17 -25 17 -41s-5.66699 -29.667 -17 -41s-24.666 -17 -39.999 -17c-16 0 -29.833 5.66699 -41.5 17zM109.5 37c-33 34.667 -49.5 81 -49.5 139v304h101
v-300c0 -76.667 38.333 -115 115 -115c67.333 0 120 30.333 158 91v324h101v-480h-98v68c-22.667 -28.667 -49.5 -49.667 -80.5 -63s-64.5 -20 -100.5 -20c-64.667 0 -113.5 17.333 -146.5 52z" />
    <glyph glyph-name="yacute" unicode="&#xfd;" horiz-adv-x="587" 
d="M309 708h107l-83 -172h-92zM77 -187l0.00195312 79c17.333 -6.66699 38.666 -10 63.999 -10c23.333 0 41.666 5.83301 54.999 17.5s25.333 30.5 36 56.5l23 56l-210 468h104l160 -369l149 369h104l-216 -534c-20 -50 -43.833 -86.5 -71.5 -109.5
s-63.5 -34.5 -107.5 -34.5c-36 0 -66 3.66699 -90 11z" />
    <glyph glyph-name="thorn" unicode="&#xfe;" horiz-adv-x="660" 
d="M65 699h101v-283c22.667 25.333 51.167 44.833 85.5 58.5s71.5 20.5 111.5 20.5c48 0 91.167 -10.5 129.5 -31.5s68.333 -50.667 90 -89s32.5 -82.833 32.5 -133.5c0 -50 -10.833 -94.5 -32.5 -133.5s-51.667 -69.167 -90 -90.5s-81.5 -32 -129.5 -32
c-40 0 -77.333 6.66699 -112 20s-63 33 -85 59v-283h-101v918zM428.5 87c26.333 14.667 47 35.332 62 61.999s22.5 57.334 22.5 92.001c0 34 -7.5 64.167 -22.5 90.5s-35.667 46.666 -62 60.999s-55.833 21.5 -88.5 21.5c-41.333 0 -77.5 -10.667 -108.5 -32
s-52.833 -50.666 -65.5 -87.999v-108c11.333 -36.667 33 -66 65 -88s68.333 -33 109 -33c32.667 0 62.167 7.33301 88.5 22z" />
    <glyph glyph-name="ydieresis" unicode="&#xff;" horiz-adv-x="587" 
d="M154.5 551c-11.667 11.333 -17.5 25 -17.5 41s5.83301 29.667 17.5 41s25.5 17 41.5 17c15.333 0 28.666 -5.66699 39.999 -17s17 -25 17 -41s-5.66699 -29.667 -17 -41s-24.666 -17 -39.999 -17c-16 0 -29.833 5.66699 -41.5 17zM381.5 551
c-11.667 11.333 -17.5 25 -17.5 41s5.83301 29.667 17.5 41s25.5 17 41.5 17c15.333 0 28.666 -5.66699 39.999 -17s17 -25 17 -41s-5.66699 -29.667 -17 -41s-24.666 -17 -39.999 -17c-16 0 -29.833 5.66699 -41.5 17zM77 -187l0.00195312 79
c17.333 -6.66699 38.666 -10 63.999 -10c23.333 0 41.666 5.83301 54.999 17.5s25.333 30.5 36 56.5l23 56l-210 468h104l160 -369l149 369h104l-216 -534c-20 -50 -43.833 -86.5 -71.5 -109.5s-63.5 -34.5 -107.5 -34.5c-36 0 -66 3.66699 -90 11z" />
    <glyph glyph-name="Amacron" unicode="&#x100;" horiz-adv-x="746" 
d="M217 821h312v-69h-312v69zM324 699h98l279 -699h-104l-70 174h-309l-68 -174h-105zM499 259l-126 327l-126 -327h252z" />
    <glyph glyph-name="amacron" unicode="&#x101;" horiz-adv-x="569" 
d="M147 614h312v-69h-312v69zM97.5 29.5c-35 29.667 -52.499 69.834 -52.499 120.501c0 53.333 16.833 94.5 50.5 123.5s81.5 43.5 143.5 43.5c66 0 122 -13.333 168 -40v25c0 38 -11.5 66.167 -34.5 84.5s-59.167 27.5 -108.5 27.5c-29.333 0 -57.833 -2.83301 -85.5 -8.5
s-52.5 -13.5 -74.5 -23.5v82c20 9.33301 46 16.833 78 22.5s63 8.5 93 8.5c79.333 0 138.166 -17.5 176.499 -52.5s57.5 -83.5 57.5 -145.5v-297h-95v54c-20.667 -22.667 -45.167 -39.834 -73.5 -51.501s-62.833 -17.5 -103.5 -17.5c-58 0 -104.5 14.833 -139.5 44.5z
M349.001 81c26 12.667 45.332 30.333 57.999 53v65c-43.333 28 -91.666 42 -144.999 42c-38.667 0 -67.5 -7.5 -86.5 -22.5s-28.5 -37.833 -28.5 -68.5c0 -58.667 38.333 -88 115 -88c32 0 61 6.33301 87 19z" />
    <glyph glyph-name="Abreve" unicode="&#x102;" horiz-adv-x="746" 
d="M262.5 781c-27 26 -40.5 59.667 -40.5 101h78c0 -22.667 6.33301 -40.167 19 -52.5s30.667 -18.5 54 -18.5s41.333 6.16699 54 18.5s19 29.833 19 52.5h77c0 -41.333 -13.5 -75 -40.5 -101s-63.5 -39 -109.5 -39c-46.667 0 -83.5 13 -110.5 39zM324 699h98l279 -699h-104
l-70 174h-309l-68 -174h-105zM499 259l-126 327l-126 -327h252z" />
    <glyph glyph-name="abreve" unicode="&#x103;" horiz-adv-x="569" 
d="M191.5 574c-27 26 -40.5 59.667 -40.5 101h78c0 -22.667 6.33301 -40.167 19 -52.5s30.667 -18.5 54 -18.5s41.333 6.16699 54 18.5s19 29.833 19 52.5h77c0 -41.333 -13.5 -75 -40.5 -101s-63.5 -39 -109.5 -39c-46.667 0 -83.5 13 -110.5 39zM97.5 29.5
c-35 29.667 -52.499 69.834 -52.499 120.501c0 53.333 16.833 94.5 50.5 123.5s81.5 43.5 143.5 43.5c66 0 122 -13.333 168 -40v25c0 38 -11.5 66.167 -34.5 84.5s-59.167 27.5 -108.5 27.5c-29.333 0 -57.833 -2.83301 -85.5 -8.5s-52.5 -13.5 -74.5 -23.5v82
c20 9.33301 46 16.833 78 22.5s63 8.5 93 8.5c79.333 0 138.166 -17.5 176.499 -52.5s57.5 -83.5 57.5 -145.5v-297h-95v54c-20.667 -22.667 -45.167 -39.834 -73.5 -51.501s-62.833 -17.5 -103.5 -17.5c-58 0 -104.5 14.833 -139.5 44.5zM349.001 81
c26 12.667 45.332 30.333 57.999 53v65c-43.333 28 -91.666 42 -144.999 42c-38.667 0 -67.5 -7.5 -86.5 -22.5s-28.5 -37.833 -28.5 -68.5c0 -58.667 38.333 -88 115 -88c32 0 61 6.33301 87 19z" />
    <glyph glyph-name="Aogonek" unicode="&#x104;" horiz-adv-x="746" 
d="M652 -149c16.667 0 32.667 3.33398 48 10.001v-61c-22 -8 -47.667 -12 -77 -12c-30.667 0 -55.667 7.66699 -75 23s-29 37.666 -29 66.999c0 24.667 6.83301 47.667 20.5 69s31.5 39 53.5 53h4l-70 174h-309l-68 -174h-105l279 699h98l279 -699h-14
c-26.667 -17.333 -46.5 -34.333 -59.5 -51s-19.5 -35 -19.5 -55c0 -28.667 14.667 -43 44 -43zM499 259.001l-126 327l-126 -327h252z" />
    <glyph glyph-name="aogonek" unicode="&#x105;" horiz-adv-x="569" 
d="M521 -139l0.000976562 -60.999c-22 -8 -47.667 -12 -77 -12c-30.667 0 -55.667 7.66699 -75 23s-29 37.666 -29 66.999c0 24.667 6.83301 47.667 20.5 69s31.5 39 53.5 53v54c-20.667 -22.667 -45.167 -39.834 -73.5 -51.501s-62.833 -17.5 -103.5 -17.5
c-58 0 -104.5 14.833 -139.5 44.5s-52.5 69.834 -52.5 120.501c0 53.333 16.833 94.5 50.5 123.5s81.5 43.5 143.5 43.5c66 0 122 -13.333 168 -40v25c0 38 -11.5 66.167 -34.5 84.5s-59.167 27.5 -108.5 27.5c-29.333 0 -57.833 -2.83301 -85.5 -8.5
s-52.5 -13.5 -74.5 -23.5v82c20 9.33301 46 16.833 78 22.5s63 8.5 93 8.5c79.333 0 138.166 -17.5 176.499 -52.5s57.5 -83.5 57.5 -145.5v-297h-1c-26.667 -17.333 -46.5 -34.333 -59.5 -51s-19.5 -35 -19.5 -55c0 -28.667 14.667 -43 44 -43
c16.667 0 32.667 3.33301 48 10zM407.001 199.001c-43.333 28 -91.667 41.999 -145 41.999c-38.667 0 -67.5 -7.5 -86.5 -22.5s-28.5 -37.833 -28.5 -68.5c0 -58.667 38.333 -88 115 -88c32 0 61 6.33301 87 19s45.333 30.334 58 53.001v65z" />
    <glyph glyph-name="Cacute" unicode="&#x106;" horiz-adv-x="710" 
d="M435 913h107l-83 -172h-92zM223 30c-56 30 -99.668 72.5 -131.001 127.5s-47 118.833 -47 191.5s15.667 136.667 47 192s75 98 131 128s120 45 192 45c96 0 176.333 -24.333 241 -73v-98c-58 51.333 -135.333 77 -232 77c-54 0 -101.833 -11 -143.5 -33
s-74.167 -53.5 -97.5 -94.5s-35 -88.833 -35 -143.5s11.833 -102.667 35.5 -144s56.334 -73 98.001 -95s89.167 -33 142.5 -33c49.333 0 93.5 6.5 132.5 19.5s75.167 33.833 108.5 62.5v-99c-60 -50 -143.333 -75 -250 -75c-72 0 -136 15 -192 45z" />
    <glyph glyph-name="cacute" unicode="&#x107;" horiz-adv-x="547" 
d="M333 706h107l-83 -172h-92zM176 15c-41.333 20 -73.501 49.166 -96.501 87.499s-34.5 83.833 -34.5 136.5s11.5 98.167 34.5 136.5s55.333 67.833 97 88.5s89.5 31 143.5 31c73.333 0 132 -14.333 176 -43v-83c-43.333 30 -98.666 45 -165.999 45
c-54.667 0 -98.834 -14.833 -132.501 -44.5s-50.5 -73.167 -50.5 -130.5s16.667 -100.666 50 -129.999s77 -44 131 -44c67.333 0 125.333 16 174 48v-82c-23.333 -16 -49.833 -27.667 -79.5 -35s-64.5 -11 -104.5 -11c-53.333 0 -100.666 10 -141.999 30z" />
    <glyph glyph-name="Ccircumflex" unicode="&#x108;" horiz-adv-x="710" 
d="M362 907h89l142 -166h-102l-84 107l-84 -107h-103zM223 30c-56 30 -99.668 72.5 -131.001 127.5s-47 118.833 -47 191.5s15.667 136.667 47 192s75 98 131 128s120 45 192 45c96 0 176.333 -24.333 241 -73v-98c-58 51.333 -135.333 77 -232 77
c-54 0 -101.833 -11 -143.5 -33s-74.167 -53.5 -97.5 -94.5s-35 -88.833 -35 -143.5s11.833 -102.667 35.5 -144s56.334 -73 98.001 -95s89.167 -33 142.5 -33c49.333 0 93.5 6.5 132.5 19.5s75.167 33.833 108.5 62.5v-99c-60 -50 -143.333 -75 -250 -75
c-72 0 -136 15 -192 45z" />
    <glyph glyph-name="ccircumflex" unicode="&#x109;" horiz-adv-x="547" 
d="M263 700h89l142 -166h-102l-84 107l-84 -107h-103zM176 15c-41.333 20 -73.501 49.166 -96.501 87.499s-34.5 83.833 -34.5 136.5s11.5 98.167 34.5 136.5s55.333 67.833 97 88.5s89.5 31 143.5 31c73.333 0 132 -14.333 176 -43v-83c-43.333 30 -98.666 45 -165.999 45
c-54.667 0 -98.834 -14.833 -132.501 -44.5s-50.5 -73.167 -50.5 -130.5s16.667 -100.666 50 -129.999s77 -44 131 -44c67.333 0 125.333 16 174 48v-82c-23.333 -16 -49.833 -27.667 -79.5 -35s-64.5 -11 -104.5 -11c-53.333 0 -100.666 10 -141.999 30z" />
    <glyph glyph-name="Cdotaccent" unicode="&#x10a;" horiz-adv-x="710" 
d="M365.5 758c-11.667 11.333 -17.5 25 -17.5 41s5.83301 29.667 17.5 41s25.5 17 41.5 17c15.333 0 28.666 -5.66699 39.999 -17s17 -25 17 -41s-5.66699 -29.667 -17 -41s-24.666 -17 -39.999 -17c-16 0 -29.833 5.66699 -41.5 17zM223 30
c-56 30 -99.668 72.5 -131.001 127.5s-47 118.833 -47 191.5s15.667 136.667 47 192s75 98 131 128s120 45 192 45c96 0 176.333 -24.333 241 -73v-98c-58 51.333 -135.333 77 -232 77c-54 0 -101.833 -11 -143.5 -33s-74.167 -53.5 -97.5 -94.5s-35 -88.833 -35 -143.5
s11.833 -102.667 35.5 -144s56.334 -73 98.001 -95s89.167 -33 142.5 -33c49.333 0 93.5 6.5 132.5 19.5s75.167 33.833 108.5 62.5v-99c-60 -50 -143.333 -75 -250 -75c-72 0 -136 15 -192 45z" />
    <glyph glyph-name="cdotaccent" unicode="&#x10b;" horiz-adv-x="547" 
d="M269.5 551c-11.667 11.333 -17.5 25 -17.5 41s5.83301 29.667 17.5 41s25.5 17 41.5 17c15.333 0 28.666 -5.66699 39.999 -17s17 -25 17 -41s-5.66699 -29.667 -17 -41s-24.666 -17 -39.999 -17c-16 0 -29.833 5.66699 -41.5 17zM176 15
c-41.333 20 -73.501 49.166 -96.501 87.499s-34.5 83.833 -34.5 136.5s11.5 98.167 34.5 136.5s55.333 67.833 97 88.5s89.5 31 143.5 31c73.333 0 132 -14.333 176 -43v-83c-43.333 30 -98.666 45 -165.999 45c-54.667 0 -98.834 -14.833 -132.501 -44.5
s-50.5 -73.167 -50.5 -130.5s16.667 -100.666 50 -129.999s77 -44 131 -44c67.333 0 125.333 16 174 48v-82c-23.333 -16 -49.833 -27.667 -79.5 -35s-64.5 -11 -104.5 -11c-53.333 0 -100.666 10 -141.999 30z" />
    <glyph glyph-name="Ccaron" unicode="&#x10c;" horiz-adv-x="710" 
d="M225 908h103l84 -107l84 107h102l-142 -166h-89zM223 30c-56 30 -99.668 72.5 -131.001 127.5s-47 118.833 -47 191.5s15.667 136.667 47 192s75 98 131 128s120 45 192 45c96 0 176.333 -24.333 241 -73v-98c-58 51.333 -135.333 77 -232 77
c-54 0 -101.833 -11 -143.5 -33s-74.167 -53.5 -97.5 -94.5s-35 -88.833 -35 -143.5s11.833 -102.667 35.5 -144s56.334 -73 98.001 -95s89.167 -33 142.5 -33c49.333 0 93.5 6.5 132.5 19.5s75.167 33.833 108.5 62.5v-99c-60 -50 -143.333 -75 -250 -75
c-72 0 -136 15 -192 45z" />
    <glyph glyph-name="ccaron" unicode="&#x10d;" horiz-adv-x="547" 
d="M119 701h103l84 -107l84 107h102l-142 -166h-89zM176 15c-41.333 20 -73.501 49.166 -96.501 87.499s-34.5 83.833 -34.5 136.5s11.5 98.167 34.5 136.5s55.333 67.833 97 88.5s89.5 31 143.5 31c73.333 0 132 -14.333 176 -43v-83c-43.333 30 -98.666 45 -165.999 45
c-54.667 0 -98.834 -14.833 -132.501 -44.5s-50.5 -73.167 -50.5 -130.5s16.667 -100.666 50 -129.999s77 -44 131 -44c67.333 0 125.333 16 174 48v-82c-23.333 -16 -49.833 -27.667 -79.5 -35s-64.5 -11 -104.5 -11c-53.333 0 -100.666 10 -141.999 30z" />
    <glyph glyph-name="Dcaron" unicode="&#x10e;" horiz-adv-x="703" 
d="M132 908h103l84 -107l84 107h102l-142 -166h-89zM65 699h225.001c75.333 0 140.666 -14 195.999 -42s97.833 -68 127.5 -120s44.5 -113.333 44.5 -184c0 -116 -33.5 -203.833 -100.5 -263.5s-160.833 -89.5 -281.5 -89.5h-211v699zM275.001 85
c93.333 0 163.334 23 210.001 69s70 112.333 70 199c0 80 -22.833 143.333 -68.5 190s-110.834 70 -195.501 70h-124v-528h108z" />
    <glyph glyph-name="dcaron" unicode="&#x10f;" horiz-adv-x="815" 
d="M714 769h86l-87 -182h-76zM167.5 3.5c-38.333 21 -68.332 50.667 -89.999 89s-32.5 83.166 -32.5 134.499c0 50.667 10.833 95.334 32.5 134.001s51.5 68.5 89.5 89.5s81.333 31.5 130 31.5c41.333 0 80.166 -8.5 116.499 -25.5s63.5 -40.833 81.5 -71.5v341h101v-739
h-98v86c-21.333 -32 -49.333 -56.833 -84 -74.5s-73.667 -26.5 -117 -26.5c-48 0 -91.167 10.5 -129.5 31.5zM429.001 83.5c31.333 20.333 53.334 48.8311 66.001 85.498v116c-12 36.667 -33.833 65.334 -65.5 86.001s-68.167 31 -109.5 31c-32 0 -61 -7.16699 -87 -21.5
s-46.5 -34.666 -61.5 -60.999s-22.5 -57.5 -22.5 -93.5c0 -35.333 7.5 -66 22.5 -92s35.5 -46 61.5 -60s55 -21 87 -21c41.333 0 77.666 10.167 108.999 30.5z" />
    <glyph glyph-name="Dcroat" unicode="&#x110;" horiz-adv-x="727" 
d="M89 310h-63.999v78h64v311h225c75.333 0 140.666 -14 195.999 -42s97.833 -68 127.5 -120s44.5 -113.333 44.5 -184c0 -116 -33.5 -203.833 -100.5 -263.5s-160.833 -89.5 -281.5 -89.5h-211v310zM299.001 88c92 0 161.668 22.834 209.001 68.501s71 111.167 71 196.5
c0 79.333 -23.333 142.166 -70 188.499s-111.334 69.5 -194.001 69.5h-123v-223h184v-78h-184v-222h107z" />
    <glyph glyph-name="dcroat" unicode="&#x111;" horiz-adv-x="675" 
d="M167.5 16.5c-38.333 21 -68.333 50.666 -90 88.999s-32.5 82.833 -32.5 133.5c0 50 10.833 94.333 32.5 133s51.667 68.834 90 90.501s81.5 32.5 129.5 32.5c86.667 0 152.334 -26.333 197.001 -79v141h-196v78h196v104h101v-104h55v-78h-55v-557h-98v70
c-26.667 -29.333 -55.834 -50.833 -87.501 -64.5s-69.167 -20.5 -112.5 -20.5c-48 0 -91.167 10.5 -129.5 31.5zM428.5 97.499c31 21.667 52.833 50.834 65.5 87.501v108c-11.333 36.667 -32.833 66 -64.5 88s-68.167 33 -109.5 33c-32.667 0 -62.167 -7.33301 -88.5 -22
s-47 -35.334 -62 -62.001s-22.5 -57 -22.5 -91s7.5 -64.333 22.5 -91s35.667 -47.167 62 -61.5s55.833 -21.5 88.5 -21.5c41.333 0 77.5 10.833 108.5 32.5z" />
    <glyph glyph-name="Emacron" unicode="&#x112;" horiz-adv-x="571" 
d="M143 831h312v-69h-312v69zM65 699h461v-86h-359v-221h268v-85h-268v-222h359v-85h-461v699z" />
    <glyph glyph-name="emacron" unicode="&#x113;" horiz-adv-x="608" 
d="M153 614h312v-69h-312v69zM120.5 51.5c-50.333 44.333 -75.501 106.833 -75.501 187.5c0 78.667 22.5 141 67.5 187s109.167 69 192.5 69c55.333 0 102.333 -10.5 141 -31.5s67.834 -50 87.501 -87s29.5 -79.167 29.5 -126.5v-50h-422
c3.33301 -45.333 22.5 -79.166 57.5 -101.499s82.5 -33.5 142.5 -33.5c30.667 0 61.667 2.83301 93 8.5s59 13.167 83 22.5v-81c-21.333 -8.66699 -49.5 -15.834 -84.5 -21.501s-69.5 -8.5 -103.5 -8.5c-88.667 0 -158.167 22.167 -208.5 66.5zM467.999 271
c-1.33301 45.333 -16.167 80.5 -44.5 105.5s-68.5 37.5 -120.5 37.5c-50.667 0 -90 -13 -118 -39s-42.667 -60.667 -44 -104h327z" />
    <glyph glyph-name="Ebreve" unicode="&#x114;" horiz-adv-x="571" 
d="M192.5 781c-27 26 -40.5 59.667 -40.5 101h78c0 -22.667 6.33301 -40.167 19 -52.5s30.667 -18.5 54 -18.5s41.333 6.16699 54 18.5s19 29.833 19 52.5h77c0 -41.333 -13.5 -75 -40.5 -101s-63.5 -39 -109.5 -39c-46.667 0 -83.5 13 -110.5 39zM65 699h461v-86h-359v-221
h268v-85h-268v-222h359v-85h-461v699z" />
    <glyph glyph-name="ebreve" unicode="&#x115;" horiz-adv-x="608" 
d="M198.5 574c-27 26 -40.5 59.667 -40.5 101h78c0 -22.667 6.33301 -40.167 19 -52.5s30.667 -18.5 54 -18.5s41.333 6.16699 54 18.5s19 29.833 19 52.5h77c0 -41.333 -13.5 -75 -40.5 -101s-63.5 -39 -109.5 -39c-46.667 0 -83.5 13 -110.5 39zM120.5 51.5
c-50.333 44.333 -75.501 106.833 -75.501 187.5c0 78.667 22.5 141 67.5 187s109.167 69 192.5 69c55.333 0 102.333 -10.5 141 -31.5s67.834 -50 87.501 -87s29.5 -79.167 29.5 -126.5v-50h-422c3.33301 -45.333 22.5 -79.166 57.5 -101.499s82.5 -33.5 142.5 -33.5
c30.667 0 61.667 2.83301 93 8.5s59 13.167 83 22.5v-81c-21.333 -8.66699 -49.5 -15.834 -84.5 -21.501s-69.5 -8.5 -103.5 -8.5c-88.667 0 -158.167 22.167 -208.5 66.5zM467.999 271c-1.33301 45.333 -16.167 80.5 -44.5 105.5s-68.5 37.5 -120.5 37.5
c-50.667 0 -90 -13 -118 -39s-42.667 -60.667 -44 -104h327z" />
    <glyph glyph-name="Edotaccent" unicode="&#x116;" horiz-adv-x="571" 
d="M257.5 757c-11.667 11.333 -17.5 25 -17.5 41s5.83301 29.667 17.5 41s25.5 17 41.5 17c15.333 0 28.666 -5.66699 39.999 -17s17 -25 17 -41s-5.66699 -29.667 -17 -41s-24.666 -17 -39.999 -17c-16 0 -29.833 5.66699 -41.5 17zM65 699h461v-86h-359v-221h268v-85h-268
v-222h359v-85h-461v699z" />
    <glyph glyph-name="edotaccent" unicode="&#x117;" horiz-adv-x="608" 
d="M268.5 550c-11.667 11.333 -17.5 25 -17.5 41s5.83301 29.667 17.5 41s25.5 17 41.5 17c15.333 0 28.666 -5.66699 39.999 -17s17 -25 17 -41s-5.66699 -29.667 -17 -41s-24.666 -17 -39.999 -17c-16 0 -29.833 5.66699 -41.5 17zM120.5 51.5
c-50.333 44.333 -75.501 106.833 -75.501 187.5c0 78.667 22.5 141 67.5 187s109.167 69 192.5 69c55.333 0 102.333 -10.5 141 -31.5s67.834 -50 87.501 -87s29.5 -79.167 29.5 -126.5v-50h-422c3.33301 -45.333 22.5 -79.166 57.5 -101.499s82.5 -33.5 142.5 -33.5
c30.667 0 61.667 2.83301 93 8.5s59 13.167 83 22.5v-81c-21.333 -8.66699 -49.5 -15.834 -84.5 -21.501s-69.5 -8.5 -103.5 -8.5c-88.667 0 -158.167 22.167 -208.5 66.5zM467.999 271c-1.33301 45.333 -16.167 80.5 -44.5 105.5s-68.5 37.5 -120.5 37.5
c-50.667 0 -90 -13 -118 -39s-42.667 -60.667 -44 -104h327z" />
    <glyph glyph-name="Eogonek" unicode="&#x118;" horiz-adv-x="571" 
d="M167 613v-220.999h268v-85h-268v-222h359v-85h-19c-26.667 -17.333 -46.5 -34.333 -59.5 -51s-19.5 -35 -19.5 -55c0 -28.667 14.667 -43 44 -43c16.667 0 32.667 3.33301 48 10v-61c-22 -8 -47.667 -12 -77 -12c-30.667 0 -55.667 7.66699 -75 23s-29 37.666 -29 66.999
c0 24.667 6.83301 47.667 20.5 69s31.5 39 53.5 53h-348v699h461v-86h-359z" />
    <glyph glyph-name="eogonek" unicode="&#x119;" horiz-adv-x="608" 
d="M563 200h-422.001c3.33301 -45.333 22.5 -79.166 57.5 -101.499s82.5 -33.5 142.5 -33.5c30.667 0 61.667 2.83301 93 8.5s59 13.167 83 22.5v-81c-18.667 -7.33301 -45.334 -14.333 -80.001 -21c-23.333 -16 -40.833 -32 -52.5 -48s-17.5 -33.333 -17.5 -52
c0 -28.667 14.667 -43 44 -43c16.667 0 32.667 3.33301 48 10v-61c-22 -8 -47.667 -12 -77 -12c-30.667 0 -55.667 7.66699 -75 23s-29 37.666 -29 66.999c0 20.667 4.83301 40.167 14.5 58.5s22.834 34.5 39.501 48.5h-3c-88.667 0 -158.167 22.167 -208.5 66.5
s-75.5 106.833 -75.5 187.5c0 78.667 22.5 141 67.5 187s109.167 69 192.5 69c55.333 0 102.333 -10.5 141 -31.5s67.834 -50 87.501 -87s29.5 -79.167 29.5 -126.5v-50zM467.999 271c-1.33301 45.333 -16.167 80.5 -44.5 105.5s-68.5 37.5 -120.5 37.5
c-50.667 0 -90 -13 -118 -39s-42.667 -60.667 -44 -104h327z" />
    <glyph glyph-name="Ecaron" unicode="&#x11a;" horiz-adv-x="571" 
d="M117 908h103l84 -107l84 107h102l-142 -166h-89zM65 699h461v-86h-359v-221h268v-85h-268v-222h359v-85h-461v699z" />
    <glyph glyph-name="ecaron" unicode="&#x11b;" horiz-adv-x="608" 
d="M124 701h103l84 -107l84 107h102l-142 -166h-89zM120.5 51.5c-50.333 44.333 -75.501 106.833 -75.501 187.5c0 78.667 22.5 141 67.5 187s109.167 69 192.5 69c55.333 0 102.333 -10.5 141 -31.5s67.834 -50 87.501 -87s29.5 -79.167 29.5 -126.5v-50h-422
c3.33301 -45.333 22.5 -79.166 57.5 -101.499s82.5 -33.5 142.5 -33.5c30.667 0 61.667 2.83301 93 8.5s59 13.167 83 22.5v-81c-21.333 -8.66699 -49.5 -15.834 -84.5 -21.501s-69.5 -8.5 -103.5 -8.5c-88.667 0 -158.167 22.167 -208.5 66.5zM467.999 271
c-1.33301 45.333 -16.167 80.5 -44.5 105.5s-68.5 37.5 -120.5 37.5c-50.667 0 -90 -13 -118 -39s-42.667 -60.667 -44 -104h327z" />
    <glyph glyph-name="Gcircumflex" unicode="&#x11c;" horiz-adv-x="716" 
d="M366 907h89l142 -166h-102l-84 107l-84 -107h-103zM223 30c-56 30 -99.668 72.5 -131.001 127.5s-47 118.833 -47 191.5s15.667 136.667 47 192s75 98 131 128s120 45 192 45c96.667 0 177 -24 241 -72v-98c-58 50.667 -135.333 76 -232 76c-52.667 0 -100 -11 -142 -33
s-74.833 -53.5 -98.5 -94.5s-35.5 -88.833 -35.5 -143.5s11.667 -102.667 35 -144s55.666 -73 96.999 -95s88 -33 140 -33c60.667 0 110.334 12.333 149.001 37v183h-133v83h235v-320c-31.333 -26 -68.166 -45 -110.499 -57s-90.833 -18 -145.5 -18c-72 0 -136 15 -192 45z
" />
    <glyph glyph-name="gcircumflex" unicode="&#x11d;" horiz-adv-x="660" 
d="M297 700h89l142 -166h-102l-84 107l-84 -107h-103zM220.5 -222c-31 5.33301 -57.165 13.001 -78.498 23.001v83c50 -22.667 108 -34 174 -34c62 0 107.167 13.5 135.5 40.5s42.5 67.833 42.5 122.5v51c-44 -52.667 -108.667 -79 -194 -79
c-48.667 0 -92.334 10.667 -131.001 32s-69 51.333 -91 90s-33 83 -33 133c0 50.667 10.833 95.167 32.5 133.5s51.667 68.166 90 89.499s81.5 32 129.5 32c44.667 0 82.5 -6.5 113.5 -19.5s59.833 -34.5 86.5 -64.5v69h98v-456c0 -82 -22.833 -144.833 -68.5 -188.5
s-115.834 -65.5 -210.501 -65.5c-32.667 0 -64.5 2.66699 -95.5 8zM429.502 98.001c31.667 22 53.167 51.334 64.5 88.001v108c-12.667 37.333 -34.5 66.666 -65.5 87.999s-67.167 32 -108.5 32c-32.667 0 -62.167 -7.16699 -88.5 -21.5s-47 -34.833 -62 -61.5
s-22.5 -57 -22.5 -91c0 -34.667 7.5 -65.167 22.5 -91.5s35.667 -46.833 62 -61.5s55.833 -22 88.5 -22c41.333 0 77.833 11 109.5 33z" />
    <glyph glyph-name="Gbreve" unicode="&#x11e;" horiz-adv-x="716" 
d="M308.5 781c-27 26 -40.5 59.667 -40.5 101h78c0 -22.667 6.33301 -40.167 19 -52.5s30.667 -18.5 54 -18.5s41.333 6.16699 54 18.5s19 29.833 19 52.5h77c0 -41.333 -13.5 -75 -40.5 -101s-63.5 -39 -109.5 -39c-46.667 0 -83.5 13 -110.5 39zM223 30
c-56 30 -99.668 72.5 -131.001 127.5s-47 118.833 -47 191.5s15.667 136.667 47 192s75 98 131 128s120 45 192 45c96.667 0 177 -24 241 -72v-98c-58 50.667 -135.333 76 -232 76c-52.667 0 -100 -11 -142 -33s-74.833 -53.5 -98.5 -94.5s-35.5 -88.833 -35.5 -143.5
s11.667 -102.667 35 -144s55.666 -73 96.999 -95s88 -33 140 -33c60.667 0 110.334 12.333 149.001 37v183h-133v83h235v-320c-31.333 -26 -68.166 -45 -110.499 -57s-90.833 -18 -145.5 -18c-72 0 -136 15 -192 45z" />
    <glyph glyph-name="gbreve" unicode="&#x11f;" horiz-adv-x="660" 
d="M223.5 574c-27 26 -40.5 59.667 -40.5 101h78c0 -22.667 6.33301 -40.167 19 -52.5s30.667 -18.5 54 -18.5s41.333 6.16699 54 18.5s19 29.833 19 52.5h77c0 -41.333 -13.5 -75 -40.5 -101s-63.5 -39 -109.5 -39c-46.667 0 -83.5 13 -110.5 39zM220.5 -222
c-31 5.33301 -57.165 13.001 -78.498 23.001v83c50 -22.667 108 -34 174 -34c62 0 107.167 13.5 135.5 40.5s42.5 67.833 42.5 122.5v51c-44 -52.667 -108.667 -79 -194 -79c-48.667 0 -92.334 10.667 -131.001 32s-69 51.333 -91 90s-33 83 -33 133
c0 50.667 10.833 95.167 32.5 133.5s51.667 68.166 90 89.499s81.5 32 129.5 32c44.667 0 82.5 -6.5 113.5 -19.5s59.833 -34.5 86.5 -64.5v69h98v-456c0 -82 -22.833 -144.833 -68.5 -188.5s-115.834 -65.5 -210.501 -65.5c-32.667 0 -64.5 2.66699 -95.5 8z
M429.502 98.001c31.667 22 53.167 51.334 64.5 88.001v108c-12.667 37.333 -34.5 66.666 -65.5 87.999s-67.167 32 -108.5 32c-32.667 0 -62.167 -7.16699 -88.5 -21.5s-47 -34.833 -62 -61.5s-22.5 -57 -22.5 -91c0 -34.667 7.5 -65.167 22.5 -91.5
s35.667 -46.833 62 -61.5s55.833 -22 88.5 -22c41.333 0 77.833 11 109.5 33z" />
    <glyph glyph-name="Gdotaccent" unicode="&#x120;" horiz-adv-x="716" 
d="M373.5 758c-11.667 11.333 -17.5 25 -17.5 41s5.83301 29.667 17.5 41s25.5 17 41.5 17c15.333 0 28.666 -5.66699 39.999 -17s17 -25 17 -41s-5.66699 -29.667 -17 -41s-24.666 -17 -39.999 -17c-16 0 -29.833 5.66699 -41.5 17zM223 30
c-56 30 -99.668 72.5 -131.001 127.5s-47 118.833 -47 191.5s15.667 136.667 47 192s75 98 131 128s120 45 192 45c96.667 0 177 -24 241 -72v-98c-58 50.667 -135.333 76 -232 76c-52.667 0 -100 -11 -142 -33s-74.833 -53.5 -98.5 -94.5s-35.5 -88.833 -35.5 -143.5
s11.667 -102.667 35 -144s55.666 -73 96.999 -95s88 -33 140 -33c60.667 0 110.334 12.333 149.001 37v183h-133v83h235v-320c-31.333 -26 -68.166 -45 -110.499 -57s-90.833 -18 -145.5 -18c-72 0 -136 15 -192 45z" />
    <glyph glyph-name="gdotaccent" unicode="&#x121;" horiz-adv-x="660" 
d="M298.5 551c-11.667 11.333 -17.5 25 -17.5 41s5.83301 29.667 17.5 41s25.5 17 41.5 17c15.333 0 28.666 -5.66699 39.999 -17s17 -25 17 -41s-5.66699 -29.667 -17 -41s-24.666 -17 -39.999 -17c-16 0 -29.833 5.66699 -41.5 17zM220.5 -222
c-31 5.33301 -57.165 13.001 -78.498 23.001v83c50 -22.667 108 -34 174 -34c62 0 107.167 13.5 135.5 40.5s42.5 67.833 42.5 122.5v51c-44 -52.667 -108.667 -79 -194 -79c-48.667 0 -92.334 10.667 -131.001 32s-69 51.333 -91 90s-33 83 -33 133
c0 50.667 10.833 95.167 32.5 133.5s51.667 68.166 90 89.499s81.5 32 129.5 32c44.667 0 82.5 -6.5 113.5 -19.5s59.833 -34.5 86.5 -64.5v69h98v-456c0 -82 -22.833 -144.833 -68.5 -188.5s-115.834 -65.5 -210.501 -65.5c-32.667 0 -64.5 2.66699 -95.5 8z
M429.502 98.001c31.667 22 53.167 51.334 64.5 88.001v108c-12.667 37.333 -34.5 66.666 -65.5 87.999s-67.167 32 -108.5 32c-32.667 0 -62.167 -7.16699 -88.5 -21.5s-47 -34.833 -62 -61.5s-22.5 -57 -22.5 -91c0 -34.667 7.5 -65.167 22.5 -91.5
s35.667 -46.833 62 -61.5s55.833 -22 88.5 -22c41.333 0 77.833 11 109.5 33z" />
    <glyph glyph-name="Gcommaaccent" unicode="&#x122;" horiz-adv-x="716" 
d="M223 30c-56 30 -99.668 72.5 -131.001 127.5s-47 118.833 -47 191.5s15.667 136.667 47 192s75 98 131 128s120 45 192 45c96.667 0 177 -24 241 -72v-98c-58 50.667 -135.333 76 -232 76c-52.667 0 -100 -11 -142 -33s-74.833 -53.5 -98.5 -94.5
s-35.5 -88.833 -35.5 -143.5s11.667 -102.667 35 -144s55.666 -73 96.999 -95s88 -33 140 -33c60.667 0 110.334 12.333 149.001 37v183h-133v83h235v-320c-31.333 -26 -68.166 -45 -110.499 -57s-90.833 -18 -145.5 -18c-72 0 -136 15 -192 45zM370.999 -60h106l-95 -200
h-92z" />
    <glyph glyph-name="gcommaaccent" unicode="&#x123;" horiz-adv-x="660" 
d="M380 735h92l-81 -200h-106zM220.5 -222c-31 5.33301 -57.165 13.001 -78.498 23.001v83c50 -22.667 108 -34 174 -34c62 0 107.167 13.5 135.5 40.5s42.5 67.833 42.5 122.5v51c-44 -52.667 -108.667 -79 -194 -79c-48.667 0 -92.334 10.667 -131.001 32
s-69 51.333 -91 90s-33 83 -33 133c0 50.667 10.833 95.167 32.5 133.5s51.667 68.166 90 89.499s81.5 32 129.5 32c44.667 0 82.5 -6.5 113.5 -19.5s59.833 -34.5 86.5 -64.5v69h98v-456c0 -82 -22.833 -144.833 -68.5 -188.5s-115.834 -65.5 -210.501 -65.5
c-32.667 0 -64.5 2.66699 -95.5 8zM429.502 98.001c31.667 22 53.167 51.334 64.5 88.001v108c-12.667 37.333 -34.5 66.666 -65.5 87.999s-67.167 32 -108.5 32c-32.667 0 -62.167 -7.16699 -88.5 -21.5s-47 -34.833 -62 -61.5s-22.5 -57 -22.5 -91
c0 -34.667 7.5 -65.167 22.5 -91.5s35.667 -46.833 62 -61.5s55.833 -22 88.5 -22c41.333 0 77.833 11 109.5 33z" />
    <glyph glyph-name="Hcircumflex" unicode="&#x124;" horiz-adv-x="699" 
d="M305 907h89l142 -166h-102l-84 107l-84 -107h-103zM65 699h102v-300h365v300h102v-699h-102v313h-365v-313h-102v699z" />
    <glyph glyph-name="hcircumflex" unicode="&#x125;" horiz-adv-x="600" 
d="M211 941h89l142 -166h-102l-84 107l-84 -107h-103zM65 739h101v-325c46 54 107.333 81 184 81c64 0 111.667 -17 143 -51s47 -79.667 47 -137v-307h-101v297c0 78 -37.333 117 -112 117c-32 0 -61.833 -7.5 -89.5 -22.5s-51.5 -37.833 -71.5 -68.5v-323h-101v739z" />
    <glyph glyph-name="Hbar" unicode="&#x126;" horiz-adv-x="720" 
d="M71 505h-46v83h46v111h102v-111h365v111h102v-111h55v-83h-55v-505h-102v312h-365v-312h-102v505zM538 400v105h-365v-105h365z" />
    <glyph glyph-name="hbar" unicode="&#x127;" horiz-adv-x="606" 
d="M71 569l-46 -0.000976562v75h46v95h101v-95h166v-75h-166v-156c46.667 54.667 108 82 184 82c64.667 0 112.5 -16.667 143.5 -50s46.5 -78.666 46.5 -135.999v-309h-101v297c0 38 -9 67 -27 87s-47 30 -87 30c-67.333 0 -120.333 -30.333 -159 -91v-323h-101v569z" />
    <glyph glyph-name="Itilde" unicode="&#x128;" horiz-adv-x="236" 
d="M-73 828c20.667 28.667 53.3311 42.999 97.998 42.999c14.667 0 28.834 -2 42.501 -6s31.167 -10.333 52.5 -19c18 -8 33.833 -14.167 47.5 -18.5s27.834 -6.5 42.501 -6.5c20 0 38 3.83301 54 11.5s30.333 20.834 43 39.501v-86c-20 -28 -52.333 -42 -97 -42
c-16.667 0 -32.5 2.16699 -47.5 6.5s-32.167 10.833 -51.5 19.5c-19.333 8 -35 14 -47 18s-25 6 -39 6c-19.333 0 -37 -3.83301 -53 -11.5s-31 -21.167 -45 -40.5v86zM65.9971 698.999h103v-699h-103v699z" />
    <glyph glyph-name="itilde" unicode="&#x129;" horiz-adv-x="232" 
d="M-74 620c20.667 28.667 53.3311 42.999 97.998 42.999c14.667 0 28.834 -2 42.501 -6s31.167 -10.333 52.5 -19c18 -8 33.833 -14.167 47.5 -18.5s27.834 -6.5 42.501 -6.5c20 0 38 3.83301 54 11.5s30.333 20.834 43 39.501v-86c-20 -28 -52.333 -42 -97 -42
c-16.667 0 -32.5 2.16699 -47.5 6.5s-32.167 10.833 -51.5 19.5c-19.333 8 -35 14 -47 18s-25 6 -39 6c-19.333 0 -37 -3.83301 -53 -11.5s-31 -21.167 -45 -40.5v86zM64.9971 479.999h102v-480h-102v480z" />
    <glyph glyph-name="Imacron" unicode="&#x12a;" horiz-adv-x="236" 
d="M-42 832h319v-70h-319v70zM66 699h103v-699h-103v699z" />
    <glyph glyph-name="imacron" unicode="&#x12b;" horiz-adv-x="232" 
d="M-44 625h319v-70h-319v70zM65 480h102v-480h-102v480z" />
    <glyph glyph-name="Ibreve" unicode="&#x12c;" horiz-adv-x="236" 
d="M7.5 781c-27 26 -40.5 59.667 -40.5 101h78c0 -22.667 6.33301 -40.167 19 -52.5s30.667 -18.5 54 -18.5s41.333 6.16699 54 18.5s19 29.833 19 52.5h77c0 -41.333 -13.5 -75 -40.5 -101s-63.5 -39 -109.5 -39c-46.667 0 -83.5 13 -110.5 39zM66 699h103v-699h-103v699z
" />
    <glyph glyph-name="ibreve" unicode="&#x12d;" horiz-adv-x="232" 
d="M5.5 574c-27 26 -40.5 59.667 -40.5 101h78c0 -22.667 6.33301 -40.167 19 -52.5s30.667 -18.5 54 -18.5s41.333 6.16699 54 18.5s19 29.833 19 52.5h77c0 -41.333 -13.5 -75 -40.5 -101s-63.5 -39 -109.5 -39c-46.667 0 -83.5 13 -110.5 39zM65 480h102v-480h-102v480z
" />
    <glyph glyph-name="Iogonek" unicode="&#x12e;" horiz-adv-x="236" 
d="M179 -139v-60.999c-22 -8 -47.667 -12 -77 -12c-30.667 0 -55.667 7.66699 -75 23s-29 37.666 -29 66.999c0 24.667 6.83301 47.667 20.5 69s31.5 39 53.5 53h-6v699h103v-699h-3c-26.667 -17.333 -46.5 -34.333 -59.5 -51s-19.5 -35 -19.5 -55
c0 -28.667 14.667 -43 44 -43c16.667 0 32.667 3.33301 48 10z" />
    <glyph glyph-name="iogonek" unicode="&#x12f;" horiz-adv-x="250" 
d="M82 591c-11.333 11.333 -17 25.333 -17 42s5.66699 30.667 17 42s25.333 17 42 17c17.333 0 31.833 -5.66699 43.5 -17s17.5 -25.333 17.5 -42s-5.83301 -30.667 -17.5 -42s-26.167 -17 -43.5 -17c-16.667 0 -30.667 5.66699 -42 17zM137 -149
c16.667 0 32.667 3.33398 48 10.001v-61c-22 -8 -47.667 -12 -77 -12c-30.667 0 -55.667 7.66699 -75 23s-29 37.666 -29 66.999c0 24.667 6.83301 47.667 20.5 69s31.5 39 53.5 53h-5v480h103v-480h-4c-26.667 -17.333 -46.5 -34.333 -59.5 -51s-19.5 -35 -19.5 -55
c0 -28.667 14.667 -43 44 -43z" />
    <glyph glyph-name="Idotaccent" unicode="&#x130;" horiz-adv-x="236" 
d="M77.5 758c-11.667 11.333 -17.5 25 -17.5 41s5.83301 29.667 17.5 41s25.5 17 41.5 17c15.333 0 28.666 -5.66699 39.999 -17s17 -25 17 -41s-5.66699 -29.667 -17 -41s-24.666 -17 -39.999 -17c-16 0 -29.833 5.66699 -41.5 17zM66 699h103v-699h-103v699z" />
    <glyph glyph-name="dotlessi" unicode="&#x131;" horiz-adv-x="232" 
d="M65 480h102v-480h-102v480z" />
    <glyph glyph-name="IJ" unicode="&#x132;" horiz-adv-x="613" 
d="M66 699h103v-699h-103v699zM310 -10c-20.667 3.33301 -36.332 7.33203 -46.999 11.999v87c10 -4 22.833 -7.33301 38.5 -10s30.5 -4 44.5 -4c68.667 0 103 33.333 103 100v524h102v-531c0 -57.333 -16.333 -102.166 -49 -134.499s-77 -48.5 -133 -48.5
c-18.667 0 -38.334 1.66699 -59.001 5z" />
    <glyph glyph-name="ij" unicode="&#x133;" horiz-adv-x="446" 
d="M82 591c-11.333 11.333 -17 25.333 -17 42s5.66699 30.667 17 42s25.333 17 42 17c17.333 0 31.833 -5.66699 43.5 -17s17.5 -25.333 17.5 -42s-5.83301 -30.667 -17.5 -42s-26.167 -17 -43.5 -17c-16.667 0 -30.667 5.66699 -42 17zM278 591
c-11.333 11.333 -17.002 25.333 -17.002 42s5.83301 30.667 17.5 42s25.834 17 42.501 17s30.834 -5.66699 42.501 -17s17.5 -25.333 17.5 -42s-5.83301 -30.667 -17.5 -42s-25.834 -17 -42.501 -17c-17.333 0 -31.666 5.66699 -42.999 17zM72.998 480h103v-480h-103v480z
M125.998 -220v83c17.333 -8 37.333 -12 60 -12c30 0 51.5 7.16699 64.5 21.5s19.5 37.5 19.5 69.5v538h102v-545c0 -55.333 -15.333 -96.833 -46 -124.5s-72 -41.5 -124 -41.5c-30 0 -55.333 3.66699 -76 11z" />
    <glyph glyph-name="Jcircumflex" unicode="&#x134;" horiz-adv-x="375" 
d="M217 907h89l142 -166h-102l-84 107l-84 -107h-103zM72 -10c-20.667 3.33301 -36.332 7.33203 -46.999 11.999v87c10 -4 22.833 -7.33301 38.5 -10s30.5 -4 44.5 -4c68.667 0 103 33.333 103 100v524h102v-531c0 -57.333 -16.333 -102.166 -49 -134.499
s-77 -48.5 -133 -48.5c-18.667 0 -38.334 1.66699 -59.001 5z" />
    <glyph glyph-name="jcircumflex" unicode="&#x135;" horiz-adv-x="236" 
d="M75 700h89l142 -166h-102l-84 107l-84 -107h-103zM-75 -220v83c17.333 -8 37.333 -12 60 -12c30 0 51.5 7.16699 64.5 21.5s19.5 37.5 19.5 69.5v538h102v-545c0 -55.333 -15.333 -96.833 -46 -124.5s-72 -41.5 -124 -41.5c-30 0 -55.333 3.66699 -76 11z" />
    <glyph glyph-name="Kcommaaccent" unicode="&#x136;" horiz-adv-x="670" 
d="M65 699h102v-699h-102v699zM172 356l319 343h124l-319 -343l339 -356h-124zM263 -60h106l-95 -200h-92z" />
    <glyph glyph-name="kcommaaccent" unicode="&#x137;" horiz-adv-x="569" 
d="M65 739h101v-739h-101v739zM167 243l221 237h123l-222 -237l245 -243h-123zM222 -60h106l-95 -200h-92z" />
    <glyph glyph-name="kgreenlandic" unicode="&#x138;" horiz-adv-x="567" 
d="M65 480h98v-480h-98v480zM167 240l224 240h117l-225 -240l249 -240h-117z" />
    <glyph glyph-name="Lacute" unicode="&#x139;" horiz-adv-x="546" 
d="M138 929h107l-83 -172h-92zM65 699h102v-614h354v-85h-456v699z" />
    <glyph glyph-name="lacute" unicode="&#x13a;" horiz-adv-x="231" 
d="M140 938h106l-83 -173h-93zM65 739h101v-739h-101v739z" />
    <glyph glyph-name="Lcommaaccent" unicode="&#x13b;" horiz-adv-x="546" 
d="M65 699h102v-614h354v-85h-456v699zM246 -60h106l-95 -200h-92z" />
    <glyph glyph-name="lcommaaccent" unicode="&#x13c;" horiz-adv-x="248" 
d="M82 739h101v-739h-101v739zM80 -60h106l-95 -200h-92z" />
    <glyph glyph-name="Lcaron" unicode="&#x13d;" horiz-adv-x="546" 
d="M354 702h106l-95 -200h-92zM65 699h102v-614h354v-85h-456v699z" />
    <glyph glyph-name="lcaron" unicode="&#x13e;" horiz-adv-x="435" 
d="M296 745h106l-95 -200h-92zM65 739h101v-739h-101v739z" />
    <glyph glyph-name="Ldot" unicode="&#x13f;" horiz-adv-x="546" 
d="M65 699h102v-614h354v-85h-456v699zM322.5 342c-11.667 11.333 -17.5 25 -17.5 41s5.83301 29.667 17.5 41s25.167 17 40.5 17s28.833 -5.66699 40.5 -17s17.5 -25 17.5 -41s-5.83301 -29.667 -17.5 -41s-25.167 -17 -40.5 -17s-28.833 5.66699 -40.5 17z" />
    <glyph glyph-name="ldot" unicode="&#x140;" horiz-adv-x="356" 
d="M65 739h101v-739h-101v739zM242.5 341c-11.667 11.333 -17.5 25 -17.5 41s5.83301 29.667 17.5 41s25.167 17 40.5 17s28.833 -5.66699 40.5 -17s17.5 -25 17.5 -41s-5.83301 -29.667 -17.5 -41s-25.167 -17 -40.5 -17s-28.833 5.66699 -40.5 17z" />
    <glyph glyph-name="Lslash" unicode="&#x141;" horiz-adv-x="598" 
d="M117 296l-102 -45v96l102 45v307h102v-261l162 73v-96l-162 -73v-257h354v-85h-456v296z" />
    <glyph glyph-name="lslash" unicode="&#x142;" horiz-adv-x="316" 
d="M101 296l-126 -56v96l126 56v347h102v-302l138 62v-96l-138 -62v-341h-102v296z" />
    <glyph glyph-name="Nacute" unicode="&#x143;" horiz-adv-x="686" 
d="M358 913h107l-83 -172h-92zM65 699h97l356 -527v527h103v-699h-98l-356 527v-527h-102v699z" />
    <glyph glyph-name="nacute" unicode="&#x144;" horiz-adv-x="600" 
d="M305 718h107l-83 -172h-92zM65 480l98 -0.000976562v-69c22.667 28.667 50.5 49.834 83.5 63.501s67.5 20.5 103.5 20.5c64 0 111.667 -17 143 -51s47 -79.667 47 -137v-307h-101v297c0 78 -37.333 117 -112 117c-32 0 -61.833 -7.5 -89.5 -22.5
s-51.5 -37.833 -71.5 -68.5v-323h-101v480z" />
    <glyph glyph-name="Ncommaaccent" unicode="&#x145;" horiz-adv-x="686" 
d="M65 699h97l356 -527v527h103v-699h-98l-356 527v-527h-102v699zM303 -60h106l-95 -200h-92z" />
    <glyph glyph-name="ncommaaccent" unicode="&#x146;" horiz-adv-x="600" 
d="M65 480l98 -0.000976562v-69c22.667 28.667 50.5 49.834 83.5 63.501s67.5 20.5 103.5 20.5c64 0 111.667 -17 143 -51s47 -79.667 47 -137v-307h-101v297c0 78 -37.333 117 -112 117c-32 0 -61.833 -7.5 -89.5 -22.5s-51.5 -37.833 -71.5 -68.5v-323h-101v480z
M262 -60.001h106l-95 -200h-92z" />
    <glyph glyph-name="Ncaron" unicode="&#x147;" horiz-adv-x="686" 
d="M158 908h103l84 -107l84 107h102l-142 -166h-89zM65 699h97l356 -527v527h103v-699h-98l-356 527v-527h-102v699z" />
    <glyph glyph-name="ncaron" unicode="&#x148;" horiz-adv-x="600" 
d="M120 701h103l84 -107l84 107h102l-142 -166h-89zM65 480l98 -0.000976562v-69c22.667 28.667 50.5 49.834 83.5 63.501s67.5 20.5 103.5 20.5c64 0 111.667 -17 143 -51s47 -79.667 47 -137v-307h-101v297c0 78 -37.333 117 -112 117c-32 0 -61.833 -7.5 -89.5 -22.5
s-51.5 -37.833 -71.5 -68.5v-323h-101v480z" />
    <glyph glyph-name="napostrophe" unicode="&#x149;" horiz-adv-x="706" 
d="M111 703h106l-95 -200h-92zM171 480l98 -0.000976562v-69c22.667 28.667 50.5 49.834 83.5 63.501s67.5 20.5 103.5 20.5c64 0 111.667 -17 143 -51s47 -79.667 47 -137v-307h-101v297c0 78 -37.333 117 -112 117c-32 0 -61.833 -7.5 -89.5 -22.5
s-51.5 -37.833 -71.5 -68.5v-323h-101v480z" />
    <glyph glyph-name="Eng" unicode="&#x14a;" horiz-adv-x="686" 
d="M375 -220v84c18.667 -8.66699 38.667 -13 60 -13c30 0 51.5 7.16699 64.5 21.5s19.5 37.5 19.5 69.5v64l-352 521v-527h-102v699h97l356 -527v527h103v-763c0 -55.333 -15.333 -97 -46 -125s-72 -42 -124 -42c-30 0 -55.333 3.66699 -76 11z" />
    <glyph glyph-name="eng" unicode="&#x14b;" horiz-adv-x="600" 
d="M294 -220l0.000976562 83.999c18.667 -8.66699 38.667 -13 60 -13c30 0 51.667 7.33301 65 22s20 37.667 20 69v355c0 78 -37.333 117 -112 117c-32 0 -61.833 -7.5 -89.5 -22.5s-51.5 -37.833 -71.5 -68.5v-323h-101v480h98v-69c22.667 28.667 50.5 49.834 83.5 63.501
s67.5 20.5 103.5 20.5c64 0 111.667 -17 143 -51s47 -79.667 47 -137v-371c0 -55.333 -15.167 -97 -45.5 -125s-71.5 -42 -123.5 -42c-30.667 0 -56.334 3.66699 -77.001 11z" />
    <glyph glyph-name="Omacron" unicode="&#x14c;" horiz-adv-x="826" 
d="M257 831h312v-69h-312v69zM225 30.5c-56 30.333 -100 73.166 -132 128.499s-48 118.666 -48 189.999s16 134.666 48 189.999s76 98.333 132 129s118.667 46 188 46s132 -15.333 188 -46s100 -73.667 132 -129s48 -118.666 48 -189.999s-16 -134.666 -48 -189.999
s-76 -98.166 -132 -128.499s-118.667 -45.5 -188 -45.5s-132 15.167 -188 45.5zM547.5 110.5c40.333 22.333 72.1699 54 95.5029 95s35 88.833 35 143.5c0 54 -11.5 101.5 -34.5 142.5s-54.5 72.667 -94.5 95s-84.667 33.5 -134 33.5c-50 0 -95.167 -11 -135.5 -33
s-72.333 -53.667 -96 -95s-35.5 -89 -35.5 -143c0 -54.667 11.667 -102.5 35 -143.5s55.166 -72.667 95.499 -95s85.166 -33.5 134.499 -33.5s94.166 11.167 134.499 33.5z" />
    <glyph glyph-name="omacron" unicode="&#x14d;" horiz-adv-x="637" 
d="M162 624h312v-69h-312v69zM175.5 15.5c-41 20.333 -73 49.666 -96 87.999s-34.5 83.5 -34.5 135.5c0 51.333 11.333 96.333 34 135s54.667 68.5 96 89.5s89 31.5 143 31.5s101.667 -10.5 143 -31.5s73.5 -50.833 96.5 -89.5s34.5 -83.667 34.5 -135
c0 -52 -11.5 -97.167 -34.5 -135.5s-55.167 -67.666 -96.5 -87.999s-89 -30.5 -143 -30.5s-101.5 10.167 -142.5 30.5zM442 113c30.667 32 46 74 46 126c0 54 -15.333 96.667 -46 128s-72 47 -124 47s-93.333 -15.667 -124 -47s-46 -74 -46 -128c0 -52 15.333 -94 46 -126
s72 -48 124 -48s93.333 16 124 48z" />
    <glyph glyph-name="Obreve" unicode="&#x14e;" horiz-adv-x="826" 
d="M302.5 781c-27 26 -40.5 59.667 -40.5 101h78c0 -22.667 6.33301 -40.167 19 -52.5s30.667 -18.5 54 -18.5s41.333 6.16699 54 18.5s19 29.833 19 52.5h77c0 -41.333 -13.5 -75 -40.5 -101s-63.5 -39 -109.5 -39c-46.667 0 -83.5 13 -110.5 39zM225 30.5
c-56 30.333 -100 73.166 -132 128.499s-48 118.666 -48 189.999s16 134.666 48 189.999s76 98.333 132 129s118.667 46 188 46s132 -15.333 188 -46s100 -73.667 132 -129s48 -118.666 48 -189.999s-16 -134.666 -48 -189.999s-76 -98.166 -132 -128.499
s-118.667 -45.5 -188 -45.5s-132 15.167 -188 45.5zM547.5 110.5c40.333 22.333 72.1699 54 95.5029 95s35 88.833 35 143.5c0 54 -11.5 101.5 -34.5 142.5s-54.5 72.667 -94.5 95s-84.667 33.5 -134 33.5c-50 0 -95.167 -11 -135.5 -33s-72.333 -53.667 -96 -95
s-35.5 -89 -35.5 -143c0 -54.667 11.667 -102.5 35 -143.5s55.166 -72.667 95.499 -95s85.166 -33.5 134.499 -33.5s94.166 11.167 134.499 33.5z" />
    <glyph glyph-name="obreve" unicode="&#x14f;" horiz-adv-x="637" 
d="M208.5 565c-27 26 -40.5 59.667 -40.5 101h78c0 -22.667 6.33301 -40.167 19 -52.5s30.667 -18.5 54 -18.5s41.333 6.16699 54 18.5s19 29.833 19 52.5h77c0 -41.333 -13.5 -75 -40.5 -101s-63.5 -39 -109.5 -39c-46.667 0 -83.5 13 -110.5 39zM175.5 15.5
c-41 20.333 -73 49.666 -96 87.999s-34.5 83.5 -34.5 135.5c0 51.333 11.333 96.333 34 135s54.667 68.5 96 89.5s89 31.5 143 31.5s101.667 -10.5 143 -31.5s73.5 -50.833 96.5 -89.5s34.5 -83.667 34.5 -135c0 -52 -11.5 -97.167 -34.5 -135.5
s-55.167 -67.666 -96.5 -87.999s-89 -30.5 -143 -30.5s-101.5 10.167 -142.5 30.5zM442 113c30.667 32 46 74 46 126c0 54 -15.333 96.667 -46 128s-72 47 -124 47s-93.333 -15.667 -124 -47s-46 -74 -46 -128c0 -52 15.333 -94 46 -126s72 -48 124 -48s93.333 16 124 48z
" />
    <glyph glyph-name="Ohungarumlaut" unicode="&#x150;" horiz-adv-x="826" 
d="M324 913h102l-83 -172h-87zM531 913h102l-83 -172h-88zM225 30.5c-56 30.333 -100 73.166 -132 128.499s-48 118.666 -48 189.999s16 134.666 48 189.999s76 98.333 132 129s118.667 46 188 46s132 -15.333 188 -46s100 -73.667 132 -129s48 -118.666 48 -189.999
s-16 -134.666 -48 -189.999s-76 -98.166 -132 -128.499s-118.667 -45.5 -188 -45.5s-132 15.167 -188 45.5zM547.5 110.5c40.333 22.333 72.1699 54 95.5029 95s35 88.833 35 143.5c0 54 -11.5 101.5 -34.5 142.5s-54.5 72.667 -94.5 95s-84.667 33.5 -134 33.5
c-50 0 -95.167 -11 -135.5 -33s-72.333 -53.667 -96 -95s-35.5 -89 -35.5 -143c0 -54.667 11.667 -102.5 35 -143.5s55.166 -72.667 95.499 -95s85.166 -33.5 134.499 -33.5s94.166 11.167 134.499 33.5z" />
    <glyph glyph-name="ohungarumlaut" unicode="&#x151;" horiz-adv-x="646" 
d="M240 706h102l-83 -172h-87zM447 706h102l-83 -172h-88zM184.5 15.5c-41 20.333 -73 49.666 -96 87.999s-34.5 83.5 -34.5 135.5c0 51.333 11.333 96.333 34 135s54.667 68.5 96 89.5s89 31.5 143 31.5s101.667 -10.5 143 -31.5s73.5 -50.833 96.5 -89.5
s34.5 -83.667 34.5 -135c0 -52 -11.5 -97.167 -34.5 -135.5s-55.167 -67.666 -96.5 -87.999s-89 -30.5 -143 -30.5s-101.5 10.167 -142.5 30.5zM451 113c30.667 32 46 74 46 126c0 54 -15.333 96.667 -46 128s-72 47 -124 47s-93.333 -15.667 -124 -47s-46 -74 -46 -128
c0 -52 15.333 -94 46 -126s72 -48 124 -48s93.333 16 124 48z" />
    <glyph glyph-name="OE" unicode="&#x152;" horiz-adv-x="891" 
d="M228.5 42c-57 28 -101.833 68.333 -134.5 121s-49 114.667 -49 186s16.333 133.5 49 186.5s77.5 93.5 134.5 121.5s121.5 42 193.5 42h424v-86h-309v-221h219v-85h-219v-222h309v-85h-424c-72 0 -136.5 14 -193.5 42zM435 85v528h-20
c-50.667 0 -96.167 -10.5 -136.5 -31.5s-72.166 -51.5 -95.499 -91.5s-35 -87 -35 -141s11.667 -101 35 -141s55.166 -70.5 95.499 -91.5s85.833 -31.5 136.5 -31.5h20z" />
    <glyph glyph-name="oe" unicode="&#x153;" horiz-adv-x="1047" 
d="M590 200l-4.99902 -27.998c9.33301 -36 30.833 -62.833 64.5 -80.5s77.167 -26.5 130.5 -26.5c30.667 0 61.667 2.83301 93 8.5s59 13.167 83 22.5v-81c-21.333 -8.66699 -49.5 -15.834 -84.5 -21.501s-69.5 -8.5 -103.5 -8.5c-51.333 0 -96.5 7.66699 -135.5 23
s-70.833 37.666 -95.5 66.999c-24 -29.333 -54.833 -51.666 -92.5 -66.999s-79.834 -23 -126.501 -23c-54 0 -101.5 10.167 -142.5 30.5s-73 49.666 -96 87.999s-34.5 83.5 -34.5 135.5c0 51.333 11.333 96.333 34 135s54.667 68.5 96 89.5s89 31.5 143 31.5
c46 0 87.5 -7.66699 124.5 -23s67.5 -37.333 91.5 -66c22 28.667 50.667 50.667 86 66s76.666 23 123.999 23c55.333 0 102.333 -10.5 141 -31.5s67.834 -50 87.501 -87s29.5 -79.167 29.5 -126.5v-50h-412zM431.501 103.002c29.667 25.333 47.834 59.667 54.501 103
c-1.33301 13.333 -2 24.333 -2 33c0 7.33301 0.666992 19 2 35c-6.66699 44 -24.834 78.333 -54.501 103s-67.5 37 -113.5 37c-52 0 -93.333 -15.667 -124 -47s-46 -74 -46 -128c0 -52 15.333 -94 46 -126s72 -48 124 -48c46 0 83.833 12.667 113.5 38zM636.501 385.003
c-27 -19.333 -44.501 -45.666 -52.501 -78.999c2.66699 -10.667 4.66699 -22.334 6 -35.001h317c-1.33301 45.333 -16.166 80.5 -44.499 105.5s-68.5 37.5 -120.5 37.5c-43.333 0 -78.5 -9.66699 -105.5 -29z" />
    <glyph glyph-name="Racute" unicode="&#x154;" horiz-adv-x="623" 
d="M295 913h107l-83 -172h-92zM65 699l281 0.000976562c74.667 0 132 -18 172 -54s60 -88.667 60 -158c0 -51.333 -13.667 -94.833 -41 -130.5s-66 -59.834 -116 -72.501l154 -284h-106l-149 276h-153v-276h-102v699zM329 362.001c44.667 0 80.167 10.501 106.5 31.501
s39.5 52.167 39.5 93.5c0 45.333 -12.833 77.666 -38.5 96.999s-61.5 29 -107.5 29h-162v-251h162z" />
    <glyph glyph-name="racute" unicode="&#x155;" horiz-adv-x="399" 
d="M170 706h107l-83 -172h-92zM65 480h98v-86c20 29.333 48.167 51 84.5 65s78.5 21 126.5 21v-79c-51.333 0 -95.333 -8.33301 -132 -25s-62 -43 -76 -79v-297h-101v480z" />
    <glyph glyph-name="Rcommaaccent" unicode="&#x156;" horiz-adv-x="623" 
d="M65 699l281 0.000976562c74.667 0 132 -18 172 -54s60 -88.667 60 -158c0 -51.333 -13.667 -94.833 -41 -130.5s-66 -59.834 -116 -72.501l154 -284h-106l-149 276h-153v-276h-102v699zM329 362.001c44.667 0 80.167 10.501 106.5 31.501s39.5 52.167 39.5 93.5
c0 45.333 -12.833 77.666 -38.5 96.999s-61.5 29 -107.5 29h-162v-251h162zM250 -59.998h106l-95 -200h-92z" />
    <glyph glyph-name="rcommaaccent" unicode="&#x157;" horiz-adv-x="399" 
d="M65 480h98v-86c20 29.333 48.167 51 84.5 65s78.5 21 126.5 21v-79c-51.333 0 -95.333 -8.33301 -132 -25s-62 -43 -76 -79v-297h-101v480zM62 -60h106l-95 -200h-92z" />
    <glyph glyph-name="Rcaron" unicode="&#x158;" horiz-adv-x="623" 
d="M91 908h103l84 -107l84 107h102l-142 -166h-89zM65 699l281 0.000976562c74.667 0 132 -18 172 -54s60 -88.667 60 -158c0 -51.333 -13.667 -94.833 -41 -130.5s-66 -59.834 -116 -72.501l154 -284h-106l-149 276h-153v-276h-102v699zM329 362.001
c44.667 0 80.167 10.501 106.5 31.501s39.5 52.167 39.5 93.5c0 45.333 -12.833 77.666 -38.5 96.999s-61.5 29 -107.5 29h-162v-251h162z" />
    <glyph glyph-name="rcaron" unicode="&#x159;" horiz-adv-x="441" 
d="M12 701h103l84 -107l84 107h102l-142 -166h-89zM106 480h98v-86c20 29.333 48.167 51 84.5 65s78.5 21 126.5 21v-79c-51.333 0 -95.333 -8.33301 -132 -25s-62 -43 -76 -79v-297h-101v480z" />
    <glyph glyph-name="Sacute" unicode="&#x15a;" horiz-adv-x="561" 
d="M299 913h107l-83 -172h-92zM140.5 -4.5c-39 7 -70.833 16.499 -95.5 28.499v92c64 -30 133 -45 207 -45c104 0 156 35 156 105c0 24 -5.66699 43.333 -17 58s-27.666 27.5 -48.999 38.5s-56 26.167 -104 45.5c-66 26.667 -113.667 56 -143 88s-44 72.333 -44 121
c0 36.667 10 69.167 30 97.5s48 50.333 84 66s77.333 23.5 124 23.5c38 0 72.333 -3 103 -9s60.667 -15.667 90 -29v-88c-58 26 -116.667 39 -176 39c-48 0 -84.667 -8.66699 -110 -26s-38 -42 -38 -74c0 -22 5.5 -40.5 16.5 -55.5s27.333 -28.333 49 -40
s53.834 -26.167 96.501 -43.5c47.333 -19.333 84.666 -37.666 111.999 -54.999s48.166 -38.5 62.499 -63.5s21.5 -56.167 21.5 -93.5c0 -60.667 -21.667 -107.667 -65 -141s-107.333 -50 -192 -50c-40 0 -79.5 3.5 -118.5 10.5z" />
    <glyph glyph-name="sacute" unicode="&#x15b;" horiz-adv-x="489" 
d="M245 706h107l-83 -172h-92zM136 -2.5c-37.333 8.33301 -66.6719 19.501 -88.0049 33.501v86c26 -15.333 56 -27.833 90 -37.5s67 -14.5 99 -14.5c36 0 62.333 4.33301 79 13s25 22.667 25 42c0 14.667 -3.83301 26.5 -11.5 35.5s-20.667 17.167 -39 24.5
s-45.833 16 -82.5 26c-39.333 11.333 -70.5 22.833 -93.5 34.5s-40.333 26.5 -52 44.5s-17.5 41.333 -17.5 70c0 46 18.167 80.833 54.5 104.5s85.166 35.5 146.499 35.5c32 0 63.333 -3 94 -9s55.334 -14.333 74.001 -25v-84c-19.333 11.333 -43.166 20.333 -71.499 27
s-57.166 10 -86.499 10c-35.333 0 -62.333 -4.33301 -81 -13s-28 -24 -28 -46c0 -14 4 -25.333 12 -34s20.833 -16.167 38.5 -22.5s45.834 -14.5 84.501 -24.5c60.667 -16.667 102.834 -36.334 126.501 -59.001s35.5 -54 35.5 -94c0 -41.333 -17 -74.333 -51 -99
s-84.333 -37 -151 -37c-33.333 0 -68.666 4.16699 -105.999 12.5z" />
    <glyph glyph-name="Scircumflex" unicode="&#x15c;" horiz-adv-x="561" 
d="M237 907h89l142 -166h-102l-84 107l-84 -107h-103zM140.5 -4.5c-39 7 -70.833 16.499 -95.5 28.499v92c64 -30 133 -45 207 -45c104 0 156 35 156 105c0 24 -5.66699 43.333 -17 58s-27.666 27.5 -48.999 38.5s-56 26.167 -104 45.5c-66 26.667 -113.667 56 -143 88
s-44 72.333 -44 121c0 36.667 10 69.167 30 97.5s48 50.333 84 66s77.333 23.5 124 23.5c38 0 72.333 -3 103 -9s60.667 -15.667 90 -29v-88c-58 26 -116.667 39 -176 39c-48 0 -84.667 -8.66699 -110 -26s-38 -42 -38 -74c0 -22 5.5 -40.5 16.5 -55.5
s27.333 -28.333 49 -40s53.834 -26.167 96.501 -43.5c47.333 -19.333 84.666 -37.666 111.999 -54.999s48.166 -38.5 62.499 -63.5s21.5 -56.167 21.5 -93.5c0 -60.667 -21.667 -107.667 -65 -141s-107.333 -50 -192 -50c-40 0 -79.5 3.5 -118.5 10.5z" />
    <glyph glyph-name="scircumflex" unicode="&#x15d;" horiz-adv-x="489" 
d="M201 700h89l142 -166h-102l-84 107l-84 -107h-103zM136 -2.5c-37.333 8.33301 -66.6719 19.501 -88.0049 33.501v86c26 -15.333 56 -27.833 90 -37.5s67 -14.5 99 -14.5c36 0 62.333 4.33301 79 13s25 22.667 25 42c0 14.667 -3.83301 26.5 -11.5 35.5
s-20.667 17.167 -39 24.5s-45.833 16 -82.5 26c-39.333 11.333 -70.5 22.833 -93.5 34.5s-40.333 26.5 -52 44.5s-17.5 41.333 -17.5 70c0 46 18.167 80.833 54.5 104.5s85.166 35.5 146.499 35.5c32 0 63.333 -3 94 -9s55.334 -14.333 74.001 -25v-84
c-19.333 11.333 -43.166 20.333 -71.499 27s-57.166 10 -86.499 10c-35.333 0 -62.333 -4.33301 -81 -13s-28 -24 -28 -46c0 -14 4 -25.333 12 -34s20.833 -16.167 38.5 -22.5s45.834 -14.5 84.501 -24.5c60.667 -16.667 102.834 -36.334 126.501 -59.001s35.5 -54 35.5 -94
c0 -41.333 -17 -74.333 -51 -99s-84.333 -37 -151 -37c-33.333 0 -68.666 4.16699 -105.999 12.5z" />
    <glyph glyph-name="Scedilla" unicode="&#x15e;" horiz-adv-x="561" 
d="M463.5 46c-35 -32.667 -86.5 -52.334 -154.5 -59.001l-17 -43c30 -4 52.667 -14.167 68 -30.5s23 -37.833 23 -64.5c0 -29.333 -12 -52.833 -36 -70.5s-56.667 -26.5 -98 -26.5c-36.667 0 -64 3.66699 -82 11l1 58c6.66699 -3.33301 15.5 -6 26.5 -8s21.167 -3 30.5 -3
c42.667 0 64 15.333 64 46c0 36.667 -33.667 55 -101 55l29 75c-34 2.66699 -66.167 7.16699 -96.5 13.5s-55.5 14.5 -75.5 24.5v92c64 -30 133 -45 207 -45c104 0 156 35 156 105c0 24 -5.66699 43.333 -17 58s-27.666 27.5 -48.999 38.5s-56 26.167 -104 45.5
c-66 26.667 -113.667 56 -143 88s-44 72.333 -44 121c0 36.667 10 69.167 30 97.5s48 50.333 84 66s77.333 23.5 124 23.5c38 0 72.333 -3 103 -9s60.667 -15.667 90 -29v-88c-58 26 -116.667 39 -176 39c-48 0 -84.667 -8.66699 -110 -26s-38 -42 -38 -74
c0 -22 5.5 -40.5 16.5 -55.5s27.333 -28.333 49 -40s53.834 -26.167 96.501 -43.5c47.333 -19.333 84.666 -37.666 111.999 -54.999s48.166 -38.5 62.499 -63.5s21.5 -56.167 21.5 -93.5c0 -54 -17.5 -97.333 -52.5 -130z" />
    <glyph glyph-name="scedilla" unicode="&#x15f;" horiz-adv-x="489" 
d="M401.5 28.5c-28.333 -23.667 -70.1699 -37.8311 -125.503 -42.498l-17 -42c30 -4 52.667 -14.167 68 -30.5s23 -37.833 23 -64.5c0 -29.333 -12 -52.833 -36 -70.5s-56.667 -26.5 -98 -26.5c-36.667 0 -64 3.66699 -82 11l1 58c6.66699 -3.33301 15.5 -6 26.5 -8
s21.167 -3 30.5 -3c42.667 0 64 15.333 64 46c0 36.667 -33.667 55 -101 55l30 78c-26.667 3.33301 -52.334 8.66602 -77.001 15.999s-44.667 16 -60 26v86c26 -15.333 56 -27.833 90 -37.5s67 -14.5 99 -14.5c36 0 62.333 4.33301 79 13s25 22.667 25 42
c0 14.667 -3.83301 26.5 -11.5 35.5s-20.667 17.167 -39 24.5s-45.833 16 -82.5 26c-39.333 11.333 -70.5 22.833 -93.5 34.5s-40.333 26.5 -52 44.5s-17.5 41.333 -17.5 70c0 46 18.167 80.833 54.5 104.5s85.166 35.5 146.499 35.5c32 0 63.333 -3 94 -9
s55.334 -14.333 74.001 -25v-84c-19.333 11.333 -43.166 20.333 -71.499 27s-57.166 10 -86.499 10c-35.333 0 -62.333 -4.33301 -81 -13s-28 -24 -28 -46c0 -14 4 -25.333 12 -34s20.833 -16.167 38.5 -22.5s45.834 -14.5 84.501 -24.5
c60.667 -16.667 102.834 -36.334 126.501 -59.001s35.5 -54 35.5 -94c0 -38 -14.167 -68.833 -42.5 -92.5z" />
    <glyph glyph-name="Scaron" unicode="&#x160;" horiz-adv-x="561" 
d="M107 908h103l84 -107l84 107h102l-142 -166h-89zM140.5 -4.5c-39 7 -70.833 16.499 -95.5 28.499v92c64 -30 133 -45 207 -45c104 0 156 35 156 105c0 24 -5.66699 43.333 -17 58s-27.666 27.5 -48.999 38.5s-56 26.167 -104 45.5c-66 26.667 -113.667 56 -143 88
s-44 72.333 -44 121c0 36.667 10 69.167 30 97.5s48 50.333 84 66s77.333 23.5 124 23.5c38 0 72.333 -3 103 -9s60.667 -15.667 90 -29v-88c-58 26 -116.667 39 -176 39c-48 0 -84.667 -8.66699 -110 -26s-38 -42 -38 -74c0 -22 5.5 -40.5 16.5 -55.5
s27.333 -28.333 49 -40s53.834 -26.167 96.501 -43.5c47.333 -19.333 84.666 -37.666 111.999 -54.999s48.166 -38.5 62.499 -63.5s21.5 -56.167 21.5 -93.5c0 -60.667 -21.667 -107.667 -65 -141s-107.333 -50 -192 -50c-40 0 -79.5 3.5 -118.5 10.5z" />
    <glyph glyph-name="scaron" unicode="&#x161;" horiz-adv-x="489" 
d="M56 701h103l84 -107l84 107h102l-142 -166h-89zM136 -2.5c-37.333 8.33301 -66.6719 19.501 -88.0049 33.501v86c26 -15.333 56 -27.833 90 -37.5s67 -14.5 99 -14.5c36 0 62.333 4.33301 79 13s25 22.667 25 42c0 14.667 -3.83301 26.5 -11.5 35.5
s-20.667 17.167 -39 24.5s-45.833 16 -82.5 26c-39.333 11.333 -70.5 22.833 -93.5 34.5s-40.333 26.5 -52 44.5s-17.5 41.333 -17.5 70c0 46 18.167 80.833 54.5 104.5s85.166 35.5 146.499 35.5c32 0 63.333 -3 94 -9s55.334 -14.333 74.001 -25v-84
c-19.333 11.333 -43.166 20.333 -71.499 27s-57.166 10 -86.499 10c-35.333 0 -62.333 -4.33301 -81 -13s-28 -24 -28 -46c0 -14 4 -25.333 12 -34s20.833 -16.167 38.5 -22.5s45.834 -14.5 84.501 -24.5c60.667 -16.667 102.834 -36.334 126.501 -59.001s35.5 -54 35.5 -94
c0 -41.333 -17 -74.333 -51 -99s-84.333 -37 -151 -37c-33.333 0 -68.666 4.16699 -105.999 12.5z" />
    <glyph glyph-name="uni0162" unicode="&#x162;" horiz-adv-x="587" 
d="M340 0l-22 -56c30 -4 52.667 -14.167 68 -30.5s23 -37.833 23 -64.5c0 -29.333 -12 -52.833 -36 -70.5s-56.667 -26.5 -98 -26.5c-36.667 0 -64 3.66699 -82 11l1 58c6.66699 -3.33301 15.5 -6 26.5 -8s21.167 -3 30.5 -3c42.667 0 64 15.333 64 46
c0 36.667 -33.667 55 -101 55l34 89h-6v613h-217v86h537v-86h-217v-613h-5z" />
    <glyph glyph-name="uni0163" unicode="&#x163;" horiz-adv-x="377" 
d="M329 -86.5c15.333 -16.333 23.001 -37.833 23.001 -64.5c0 -29.333 -12 -52.833 -36 -70.5s-56.667 -26.5 -98 -26.5c-36.667 0 -64 3.66699 -82 11l1 58c6.66699 -3.33301 15.5 -6 26.5 -8s21.167 -3 30.5 -3c42.667 0 64 15.333 64 46c0 36.667 -33.667 55 -101 55
l32 83c-29.333 10 -51.833 28 -67.5 54s-23.5 58.667 -23.5 98v256h-73v78h73v144h102v-144h118v-78h-118v-249c0 -32 6.16699 -54.667 18.5 -68s34.833 -20 67.5 -20c19.333 0 38.666 4.33301 57.999 13v-80c-20 -7.33301 -42.333 -11.333 -67 -12l-16 -42
c30 -4 52.667 -14.167 68 -30.5z" />
    <glyph glyph-name="Tcaron" unicode="&#x164;" horiz-adv-x="587" 
d="M107 908h103l84 -107l84 107h102l-142 -166h-89zM242 613h-217v86h537v-86h-217v-613h-103v613z" />
    <glyph glyph-name="tcaron" unicode="&#x165;" horiz-adv-x="438" 
d="M334 784h106l-95 -200h-92zM137.5 27c-26.333 28 -39.5 67.667 -39.5 119v256h-73v78h73v144h102v-144h118v-78h-118v-249c0 -32 6.16699 -54.667 18.5 -68s34.833 -20 67.5 -20c19.333 0 38.666 4.33301 57.999 13v-80c-25.333 -8.66699 -56.666 -13 -93.999 -13
c-48.667 0 -86.167 14 -112.5 42z" />
    <glyph glyph-name="Tbar" unicode="&#x166;" horiz-adv-x="587" 
d="M241 292h-125v86h125v232h-216v89h537v-89h-216v-232h125v-86h-125v-292h-105v292z" />
    <glyph glyph-name="tbar" unicode="&#x167;" horiz-adv-x="375" 
d="M138.5 26c-26.333 27.333 -39.5 66.667 -39.5 118v86h-74v60h74v119h-73v71h73v144h102v-144h119v-71h-119v-119h118v-60h-118v-74c0 -32 6.83301 -55.167 20.5 -69.5s35.5 -21.5 65.5 -21.5c20.667 0 40 4 58 12v-78c-26.667 -9.33301 -58 -14 -94 -14
c-48.667 0 -86.167 13.667 -112.5 41z" />
    <glyph glyph-name="Utilde" unicode="&#x168;" horiz-adv-x="697" 
d="M161 828c20.667 28.667 53.3311 42.999 97.998 42.999c14.667 0 28.834 -2 42.501 -6s31.167 -10.333 52.5 -19c18 -8 33.833 -14.167 47.5 -18.5s27.834 -6.5 42.501 -6.5c20 0 38 3.83301 54 11.5s30.333 20.834 43 39.501v-86c-20 -28 -52.333 -42 -97 -42
c-16.667 0 -32.5 2.16699 -47.5 6.5s-32.167 10.833 -51.5 19.5c-19.333 8 -35 14 -47 18s-25 6 -39 6c-19.333 0 -37 -3.83301 -53 -11.5s-31 -21.167 -45 -40.5v86zM132.997 58.499c-48.667 49 -72.998 116.499 -72.998 202.499v438h102v-442
c0 -59.333 16.667 -104.166 50 -134.499s79 -45.5 137 -45.5c57.333 0 102.666 15.167 135.999 45.5s50 75.166 50 134.499v442h102v-438c0 -85.333 -24.333 -152.666 -73 -201.999s-120.334 -74 -215.001 -74c-95.333 0 -167.333 24.5 -216 73.5z" />
    <glyph glyph-name="utilde" unicode="&#x169;" horiz-adv-x="600" 
d="M113 621c20.667 28.667 53.3311 42.999 97.998 42.999c14.667 0 28.834 -2 42.501 -6s31.167 -10.333 52.5 -19c18 -8 33.833 -14.167 47.5 -18.5s27.834 -6.5 42.501 -6.5c20 0 38 3.83301 54 11.5s30.333 20.834 43 39.501v-86c-20 -28 -52.333 -42 -97 -42
c-16.667 0 -32.5 2.16699 -47.5 6.5s-32.167 10.833 -51.5 19.5c-19.333 8 -35 14 -47 18s-25 6 -39 6c-19.333 0 -37 -3.83301 -53 -11.5s-31 -21.167 -45 -40.5v86zM109.497 36.999c-33 34.667 -49.5 81 -49.5 139v304h101v-300c0 -76.667 38.333 -115 115 -115
c67.333 0 120 30.333 158 91v324h101v-480h-98v68c-22.667 -28.667 -49.5 -49.667 -80.5 -63s-64.5 -20 -100.5 -20c-64.667 0 -113.5 17.333 -146.5 52z" />
    <glyph glyph-name="Umacron" unicode="&#x16a;" horiz-adv-x="697" 
d="M192 831h312v-69h-312v69zM133 58.5c-48.667 49 -72.998 116.499 -72.998 202.499v438h102v-442c0 -59.333 16.667 -104.166 50 -134.499s79 -45.5 137 -45.5c57.333 0 102.666 15.167 135.999 45.5s50 75.166 50 134.499v442h102v-438
c0 -85.333 -24.333 -152.666 -73 -201.999s-120.334 -74 -215.001 -74c-95.333 0 -167.333 24.5 -216 73.5z" />
    <glyph glyph-name="umacron" unicode="&#x16b;" horiz-adv-x="600" 
d="M141 624h312v-69h-312v69zM109.5 37c-33 34.667 -49.5 81 -49.5 139v304h101v-300c0 -76.667 38.333 -115 115 -115c67.333 0 120 30.333 158 91v324h101v-480h-98v68c-22.667 -28.667 -49.5 -49.667 -80.5 -63s-64.5 -20 -100.5 -20c-64.667 0 -113.5 17.333 -146.5 52z
" />
    <glyph glyph-name="Ubreve" unicode="&#x16c;" horiz-adv-x="697" 
d="M238.5 781c-27 26 -40.5 59.667 -40.5 101h78c0 -22.667 6.33301 -40.167 19 -52.5s30.667 -18.5 54 -18.5s41.333 6.16699 54 18.5s19 29.833 19 52.5h77c0 -41.333 -13.5 -75 -40.5 -101s-63.5 -39 -109.5 -39c-46.667 0 -83.5 13 -110.5 39zM133 58.5
c-48.667 49 -72.998 116.499 -72.998 202.499v438h102v-442c0 -59.333 16.667 -104.166 50 -134.499s79 -45.5 137 -45.5c57.333 0 102.666 15.167 135.999 45.5s50 75.166 50 134.499v442h102v-438c0 -85.333 -24.333 -152.666 -73 -201.999s-120.334 -74 -215.001 -74
c-95.333 0 -167.333 24.5 -216 73.5z" />
    <glyph glyph-name="ubreve" unicode="&#x16d;" horiz-adv-x="600" 
d="M185.5 574c-27 26 -40.5 59.667 -40.5 101h78c0 -22.667 6.33301 -40.167 19 -52.5s30.667 -18.5 54 -18.5s41.333 6.16699 54 18.5s19 29.833 19 52.5h77c0 -41.333 -13.5 -75 -40.5 -101s-63.5 -39 -109.5 -39c-46.667 0 -83.5 13 -110.5 39zM109.5 37
c-33 34.667 -49.5 81 -49.5 139v304h101v-300c0 -76.667 38.333 -115 115 -115c67.333 0 120 30.333 158 91v324h101v-480h-98v68c-22.667 -28.667 -49.5 -49.667 -80.5 -63s-64.5 -20 -100.5 -20c-64.667 0 -113.5 17.333 -146.5 52z" />
    <glyph glyph-name="Uring" unicode="&#x16e;" horiz-adv-x="697" 
d="M265.5 775.5c-22.333 22.333 -33.5 49.833 -33.5 82.5c0 32 11.167 59.333 33.5 82s49.833 34 82.5 34c32 0 59.333 -11.333 82 -34s34 -50 34 -82c0 -32.667 -11.333 -60.167 -34 -82.5s-50 -33.5 -82 -33.5c-32.667 0 -60.167 11.167 -82.5 33.5zM386 819.5
c10.667 11 16 23.833 16 38.5s-5.33301 27.334 -16 38.001s-23.334 16 -38.001 16s-27.334 -5.33301 -38.001 -16s-16 -23.334 -16 -38.001c0 -15.333 5.33301 -28.333 16 -39s23.334 -16 38.001 -16s27.334 5.5 38.001 16.5zM133 58.5
c-48.667 49 -72.998 116.499 -72.998 202.499v438h102v-442c0 -59.333 16.667 -104.166 50 -134.499s79 -45.5 137 -45.5c57.333 0 102.666 15.167 135.999 45.5s50 75.166 50 134.499v442h102v-438c0 -85.333 -24.333 -152.666 -73 -201.999s-120.334 -74 -215.001 -74
c-95.333 0 -167.333 24.5 -216 73.5z" />
    <glyph glyph-name="uring" unicode="&#x16f;" horiz-adv-x="600" 
d="M214.5 568.5c-22.333 22.333 -33.5 49.833 -33.5 82.5c0 32 11.167 59.333 33.5 82s49.833 34 82.5 34c32 0 59.333 -11.333 82 -34s34 -50 34 -82c0 -32.667 -11.333 -60.167 -34 -82.5s-50 -33.5 -82 -33.5c-32.667 0 -60.167 11.167 -82.5 33.5zM335 612.5
c10.667 11 16 23.833 16 38.5s-5.33301 27.334 -16 38.001s-23.334 16 -38.001 16s-27.334 -5.33301 -38.001 -16s-16 -23.334 -16 -38.001c0 -15.333 5.33301 -28.333 16 -39s23.334 -16 38.001 -16s27.334 5.5 38.001 16.5zM109.5 37c-33 34.667 -49.5 81 -49.5 139v304
h101v-300c0 -76.667 38.333 -115 115 -115c67.333 0 120 30.333 158 91v324h101v-480h-98v68c-22.667 -28.667 -49.5 -49.667 -80.5 -63s-64.5 -20 -100.5 -20c-64.667 0 -113.5 17.333 -146.5 52z" />
    <glyph glyph-name="Uhungarumlaut" unicode="&#x170;" horiz-adv-x="697" 
d="M266 913h102l-83 -172h-87zM473 913h102l-83 -172h-88zM133 58.5c-48.667 49 -72.998 116.499 -72.998 202.499v438h102v-442c0 -59.333 16.667 -104.166 50 -134.499s79 -45.5 137 -45.5c57.333 0 102.666 15.167 135.999 45.5s50 75.166 50 134.499v442h102v-438
c0 -85.333 -24.333 -152.666 -73 -201.999s-120.334 -74 -215.001 -74c-95.333 0 -167.333 24.5 -216 73.5z" />
    <glyph glyph-name="uhungarumlaut" unicode="&#x171;" horiz-adv-x="601" 
d="M214 706h102l-83 -172h-87zM421 706h102l-83 -172h-88zM109.5 37c-33 34.667 -49.5 81 -49.5 139v304h101v-300c0 -76.667 38.333 -115 115 -115c67.333 0 120 30.333 158 91v324h101v-480h-98v68c-22.667 -28.667 -49.5 -49.667 -80.5 -63s-64.5 -20 -100.5 -20
c-64.667 0 -113.5 17.333 -146.5 52z" />
    <glyph glyph-name="Uogonek" unicode="&#x172;" horiz-adv-x="697" 
d="M637 699l0.000976562 -437.999c0 -78.667 -20.5 -142 -61.5 -190s-101.5 -76 -181.5 -84c-20 -14.667 -35 -29.5 -45 -44.5s-15 -31.167 -15 -48.5c0 -28.667 14.667 -43 44 -43c16.667 0 32.667 3.33301 48 10v-61c-22 -8 -47.667 -12 -77 -12
c-30.667 0 -55.667 7.66699 -75 23s-29 37.666 -29 66.999c0 21.333 5 41.333 15 60s23.667 35 41 49c-79.333 8 -139.333 36.167 -180 84.5s-61 111.5 -61 189.5v438h102v-442c0 -59.333 16.667 -104.166 50 -134.499s79 -45.5 137 -45.5
c57.333 0 102.666 15.167 135.999 45.5s50 75.166 50 134.499v442h102z" />
    <glyph glyph-name="uogonek" unicode="&#x173;" horiz-adv-x="585" 
d="M545 -139v-60.999c-22 -8 -47.667 -12 -77 -12c-30.667 0 -55.667 7.66699 -75 23s-29 37.666 -29 66.999c0 24.667 6.83301 47.667 20.5 69s31.5 39 53.5 53h-1v68c-22.667 -28.667 -49.5 -49.667 -80.5 -63s-64.5 -20 -100.5 -20c-64.667 0 -113.5 17.333 -146.5 52
s-49.5 81 -49.5 139v304h101v-300c0 -76.667 38.333 -115 115 -115c67.333 0 120 30.333 158 91v324h101v-480h-3c-26.667 -17.333 -46.5 -34.333 -59.5 -51s-19.5 -35 -19.5 -55c0 -28.667 14.667 -43 44 -43c16.667 0 32.667 3.33301 48 10z" />
    <glyph glyph-name="Wcircumflex" unicode="&#x174;" horiz-adv-x="1007" 
d="M459 907h89l142 -166h-102l-84 107l-84 -107h-103zM48 699h106l156 -531l154 531h80l153 -531l156 531h106l-204 -699h-97l-155 528l-154 -528h-97z" />
    <glyph glyph-name="wcircumflex" unicode="&#x175;" horiz-adv-x="818" 
d="M365 700h89l142 -166h-102l-84 107l-84 -107h-103zM45 480h103l108 -356l107 356h91l107 -356l108 356h104l-156 -480h-97l-111 358l-111 -358h-98z" />
    <glyph glyph-name="Ycircumflex" unicode="&#x176;" horiz-adv-x="706" 
d="M308 907h89l142 -166h-102l-84 107l-84 -107h-103zM302 265l-254 434h109l195 -337l198 337h108l-257 -434v-265h-99v265z" />
    <glyph glyph-name="ycircumflex" unicode="&#x177;" horiz-adv-x="587" 
d="M266 700h89l142 -166h-102l-84 107l-84 -107h-103zM77 -187l0.00195312 79c17.333 -6.66699 38.666 -10 63.999 -10c23.333 0 41.666 5.83301 54.999 17.5s25.333 30.5 36 56.5l23 56l-210 468h104l160 -369l149 369h104l-216 -534c-20 -50 -43.833 -86.5 -71.5 -109.5
s-63.5 -34.5 -107.5 -34.5c-36 0 -66 3.66699 -90 11z" />
    <glyph glyph-name="Ydieresis" unicode="&#x178;" horiz-adv-x="700" 
d="M182.5 769c-11.667 11.333 -17.5 25 -17.5 41s5.83301 29.667 17.5 41s25.5 17 41.5 17c15.333 0 28.666 -5.66699 39.999 -17s17 -25 17 -41s-5.66699 -29.667 -17 -41s-24.666 -17 -39.999 -17c-16 0 -29.833 5.66699 -41.5 17zM409.5 769
c-11.667 11.333 -17.5 25 -17.5 41s5.83301 29.667 17.5 41s25.5 17 41.5 17c15.333 0 28.666 -5.66699 39.999 -17s17 -25 17 -41s-5.66699 -29.667 -17 -41s-24.666 -17 -39.999 -17c-16 0 -29.833 5.66699 -41.5 17zM299 265l-254 434h109l195 -337l198 337h108
l-257 -434v-265h-99v265z" />
    <glyph glyph-name="Zacute" unicode="&#x179;" horiz-adv-x="618" 
d="M308 913h107l-83 -172h-92zM45 69l387 544h-378v86h502v-70l-386 -544h403v-85h-528v69z" />
    <glyph glyph-name="zacute" unicode="&#x17a;" horiz-adv-x="499" 
d="M256 706h107l-83 -172h-92zM45 65l273 337h-267v78h393v-66l-273 -336h283v-78h-409v65z" />
    <glyph glyph-name="Zdotaccent" unicode="&#x17b;" horiz-adv-x="618" 
d="M257.5 758c-11.667 11.333 -17.5 25 -17.5 41s5.83301 29.667 17.5 41s25.5 17 41.5 17c15.333 0 28.666 -5.66699 39.999 -17s17 -25 17 -41s-5.66699 -29.667 -17 -41s-24.666 -17 -39.999 -17c-16 0 -29.833 5.66699 -41.5 17zM45 69l387 544h-378v86h502v-70
l-386 -544h403v-85h-528v69z" />
    <glyph glyph-name="zdotaccent" unicode="&#x17c;" horiz-adv-x="499" 
d="M206.5 551c-11.667 11.333 -17.5 25 -17.5 41s5.83301 29.667 17.5 41s25.5 17 41.5 17c15.333 0 28.666 -5.66699 39.999 -17s17 -25 17 -41s-5.66699 -29.667 -17 -41s-24.666 -17 -39.999 -17c-16 0 -29.833 5.66699 -41.5 17zM45 65l273 337h-267v78h393v-66
l-273 -336h283v-78h-409v65z" />
    <glyph glyph-name="Zcaron" unicode="&#x17d;" horiz-adv-x="618" 
d="M121 908h103l84 -107l84 107h102l-142 -166h-89zM45 69l387 544h-378v86h502v-70l-386 -544h403v-85h-528v69z" />
    <glyph glyph-name="zcaron" unicode="&#x17e;" horiz-adv-x="499" 
d="M66 701h103l84 -107l84 107h102l-142 -166h-89zM45 65l273 337h-267v78h393v-66l-273 -336h283v-78h-409v65z" />
    <glyph glyph-name="uni018F" unicode="&#x18f;" horiz-adv-x="823" 
d="M209.5 30c-55 30 -96.168 71.3311 -123.501 123.998s-41 112.334 -41 179.001v52h624c-5.33301 77.333 -34.5 136.833 -87.5 178.5s-126.167 62.5 -219.5 62.5c-44 0 -88.5 -4 -133.5 -12s-83.833 -18.667 -116.5 -32v87c30.667 12.667 70.334 23.334 119.001 32.001
s96.667 13 144 13c84.667 0 157.167 -14.333 217.5 -43s106.333 -70.167 138 -124.5s47.5 -119.833 47.5 -196.5c0 -74 -14.167 -138.333 -42.5 -193s-70 -97 -125 -127s-121.833 -45 -200.5 -45s-145.5 15 -200.5 45zM599.999 134.998c43.333 42.667 66.666 100 69.999 172
h-526c2.66699 -72 25.834 -129.333 69.501 -172s108.5 -64 194.5 -64c84.667 0 148.667 21.333 192 64z" />
    <glyph glyph-name="florin" unicode="&#x192;" horiz-adv-x="525" 
d="M-90 -218l14.001 83c16 -8 35.333 -12 58 -12c32.667 0 57.5 7.33301 74.5 22s29.167 38 36.5 70l97 462h-80l12 73h84l20 94c24 113.333 92.667 170 206 170c14 0 28.167 -1.16699 42.5 -3.5s26.166 -5.5 35.499 -9.5l-14 -81c-16.667 7.33301 -36.667 11 -60 11
c-31.333 0 -55.5 -7 -72.5 -21s-29.167 -38 -36.5 -72l-19 -88h133l-12 -73h-137l-99 -468c-12 -58.667 -35 -101.5 -69 -128.5s-79.667 -40.5 -137 -40.5c-31.333 0 -57 4 -77 12z" />
    <glyph glyph-name="Ohorn" unicode="&#x1a0;" horiz-adv-x="862" 
d="M225 30.5c-56 30.333 -100.001 73.167 -132.001 128.5s-48 118.666 -48 189.999s16 134.666 48 189.999s76 98.333 132 129s118.667 46 188 46c48.667 0 94.5 -7.83301 137.5 -23.5s80.833 -37.834 113.5 -66.501c30.667 0.666992 52.834 7.83398 66.501 21.501
s20.5 35.5 20.5 65.5v36h94v-41c0 -37.333 -10.667 -70.5 -32 -99.5s-50 -48.167 -86 -57.5c36 -59.333 54 -126 54 -200c0 -71.333 -16 -134.666 -48 -189.999s-76 -98.166 -132 -128.499s-118.667 -45.5 -188 -45.5s-132 15.167 -188 45.5zM545.499 113.001
c39.667 22 71.167 53.333 94.5 94s35 88 35 142c0 53.333 -11.333 100.333 -34 141s-53.834 72 -93.501 94s-83.834 33 -132.501 33c-49.333 0 -94 -11 -134 -33s-71.667 -53.333 -95 -94s-35 -87.667 -35 -141c0 -54 11.667 -101.333 35 -142s54.833 -72 94.5 -94
s83.834 -33 132.501 -33s92.834 11 132.501 33z" />
    <glyph glyph-name="ohorn" unicode="&#x1a1;" horiz-adv-x="677" 
d="M175.5 15.5c-41 20.333 -73.001 49.666 -96.001 87.999s-34.5 83.5 -34.5 135.5c0 51.333 11.333 96.333 34 135s54.667 68.5 96 89.5s89 31.5 143 31.5c36.667 0 70.834 -5 102.501 -15s59.167 -24.667 82.5 -44c24.667 4.66699 43.167 14.334 55.5 29.001
s18.5 33.667 18.5 57v36h83v-41c0 -32.667 -9.33301 -61.834 -28 -87.501s-44 -43.834 -76 -54.501c24 -39.333 36 -84.666 36 -135.999c0 -52 -11.5 -97.167 -34.5 -135.5s-55.167 -67.666 -96.5 -87.999s-89 -30.5 -143 -30.5s-101.5 10.167 -142.5 30.5zM441.999 113
c30.667 32 46 74 46 126c0 54 -15.333 96.667 -46 128s-72 47 -124 47s-93.333 -15.667 -124 -47s-46 -74 -46 -128c0 -52 15.333 -94 46 -126s72 -48 124 -48s93.333 16 124 48z" />
    <glyph glyph-name="Uhorn" unicode="&#x1af;" horiz-adv-x="838" 
d="M133 58.5c-48.667 49 -72.999 116.5 -72.999 202.5v438h105v-442c0 -59.333 16.167 -103.666 48.5 -132.999s77.5 -44 135.5 -44c57.333 0 102.166 14.667 134.499 44s48.5 73.666 48.5 132.999v442h105v-75c32.667 0 55.667 6.66699 69 20s20 35.666 20 66.999v36h94
v-41c0 -47.333 -15.667 -86.333 -47 -117s-76.666 -46 -135.999 -46v-282c0 -85.333 -24.333 -152.666 -73 -201.999s-120.334 -74 -215.001 -74c-95.333 0 -167.333 24.5 -216 73.5z" />
    <glyph glyph-name="uhorn" unicode="&#x1b0;" horiz-adv-x="718" 
d="M108 36.5c-32 34.333 -48 80.166 -48 137.499v306h101v-297c0 -78.667 38.333 -118 115 -118c32 0 61.5 7.5 88.5 22.5s50.167 37.833 69.5 68.5v324h101v-46c26.667 1.33301 47.167 9.5 61.5 24.5s21.5 35.167 21.5 60.5v39h83v-41
c0 -42.667 -14.833 -78.167 -44.5 -106.5s-70.167 -43.166 -121.5 -44.499v-366h-98v71c-23.333 -30 -51 -51.833 -83 -65.5s-65.667 -20.5 -101 -20.5c-64.667 0 -113 17.167 -145 51.5z" />
    <glyph glyph-name="uni01CD" unicode="&#x1cd;" horiz-adv-x="746" 
d="M187 908h103l84 -107l84 107h102l-142 -166h-89zM324 699h98l279 -699h-104l-70 174h-309l-68 -174h-105zM499 259l-126 327l-126 -327h252z" />
    <glyph glyph-name="uni01CE" unicode="&#x1ce;" horiz-adv-x="569" 
d="M114 701h103l84 -107l84 107h102l-142 -166h-89zM97.5 29.5c-35 29.667 -52.499 69.834 -52.499 120.501c0 53.333 16.833 94.5 50.5 123.5s81.5 43.5 143.5 43.5c66 0 122 -13.333 168 -40v25c0 38 -11.5 66.167 -34.5 84.5s-59.167 27.5 -108.5 27.5
c-29.333 0 -57.833 -2.83301 -85.5 -8.5s-52.5 -13.5 -74.5 -23.5v82c20 9.33301 46 16.833 78 22.5s63 8.5 93 8.5c79.333 0 138.166 -17.5 176.499 -52.5s57.5 -83.5 57.5 -145.5v-297h-95v54c-20.667 -22.667 -45.167 -39.834 -73.5 -51.501s-62.833 -17.5 -103.5 -17.5
c-58 0 -104.5 14.833 -139.5 44.5zM349.001 81c26 12.667 45.332 30.333 57.999 53v65c-43.333 28 -91.666 42 -144.999 42c-38.667 0 -67.5 -7.5 -86.5 -22.5s-28.5 -37.833 -28.5 -68.5c0 -58.667 38.333 -88 115 -88c32 0 61 6.33301 87 19z" />
    <glyph glyph-name="uni01CF" unicode="&#x1cf;" horiz-adv-x="247" 
d="M-63 919h103l84 -107l84 107h102l-142 -166h-89zM84 699h103v-699h-103v699z" />
    <glyph glyph-name="uni01D0" unicode="&#x1d0;" horiz-adv-x="246" 
d="M-64 704h103l84 -107l84 107h102l-142 -166h-89zM84 480h102v-480h-102v480z" />
    <glyph glyph-name="uni01D1" unicode="&#x1d1;" horiz-adv-x="826" 
d="M227 908h103l84 -107l84 107h102l-142 -166h-89zM225 30.5c-56 30.333 -100 73.166 -132 128.499s-48 118.666 -48 189.999s16 134.666 48 189.999s76 98.333 132 129s118.667 46 188 46s132 -15.333 188 -46s100 -73.667 132 -129s48 -118.666 48 -189.999
s-16 -134.666 -48 -189.999s-76 -98.166 -132 -128.499s-118.667 -45.5 -188 -45.5s-132 15.167 -188 45.5zM547.5 110.5c40.333 22.333 72.1699 54 95.5029 95s35 88.833 35 143.5c0 54 -11.5 101.5 -34.5 142.5s-54.5 72.667 -94.5 95s-84.667 33.5 -134 33.5
c-50 0 -95.167 -11 -135.5 -33s-72.333 -53.667 -96 -95s-35.5 -89 -35.5 -143c0 -54.667 11.667 -102.5 35 -143.5s55.166 -72.667 95.499 -95s85.166 -33.5 134.499 -33.5s94.166 11.167 134.499 33.5z" />
    <glyph glyph-name="uni01D2" unicode="&#x1d2;" horiz-adv-x="655" 
d="M150 701h103l84 -107l84 107h102l-142 -166h-89zM193.5 15.5c-41 20.333 -73 49.666 -96 87.999s-34.5 83.5 -34.5 135.5c0 51.333 11.333 96.333 34 135s54.667 68.5 96 89.5s89 31.5 143 31.5s101.667 -10.5 143 -31.5s73.5 -50.833 96.5 -89.5s34.5 -83.667 34.5 -135
c0 -52 -11.5 -97.167 -34.5 -135.5s-55.167 -67.666 -96.5 -87.999s-89 -30.5 -143 -30.5s-101.5 10.167 -142.5 30.5zM460 113c30.667 32 46 74 46 126c0 54 -15.333 96.667 -46 128s-72 47 -124 47s-93.333 -15.667 -124 -47s-46 -74 -46 -128c0 -52 15.333 -94 46 -126
s72 -48 124 -48s93.333 16 124 48z" />
    <glyph glyph-name="uni01D3" unicode="&#x1d3;" horiz-adv-x="697" 
d="M162 908h103l84 -107l84 107h102l-142 -166h-89zM133 58.5c-48.667 49 -72.998 116.499 -72.998 202.499v438h102v-442c0 -59.333 16.667 -104.166 50 -134.499s79 -45.5 137 -45.5c57.333 0 102.666 15.167 135.999 45.5s50 75.166 50 134.499v442h102v-438
c0 -85.333 -24.333 -152.666 -73 -201.999s-120.334 -74 -215.001 -74c-95.333 0 -167.333 24.5 -216 73.5z" />
    <glyph glyph-name="uni01D4" unicode="&#x1d4;" horiz-adv-x="600" 
d="M111 701h103l84 -107l84 107h102l-142 -166h-89zM109.5 37c-33 34.667 -49.5 81 -49.5 139v304h101v-300c0 -76.667 38.333 -115 115 -115c67.333 0 120 30.333 158 91v324h101v-480h-98v68c-22.667 -28.667 -49.5 -49.667 -80.5 -63s-64.5 -20 -100.5 -20
c-64.667 0 -113.5 17.333 -146.5 52z" />
    <glyph glyph-name="uni01D5" unicode="&#x1d5;" horiz-adv-x="697" 
d="M192 990h312v-69h-312v69zM193.5 758c-11.667 11.333 -17.5 25 -17.5 41s5.83301 29.667 17.5 41s25.5 17 41.5 17c15.333 0 28.666 -5.66699 39.999 -17s17 -25 17 -41s-5.66699 -29.667 -17 -41s-24.666 -17 -39.999 -17c-16 0 -29.833 5.66699 -41.5 17zM420.5 758
c-11.667 11.333 -17.5 25 -17.5 41s5.83301 29.667 17.5 41s25.5 17 41.5 17c15.333 0 28.666 -5.66699 39.999 -17s17 -25 17 -41s-5.66699 -29.667 -17 -41s-24.666 -17 -39.999 -17c-16 0 -29.833 5.66699 -41.5 17zM133 58.5
c-48.667 49 -72.998 116.499 -72.998 202.499v438h102v-442c0 -59.333 16.667 -104.166 50 -134.499s79 -45.5 137 -45.5c57.333 0 102.666 15.167 135.999 45.5s50 75.166 50 134.499v442h102v-438c0 -85.333 -24.333 -152.666 -73 -201.999s-120.334 -74 -215.001 -74
c-95.333 0 -167.333 24.5 -216 73.5z" />
    <glyph glyph-name="uni01D6" unicode="&#x1d6;" horiz-adv-x="600" 
d="M141 779h312v-69h-312v69zM143.5 551c-11.667 11.333 -17.5 25 -17.5 41s5.83301 29.667 17.5 41s25.5 17 41.5 17c15.333 0 28.666 -5.66699 39.999 -17s17 -25 17 -41s-5.66699 -29.667 -17 -41s-24.666 -17 -39.999 -17c-16 0 -29.833 5.66699 -41.5 17zM370.5 551
c-11.667 11.333 -17.5 25 -17.5 41s5.83301 29.667 17.5 41s25.5 17 41.5 17c15.333 0 28.666 -5.66699 39.999 -17s17 -25 17 -41s-5.66699 -29.667 -17 -41s-24.666 -17 -39.999 -17c-16 0 -29.833 5.66699 -41.5 17zM109.5 37c-33 34.667 -49.5 81 -49.5 139v304h101
v-300c0 -76.667 38.333 -115 115 -115c67.333 0 120 30.333 158 91v324h101v-480h-98v68c-22.667 -28.667 -49.5 -49.667 -80.5 -63s-64.5 -20 -100.5 -20c-64.667 0 -113.5 17.333 -146.5 52z" />
    <glyph glyph-name="uni01D7" unicode="&#x1d7;" horiz-adv-x="697" 
d="M365 971h90l-70 -125h-77zM191.5 766c-11.667 11.333 -17.5 25 -17.5 41s5.83301 29.667 17.5 41s25.167 17 40.5 17s28.833 -5.66699 40.5 -17s17.5 -25 17.5 -41s-5.83301 -29.667 -17.5 -41s-25.167 -17 -40.5 -17s-28.833 5.66699 -40.5 17zM428.5 766
c-11.667 11.333 -17.5 25 -17.5 41s5.83301 29.667 17.5 41s25.167 17 40.5 17s28.833 -5.66699 40.5 -17s17.5 -25 17.5 -41s-5.83301 -29.667 -17.5 -41s-25.167 -17 -40.5 -17s-28.833 5.66699 -40.5 17zM133 58.5c-48.667 49 -72.998 116.499 -72.998 202.499v438h102
v-442c0 -59.333 16.667 -104.166 50 -134.499s79 -45.5 137 -45.5c57.333 0 102.666 15.167 135.999 45.5s50 75.166 50 134.499v442h102v-438c0 -85.333 -24.333 -152.666 -73 -201.999s-120.334 -74 -215.001 -74c-95.333 0 -167.333 24.5 -216 73.5z" />
    <glyph glyph-name="uni01D8" unicode="&#x1d8;" horiz-adv-x="600" 
d="M307 757h90l-70 -125h-77zM133.5 552c-11.667 11.333 -17.5 25 -17.5 41s5.83301 29.667 17.5 41s25.167 17 40.5 17s28.833 -5.66699 40.5 -17s17.5 -25 17.5 -41s-5.83301 -29.667 -17.5 -41s-25.167 -17 -40.5 -17s-28.833 5.66699 -40.5 17zM370.5 552
c-11.667 11.333 -17.5 25 -17.5 41s5.83301 29.667 17.5 41s25.167 17 40.5 17s28.833 -5.66699 40.5 -17s17.5 -25 17.5 -41s-5.83301 -29.667 -17.5 -41s-25.167 -17 -40.5 -17s-28.833 5.66699 -40.5 17zM109.5 37c-33 34.667 -49.5 81 -49.5 139v304h101v-300
c0 -76.667 38.333 -115 115 -115c67.333 0 120 30.333 158 91v324h101v-480h-98v68c-22.667 -28.667 -49.5 -49.667 -80.5 -63s-64.5 -20 -100.5 -20c-64.667 0 -113.5 17.333 -146.5 52z" />
    <glyph glyph-name="uni01D9" unicode="&#x1d9;" horiz-adv-x="697" 
d="M193 968h85l71 -78l71 78h85l-119 -125h-74zM188.5 758c-11.667 11.333 -17.5 25 -17.5 41s5.83301 29.667 17.5 41s25.167 17 40.5 17s28.833 -5.66699 40.5 -17s17.5 -25 17.5 -41s-5.83301 -29.667 -17.5 -41s-25.167 -17 -40.5 -17s-28.833 5.66699 -40.5 17z
M425.5 758c-11.667 11.333 -17.5 25 -17.5 41s5.83301 29.667 17.5 41s25.167 17 40.5 17s28.833 -5.66699 40.5 -17s17.5 -25 17.5 -41s-5.83301 -29.667 -17.5 -41s-25.167 -17 -40.5 -17s-28.833 5.66699 -40.5 17zM133 58.5c-48.667 49 -72.998 116.499 -72.998 202.499
v438h102v-442c0 -59.333 16.667 -104.166 50 -134.499s79 -45.5 137 -45.5c57.333 0 102.666 15.167 135.999 45.5s50 75.166 50 134.499v442h102v-438c0 -85.333 -24.333 -152.666 -73 -201.999s-120.334 -74 -215.001 -74c-95.333 0 -167.333 24.5 -216 73.5z" />
    <glyph glyph-name="uni01DA" unicode="&#x1da;" horiz-adv-x="600" 
d="M135 761h85l71 -78l71 78h85l-119 -125h-74zM130.5 551c-11.667 11.333 -17.5 25 -17.5 41s5.83301 29.667 17.5 41s25.167 17 40.5 17s28.833 -5.66699 40.5 -17s17.5 -25 17.5 -41s-5.83301 -29.667 -17.5 -41s-25.167 -17 -40.5 -17s-28.833 5.66699 -40.5 17z
M367.5 551c-11.667 11.333 -17.5 25 -17.5 41s5.83301 29.667 17.5 41s25.167 17 40.5 17s28.833 -5.66699 40.5 -17s17.5 -25 17.5 -41s-5.83301 -29.667 -17.5 -41s-25.167 -17 -40.5 -17s-28.833 5.66699 -40.5 17zM109.5 37c-33 34.667 -49.5 81 -49.5 139v304h101v-300
c0 -76.667 38.333 -115 115 -115c67.333 0 120 30.333 158 91v324h101v-480h-98v68c-22.667 -28.667 -49.5 -49.667 -80.5 -63s-64.5 -20 -100.5 -20c-64.667 0 -113.5 17.333 -146.5 52z" />
    <glyph glyph-name="uni01DB" unicode="&#x1db;" horiz-adv-x="697" 
d="M246 963h90l57 -125h-77zM191.5 758c-11.667 11.333 -17.5 25 -17.5 41s5.83301 29.667 17.5 41s25.167 17 40.5 17s28.833 -5.66699 40.5 -17s17.5 -25 17.5 -41s-5.83301 -29.667 -17.5 -41s-25.167 -17 -40.5 -17s-28.833 5.66699 -40.5 17zM428.5 758
c-11.667 11.333 -17.5 25 -17.5 41s5.83301 29.667 17.5 41s25.167 17 40.5 17s28.833 -5.66699 40.5 -17s17.5 -25 17.5 -41s-5.83301 -29.667 -17.5 -41s-25.167 -17 -40.5 -17s-28.833 5.66699 -40.5 17zM133 58.5c-48.667 49 -72.998 116.499 -72.998 202.499v438h102
v-442c0 -59.333 16.667 -104.166 50 -134.499s79 -45.5 137 -45.5c57.333 0 102.666 15.167 135.999 45.5s50 75.166 50 134.499v442h102v-438c0 -85.333 -24.333 -152.666 -73 -201.999s-120.334 -74 -215.001 -74c-95.333 0 -167.333 24.5 -216 73.5z" />
    <glyph glyph-name="uni01DC" unicode="&#x1dc;" horiz-adv-x="600" 
d="M190 756h90l57 -125h-77zM135.5 551c-11.667 11.333 -17.5 25 -17.5 41s5.83301 29.667 17.5 41s25.167 17 40.5 17s28.833 -5.66699 40.5 -17s17.5 -25 17.5 -41s-5.83301 -29.667 -17.5 -41s-25.167 -17 -40.5 -17s-28.833 5.66699 -40.5 17zM372.5 551
c-11.667 11.333 -17.5 25 -17.5 41s5.83301 29.667 17.5 41s25.167 17 40.5 17s28.833 -5.66699 40.5 -17s17.5 -25 17.5 -41s-5.83301 -29.667 -17.5 -41s-25.167 -17 -40.5 -17s-28.833 5.66699 -40.5 17zM109.5 37c-33 34.667 -49.5 81 -49.5 139v304h101v-300
c0 -76.667 38.333 -115 115 -115c67.333 0 120 30.333 158 91v324h101v-480h-98v68c-22.667 -28.667 -49.5 -49.667 -80.5 -63s-64.5 -20 -100.5 -20c-64.667 0 -113.5 17.333 -146.5 52z" />
    <glyph glyph-name="Gcaron" unicode="&#x1e6;" horiz-adv-x="716" 
d="M190 919h103l84 -107l84 107h102l-142 -166h-89zM223 30c-56 30 -99.668 72.5 -131.001 127.5s-47 118.833 -47 191.5s15.667 136.667 47 192s75 98 131 128s120 45 192 45c96.667 0 177 -24 241 -72v-98c-58 50.667 -135.333 76 -232 76c-52.667 0 -100 -11 -142 -33
s-74.833 -53.5 -98.5 -94.5s-35.5 -88.833 -35.5 -143.5s11.667 -102.667 35 -144s55.666 -73 96.999 -95s88 -33 140 -33c60.667 0 110.334 12.333 149.001 37v183h-133v83h235v-320c-31.333 -26 -68.166 -45 -110.499 -57s-90.833 -18 -145.5 -18c-72 0 -136 15 -192 45z
" />
    <glyph glyph-name="gcaron" unicode="&#x1e7;" horiz-adv-x="660" 
d="M110 707h103l84 -107l84 107h102l-142 -166h-89zM220.5 -222c-31 5.33301 -57.165 13.001 -78.498 23.001v83c50 -22.667 108 -34 174 -34c62 0 107.167 13.5 135.5 40.5s42.5 67.833 42.5 122.5v51c-44 -52.667 -108.667 -79 -194 -79
c-48.667 0 -92.334 10.667 -131.001 32s-69 51.333 -91 90s-33 83 -33 133c0 50.667 10.833 95.167 32.5 133.5s51.667 68.166 90 89.499s81.5 32 129.5 32c44.667 0 82.5 -6.5 113.5 -19.5s59.833 -34.5 86.5 -64.5v69h98v-456c0 -82 -22.833 -144.833 -68.5 -188.5
s-115.834 -65.5 -210.501 -65.5c-32.667 0 -64.5 2.66699 -95.5 8zM429.502 98.001c31.667 22 53.167 51.334 64.5 88.001v108c-12.667 37.333 -34.5 66.666 -65.5 87.999s-67.167 32 -108.5 32c-32.667 0 -62.167 -7.16699 -88.5 -21.5s-47 -34.833 -62 -61.5
s-22.5 -57 -22.5 -91c0 -34.667 7.5 -65.167 22.5 -91.5s35.667 -46.833 62 -61.5s55.833 -22 88.5 -22c41.333 0 77.833 11 109.5 33z" />
    <glyph glyph-name="Aringacute" unicode="&#x1fa;" horiz-adv-x="746" 
d="M418 912h-92l68 138h107zM701 0h-104.002l-70 174h-309l-68 -174h-105l269 675c-17.333 9.33301 -31.166 23 -41.499 41s-15.5 37.667 -15.5 59c0 32 11.167 59.333 33.5 82s49.833 34 82.5 34c32 0 59.333 -11.333 82 -34s34 -50 34 -82
c0 -21.333 -5.16699 -40.833 -15.5 -58.5s-24.166 -31.5 -41.499 -41.5zM334.998 813c-10.667 -10.667 -16 -23.334 -16 -38.001c0 -15.333 5.33301 -28.333 16 -39s23.334 -16 38.001 -16s27.334 5.5 38.001 16.5s16 23.833 16 38.5s-5.33301 27.334 -16 38.001
s-23.334 16 -38.001 16s-27.334 -5.33301 -38.001 -16zM498.998 259l-126 327l-126 -327h252z" />
    <glyph glyph-name="aringacute" unicode="&#x1fb;" horiz-adv-x="569" 
d="M319 937h107l-83 -138h-92zM214.5 568.5c-22.333 22.333 -33.5 49.833 -33.5 82.5c0 32 11.167 59.333 33.5 82s49.833 34 82.5 34c32 0 59.333 -11.333 82 -34s34 -50 34 -82c0 -32.667 -11.333 -60.167 -34 -82.5s-50 -33.5 -82 -33.5
c-32.667 0 -60.167 11.167 -82.5 33.5zM335 612.5c10.667 11 16 23.833 16 38.5s-5.33301 27.334 -16 38.001s-23.334 16 -38.001 16s-27.334 -5.33301 -38.001 -16s-16 -23.334 -16 -38.001c0 -15.333 5.33301 -28.333 16 -39s23.334 -16 38.001 -16
s27.334 5.5 38.001 16.5zM97.5 29.5c-35 29.667 -52.499 69.834 -52.499 120.501c0 53.333 16.833 94.5 50.5 123.5s81.5 43.5 143.5 43.5c66 0 122 -13.333 168 -40v25c0 38 -11.5 66.167 -34.5 84.5s-59.167 27.5 -108.5 27.5c-29.333 0 -57.833 -2.83301 -85.5 -8.5
s-52.5 -13.5 -74.5 -23.5v82c20 9.33301 46 16.833 78 22.5s63 8.5 93 8.5c79.333 0 138.166 -17.5 176.499 -52.5s57.5 -83.5 57.5 -145.5v-297h-95v54c-20.667 -22.667 -45.167 -39.834 -73.5 -51.501s-62.833 -17.5 -103.5 -17.5c-58 0 -104.5 14.833 -139.5 44.5z
M349.001 81c26 12.667 45.332 30.333 57.999 53v65c-43.333 28 -91.666 42 -144.999 42c-38.667 0 -67.5 -7.5 -86.5 -22.5s-28.5 -37.833 -28.5 -68.5c0 -58.667 38.333 -88 115 -88c32 0 61 6.33301 87 19z" />
    <glyph glyph-name="AEacute" unicode="&#x1fc;" horiz-adv-x="922" 
d="M579 913h107l-83 -172h-92zM388 699h489v-86h-320v-221h229v-85h-229v-222h320v-85h-422v179h-215l-87 -179h-108zM455 259v348h-8l-166 -348h174z" />
    <glyph glyph-name="aeacute" unicode="&#x1fd;" horiz-adv-x="972" 
d="M495 706h107l-83 -172h-92zM97.5 29c-35 29.333 -52.4971 69.668 -52.4971 121.001c0 53.333 16.833 94.5 50.5 123.5s81.5 43.5 143.5 43.5c66 0 122 -13.333 168 -40v25c0 38 -11.5 66.167 -34.5 84.5s-59.167 27.5 -108.5 27.5c-29.333 0 -57.833 -2.83301 -85.5 -8.5
s-52.5 -13.5 -74.5 -23.5v82c20 9.33301 46 16.833 78 22.5s63 8.5 93 8.5c88 0 152 -26.667 192 -80c22.667 25.333 51 45 85 59s72.667 21 116 21c55.333 0 102.5 -10.5 141.5 -31.5s68.333 -50 88 -87s29.5 -79.167 29.5 -126.5v-50h-420
c3.33301 -46 22.166 -80 56.499 -102s81.166 -33 140.499 -33c31.333 0 62.5 2.83301 93.5 8.5s58.5 13.167 82.5 22.5v-81c-21.333 -8.66699 -49.5 -15.834 -84.5 -21.501s-69.5 -8.5 -103.5 -8.5c-98.667 0 -174.334 29.667 -227.001 89c-26 -28.667 -57 -50.667 -93 -66
s-79.667 -23 -131 -23c-60.667 0 -108.5 14.667 -143.5 44zM831.003 271.002c-1.33301 45.333 -16.001 80.5 -44.001 105.5s-68 37.5 -120 37.5c-50.667 0 -89.667 -13 -117 -39s-41.666 -60.667 -42.999 -104h324zM348.502 80.502c25.667 12.333 45.166 29.833 58.499 52.5
v66c-43.333 28 -91.666 42 -144.999 42c-38.667 0 -67.5 -7.5 -86.5 -22.5s-28.5 -37.833 -28.5 -68.5c0 -58.667 38.333 -88 115 -88c32 0 60.833 6.16699 86.5 18.5z" />
    <glyph glyph-name="Oslashacute" unicode="&#x1fe;" horiz-adv-x="826" 
d="M431 920h107l-83 -172h-93zM236 25c-58.667 30 -105.167 73.167 -139.5 129.5s-51.5 121.166 -51.5 194.499c0 71.333 16 134.666 48 189.999s76 98.333 132 129s118.667 46 188 46c32 0 63.667 -3.66699 95 -11l33 81h100l-46 -113c58 -30 103.5 -73 136.5 -129
s49.5 -120.333 49.5 -193c0 -71.333 -16 -134.666 -48 -189.999s-76 -98.166 -132 -128.499s-118.667 -45.5 -188 -45.5c-28 0 -58 3.33301 -90 10l-32 -81h-100zM472 614c-19.333 4 -39 5.99902 -59 5.99902c-50 0 -95 -11.167 -135 -33.5s-71.667 -54 -95 -95
s-35 -88.5 -35 -142.5c0 -52.667 11 -99.167 33 -139.5s52 -72.166 90 -95.499zM547.5 110.499c40.333 22.333 72.168 54 95.501 95s35 88.833 35 143.5c0 51.333 -10.667 96.833 -32 136.5s-50.333 71.167 -87 94.5l-201 -498c14.667 -3.33301 33 -5 55 -5
c49.333 0 94.166 11.167 134.499 33.5z" />
    <glyph glyph-name="oslashacute" unicode="&#x1ff;" horiz-adv-x="637" 
d="M311 706h107l-83 -172h-92zM176 15c-41.333 20.667 -73.501 50.166 -96.501 88.499s-34.5 83.5 -34.5 135.5c0 51.333 11.333 96.333 34 135s54.667 68.5 96 89.5s89 31.5 143 31.5c12 0 28.667 -1.33301 50 -4l30 75h100l-41 -101
c42.667 -20.667 75.834 -50.5 99.501 -89.5s35.5 -84.5 35.5 -136.5s-11.5 -97.167 -34.5 -135.5s-55.167 -67.666 -96.5 -87.999s-89 -30.5 -143 -30.5c-20.667 0 -38 1.33301 -52 4l-30 -75h-100zM335.999 412.999c-4 0.666992 -10 1 -18 1
c-52 0 -93.333 -15.667 -124 -47s-46 -74 -46 -128c0 -30.667 5.33301 -58 16 -82s26 -43.667 46 -59zM441.999 112.999c30.667 32 46 74.001 46 126.001c0 32 -5.5 60.167 -16.5 84.5s-26.833 44.166 -47.5 59.499l-127 -317c4.66699 -0.666992 11.667 -1 21 -1
c52 0 93.333 16 124 48z" />
    <glyph glyph-name="Scommaaccent" unicode="&#x218;" horiz-adv-x="561" 
d="M140.5 -4.5c-39 7 -70.833 16.499 -95.5 28.499v92c64 -30 133 -45 207 -45c104 0 156 35 156 105c0 24 -5.66699 43.333 -17 58s-27.666 27.5 -48.999 38.5s-56 26.167 -104 45.5c-66 26.667 -113.667 56 -143 88s-44 72.333 -44 121c0 36.667 10 69.167 30 97.5
s48 50.333 84 66s77.333 23.5 124 23.5c38 0 72.333 -3 103 -9s60.667 -15.667 90 -29v-88c-58 26 -116.667 39 -176 39c-48 0 -84.667 -8.66699 -110 -26s-38 -42 -38 -74c0 -22 5.5 -40.5 16.5 -55.5s27.333 -28.333 49 -40s53.834 -26.167 96.501 -43.5
c47.333 -19.333 84.666 -37.666 111.999 -54.999s48.166 -38.5 62.499 -63.5s21.5 -56.167 21.5 -93.5c0 -60.667 -21.667 -107.667 -65 -141s-107.333 -50 -192 -50c-40 0 -79.5 3.5 -118.5 10.5zM222 -60.001h106l-95 -199h-93z" />
    <glyph glyph-name="scommaaccent" unicode="&#x219;" horiz-adv-x="489" 
d="M136 -2.5c-37.333 8.33301 -66.6719 19.501 -88.0049 33.501v86c26 -15.333 56 -27.833 90 -37.5s67 -14.5 99 -14.5c36 0 62.333 4.33301 79 13s25 22.667 25 42c0 14.667 -3.83301 26.5 -11.5 35.5s-20.667 17.167 -39 24.5s-45.833 16 -82.5 26
c-39.333 11.333 -70.5 22.833 -93.5 34.5s-40.333 26.5 -52 44.5s-17.5 41.333 -17.5 70c0 46 18.167 80.833 54.5 104.5s85.166 35.5 146.499 35.5c32 0 63.333 -3 94 -9s55.334 -14.333 74.001 -25v-84c-19.333 11.333 -43.166 20.333 -71.499 27s-57.166 10 -86.499 10
c-35.333 0 -62.333 -4.33301 -81 -13s-28 -24 -28 -46c0 -14 4 -25.333 12 -34s20.833 -16.167 38.5 -22.5s45.834 -14.5 84.501 -24.5c60.667 -16.667 102.834 -36.334 126.501 -59.001s35.5 -54 35.5 -94c0 -41.333 -17 -74.333 -51 -99s-84.333 -37 -151 -37
c-33.333 0 -68.666 4.16699 -105.999 12.5zM194.994 -59.999h106l-95 -199h-93z" />
    <glyph glyph-name="uni021A" unicode="&#x21a;" horiz-adv-x="587" 
d="M242 613h-217v86h537v-86h-217v-613h-103v613zM238 -60h106l-95 -200h-92z" />
    <glyph glyph-name="uni021B" unicode="&#x21b;" horiz-adv-x="374" 
d="M137.5 27c-26.333 28 -39.5 67.667 -39.5 119v256h-73v78h73v144h102v-144h118v-78h-118v-249c0 -32 6.16699 -54.667 18.5 -68s34.833 -20 67.5 -20c19.333 0 38.666 4.33301 57.999 13v-80c-25.333 -8.66699 -56.666 -13 -93.999 -13c-48.667 0 -86.167 14 -112.5 42z
M186 -60h106l-95 -200h-92z" />
    <glyph glyph-name="uni0237" unicode="&#x237;" horiz-adv-x="241" 
d="M-70 -220v83c17.333 -8 37.333 -12 60 -12c30 0 51.5 7.16699 64.5 21.5s19.5 37.5 19.5 69.5v538h102v-545c0 -55.333 -15.333 -96.833 -46 -124.5s-72 -41.5 -124 -41.5c-30 0 -55.333 3.66699 -76 11z" />
    <glyph glyph-name="uni0251" unicode="&#x251;" horiz-adv-x="660" 
d="M167.5 16.5c-38.333 21 -68.333 50.666 -90 88.999s-32.5 82.833 -32.5 133.5c0 50 10.833 94.333 32.5 133s51.667 68.834 90 90.501s81.5 32.5 129.5 32.5c86.667 0 152.334 -26.333 197.001 -79v64h101v-480h-98v70c-26.667 -29.333 -55.834 -50.833 -87.501 -64.5
s-69.167 -20.5 -112.5 -20.5c-48 0 -91.167 10.5 -129.5 31.5zM428.5 97.499c31 21.667 52.833 50.834 65.5 87.501v108c-11.333 36.667 -32.833 66 -64.5 88s-68.167 33 -109.5 33c-32.667 0 -62.167 -7.33301 -88.5 -22s-47 -35.334 -62 -62.001s-22.5 -57 -22.5 -91
s7.5 -64.333 22.5 -91s35.667 -47.167 62 -61.5s55.833 -21.5 88.5 -21.5c41.333 0 77.5 10.833 108.5 32.5z" />
    <glyph glyph-name="uni0259" unicode="&#x259;" horiz-adv-x="608" 
d="M162 16.5c-38.667 21 -67.833 49.999 -87.5 86.999s-29.5 78.833 -29.5 125.5v50h422c-3.33301 46 -22.5 80.167 -57.5 102.5s-82.5 33.5 -142.5 33.5c-30.667 0 -61.667 -2.83301 -93 -8.5s-59 -13.167 -83 -22.5v81c21.333 8.66699 49.5 15.834 84.5 21.501
s69.5 8.5 103.5 8.5c88.667 0 158.167 -22.333 208.5 -67s75.5 -107 75.5 -187c0 -78.667 -22.5 -141 -67.5 -187s-109.167 -69 -192.5 -69c-55.333 0 -102.333 10.5 -141 31.5zM423.001 104.499c28 26.333 42.668 61.166 44.001 104.499h-327
c1.33301 -45.333 16.166 -80.666 44.499 -105.999s68.5 -38 120.5 -38c50.667 0 90 13.167 118 39.5z" />
    <glyph glyph-name="uni02BB" unicode="&#x2bb;" horiz-adv-x="256" 
d="M123 714h88l-67 -195h-99z" />
    <glyph glyph-name="uni02BC" unicode="&#x2bc;" horiz-adv-x="256" 
d="M111 714h100l-79 -195h-87z" />
    <glyph glyph-name="uni02BE" unicode="&#x2be;" 
d="M-71 608c23.333 0 41 4.83496 53 14.502s18 25.5 18 47.5s-6 37.833 -18 47.5s-29.667 14.5 -53 14.5v73c43.333 0 78.166 -11.333 104.499 -34s39.5 -56.334 39.5 -101.001s-13.167 -78.334 -39.5 -101.001s-61.166 -34 -104.499 -34v73z" />
    <glyph glyph-name="uni02BF" unicode="&#x2bf;" 
d="M-31.5 569c-26.333 22.667 -39.5 56.332 -39.5 100.999s13.167 78.334 39.5 101.001s61.166 34 104.499 34v-73c-23.333 0 -41 -4.83301 -53 -14.5s-18 -25.5 -18 -47.5s6 -37.833 18 -47.5s29.667 -14.5 53 -14.5v-73c-43.333 0 -78.166 11.333 -104.499 34z" />
    <glyph glyph-name="circumflex" unicode="&#x2c6;" horiz-adv-x="463" 
d="M187 761h89l142 -166h-102l-84 106l-84 -106h-103z" />
    <glyph glyph-name="caron" unicode="&#x2c7;" horiz-adv-x="463" 
d="M45 764h103l84 -107l84 107h102l-142 -166h-89z" />
    <glyph glyph-name="uni02C8" unicode="&#x2c8;" 
d="M-42 756h82v-174h-82v174z" />
    <glyph glyph-name="uni02C9" unicode="&#x2c9;" horiz-adv-x="589" 
d="M135 674h319v-70h-319v70z" />
    <glyph glyph-name="uni02CA" unicode="&#x2ca;" 
d="M-20 760h107l-83 -172h-93z" />
    <glyph glyph-name="uni02CB" unicode="&#x2cb;" 
d="M-6 760h92l-68 -172h-107z" />
    <glyph glyph-name="uni02CC" unicode="&#x2cc;" 
d="M-42 -64h82v-173h-82v173z" />
    <glyph glyph-name="breve" unicode="&#x2d8;" horiz-adv-x="390" 
d="M85.5 612c-27 26 -40.5 59.667 -40.5 101h77c0 -22.667 6.33301 -40.167 19 -52.5s30.667 -18.5 54 -18.5s41.333 6.16699 54 18.5s19 29.833 19 52.5h77c0 -41.333 -13.5 -75 -40.5 -101s-63.5 -39 -109.5 -39s-82.5 13 -109.5 39z" />
    <glyph glyph-name="dotaccent" unicode="&#x2d9;" horiz-adv-x="206" 
d="M62.5 602c-11.667 11.333 -17.5 25 -17.5 41s5.83301 29.667 17.5 41s25.167 17 40.5 17s28.833 -5.66699 40.5 -17s17.5 -25 17.5 -41s-5.83301 -29.667 -17.5 -41s-25.167 -17 -40.5 -17s-28.833 5.66699 -40.5 17z" />
    <glyph glyph-name="ring" unicode="&#x2da;" horiz-adv-x="322" 
d="M78.5 578.5c-22.333 22.333 -33.5 49.833 -33.5 82.5c0 32 11.167 59.333 33.5 82s49.833 34 82.5 34c32 0 59.333 -11.333 82 -34s34 -50 34 -82c0 -32.667 -11.333 -60.167 -34 -82.5s-50 -33.5 -82 -33.5c-32.667 0 -60.167 11.167 -82.5 33.5zM199 622.5
c10.667 11 16 23.833 16 38.5s-5.33301 27.334 -16 38.001s-23.334 16 -38.001 16s-27.334 -5.33301 -38.001 -16s-16 -23.334 -16 -38.001c0 -15.333 5.33301 -28.333 16 -39s23.334 -16 38.001 -16s27.334 5.5 38.001 16.5z" />
    <glyph glyph-name="ogonek" unicode="&#x2db;" horiz-adv-x="271" 
d="M74.5 -189c-19.667 15.333 -29.5 37.667 -29.5 67c0 24.667 6.83301 47.667 20.5 69s31.5 39 53.5 53h94c-26.667 -17.333 -46.5 -34.333 -59.5 -51s-19.5 -35 -19.5 -55c0 -28.667 15 -43 45 -43c16 0 31.667 3.33301 47 10v-61c-22 -8 -47.667 -12 -77 -12
c-30 0 -54.833 7.66699 -74.5 23z" />
    <glyph glyph-name="tilde" unicode="&#x2dc;" horiz-adv-x="470" 
d="M45 685c20.667 28.667 52.998 42.999 96.998 42.999c14.667 0 28.834 -2 42.501 -6s31.167 -10.333 52.5 -19c18 -8 33.833 -14.167 47.5 -18.5s27.834 -6.5 42.501 -6.5c20 0 38 3.83301 54 11.5s30.667 20.834 44 39.501v-86c-20 -28 -52.667 -42 -98 -42
c-16.667 0 -32.5 2.16699 -47.5 6.5s-32.167 10.833 -51.5 19.5c-19.333 8 -35 14 -47 18s-25 6 -39 6c-19.333 0 -36.833 -4 -52.5 -12s-30.5 -21.333 -44.5 -40v86z" />
    <glyph glyph-name="hungarumlaut" unicode="&#x2dd;" horiz-adv-x="467" 
d="M114 753h101l-83 -172h-87zM320 753h102l-83 -172h-87z" />
    <glyph glyph-name="gravecomb" unicode="&#x300;" 
d="M-463 760h107l69 -172h-93z" />
    <glyph glyph-name="acutecomb" unicode="&#x301;" 
d="M-280 760h107l-83 -172h-92z" />
    <glyph glyph-name="uni0302" unicode="&#x302;" 
d="M-45 758h89l142 -166h-102l-84 107l-84 -107h-103z" />
    <glyph glyph-name="tildecomb" unicode="&#x303;" 
d="M-499 685c20.667 28.667 53.3311 42.999 97.998 42.999c14.667 0 28.834 -2 42.501 -6s31.167 -10.333 52.5 -19c18 -8 33.833 -14.167 47.5 -18.5s27.834 -6.5 42.501 -6.5c20 0 38 3.83301 54 11.5s30.333 20.834 43 39.501v-86c-20 -28 -52.333 -42 -97 -42
c-16.667 0 -32.5 2.16699 -47.5 6.5s-32.167 10.833 -51.5 19.5c-19.333 8 -35 14 -47 18s-25 6 -39 6c-19.333 0 -37 -3.83301 -53 -11.5s-31 -21.167 -45 -40.5v86z" />
    <glyph glyph-name="uni0304" unicode="&#x304;" 
d="M-151 673h312v-69h-312v69z" />
    <glyph glyph-name="uni0306" unicode="&#x306;" 
d="M-110.5 612c-27 26 -40.5 59.667 -40.5 101h78c0 -22.667 6.33301 -40.167 19 -52.5s30.667 -18.5 54 -18.5s41.333 6.16699 54 18.5s19 29.833 19 52.5h77c0 -41.333 -13.5 -75 -40.5 -101s-63.5 -39 -109.5 -39c-46.667 0 -83.5 13 -110.5 39z" />
    <glyph glyph-name="uni0307" unicode="&#x307;" 
d="M-41.5 602c-11.667 11.333 -17.5 25 -17.5 41s5.83301 29.667 17.5 41s25.5 17 41.5 17c15.333 0 28.666 -5.66699 39.999 -17s17 -25 17 -41s-5.66699 -29.667 -17 -41s-24.666 -17 -39.999 -17c-16 0 -29.833 5.66699 -41.5 17z" />
    <glyph glyph-name="uni0308" unicode="&#x308;" 
d="M-155.5 602c-11.667 11.333 -17.5 25 -17.5 41s5.83301 29.667 17.5 41s25.5 17 41.5 17c15.333 0 28.666 -5.66699 39.999 -17s17 -25 17 -41s-5.66699 -29.667 -17 -41s-24.666 -17 -39.999 -17c-16 0 -29.833 5.66699 -41.5 17zM71.5 602
c-11.667 11.333 -17.5 25 -17.5 41s5.83301 29.667 17.5 41s25.5 17 41.5 17c15.333 0 28.666 -5.66699 39.999 -17s17 -25 17 -41s-5.66699 -29.667 -17 -41s-24.666 -17 -39.999 -17c-16 0 -29.833 5.66699 -41.5 17z" />
    <glyph glyph-name="hookabovecomb" unicode="&#x309;" 
d="M-397 637c31.333 0 54.5 4.16699 69.5 12.5s22.5 21.833 22.5 40.5c0 15.333 -5.16699 26.5 -15.5 33.5s-27.166 10.5 -50.499 10.5c-8.66699 0 -19.834 -1.16699 -33.501 -3.5s-23.5 -4.83301 -29.5 -7.5v55c10.667 3.33301 24 6.33301 40 9s31.667 4 47 4
c42.667 0 75.167 -8.83301 97.5 -26.5s33.5 -41.167 33.5 -70.5c0 -24.667 -8 -45.5 -24 -62.5s-38.667 -27.5 -68 -31.5v-34h-89v71z" />
    <glyph glyph-name="uni030A" unicode="&#x30a;" 
d="M-82.5 578.5c-22.333 22.333 -33.5 49.833 -33.5 82.5c0 32 11.167 59.333 33.5 82s49.833 34 82.5 34c32 0 59.333 -11.333 82 -34s34 -50 34 -82c0 -32.667 -11.333 -60.167 -34 -82.5s-50 -33.5 -82 -33.5c-32.667 0 -60.167 11.167 -82.5 33.5zM38 622.5
c10.667 11 16 23.833 16 38.5s-5.33301 27.334 -16 38.001s-23.334 16 -38.001 16s-27.334 -5.33301 -38.001 -16s-16 -23.334 -16 -38.001c0 -15.333 5.33301 -28.333 16 -39s23.334 -16 38.001 -16s27.334 5.5 38.001 16.5z" />
    <glyph glyph-name="uni030B" unicode="&#x30b;" 
d="M-130 760h102l-83 -172h-87zM77 760h102l-83 -172h-88z" />
    <glyph glyph-name="uni030C" unicode="&#x30c;" 
d="M-187 758h103l84 -107l84 107h102l-142 -166h-89z" />
    <glyph glyph-name="uni031B" unicode="&#x31b;" 
d="M-84 626c30 0 53 7.66699 69 23s24 36 24 62v36h81v-41c0 -43.333 -15.5 -79.333 -46.5 -108s-73.5 -43 -127.5 -43v71z" />
    <glyph glyph-name="dotbelowcomb" unicode="&#x323;" 
d="M-41.5 -149c-11.667 11.333 -17.5 25 -17.5 41s5.83301 29.667 17.5 41s25.5 17 41.5 17c15.333 0 28.666 -5.66699 39.999 -17s17 -25 17 -41s-5.66699 -29.667 -17 -41s-24.666 -17 -39.999 -17c-16 0 -29.833 5.66699 -41.5 17z" />
    <glyph glyph-name="uni0324" unicode="&#x324;" 
d="M-149.5 -149c-11.667 11.333 -17.5 25 -17.5 41s5.83301 29.667 17.5 41s25.167 17 40.5 17s28.833 -5.66699 40.5 -17s17.5 -25 17.5 -41s-5.83301 -29.667 -17.5 -41s-25.167 -17 -40.5 -17s-28.833 5.66699 -40.5 17zM66.5 -149c-11.667 11.333 -17.5 25 -17.5 41
s5.83301 29.667 17.5 41s25.167 17 40.5 17s28.833 -5.66699 40.5 -17s17.5 -25 17.5 -41s-5.83301 -29.667 -17.5 -41s-25.167 -17 -40.5 -17s-28.833 5.66699 -40.5 17z" />
    <glyph glyph-name="uni0326" unicode="&#x326;" 
d="M-151 -60h106l-95 -200h-92z" />
    <glyph glyph-name="uni0327" unicode="&#x327;" 
d="M-103 -237l1 58c6.66699 -3.33301 15.5 -6 26.5 -8s21.167 -3 30.5 -3c42.667 0 64 15.333 64 46c0 36.667 -33.667 55 -101 55l34 89h92l-22 -56c30 -4 52.667 -14.167 68 -30.5s23 -37.833 23 -64.5c0 -29.333 -12 -52.833 -36 -70.5s-56.667 -26.5 -98 -26.5
c-36.667 0 -64 3.66699 -82 11z" />
    <glyph glyph-name="uni0328" unicode="&#x328;" 
d="M-58 -189c-19.333 15.333 -29 37.667 -29 67c0 24.667 6.83301 47.667 20.5 69s31.5 39 53.5 53h94c-26.667 -17.333 -46.5 -34.333 -59.5 -51s-19.5 -35 -19.5 -55c0 -28.667 14.667 -43 44 -43c16.667 0 32.667 3.33301 48 10v-61c-22 -8 -47.667 -12 -77 -12
c-30.667 0 -55.667 7.66699 -75 23z" />
    <glyph glyph-name="uni032E" unicode="&#x32e;" 
d="M-110.5 -163c-27 26 -40.5 60 -40.5 102h78c0 -22.667 6.5 -40.334 19.5 -53.001s30.833 -19 53.5 -19s40.5 6.33301 53.5 19s19.5 30.334 19.5 53.001h77c0 -42 -13.5 -76 -40.5 -102s-63.5 -39 -109.5 -39c-46.667 0 -83.5 13 -110.5 39z" />
    <glyph glyph-name="uni0331" unicode="&#x331;" 
d="M-152 -71h314v-70h-314v70z" />
    <glyph glyph-name="uni0394" unicode="&#x394;" horiz-adv-x="687" 
d="M45 73l252 641h93l252 -641v-73h-597v73zM545 84l-202 517l-202 -517h404z" />
    <glyph glyph-name="uni03A9" unicode="&#x3a9;" horiz-adv-x="820" 
d="M45 85l139 0.000976562c-42 30 -75.5 68.5 -100.5 115.5s-37.5 99.5 -37.5 157.5c0 68.667 15 130 45 184s72.5 96.167 127.5 126.5s118.833 45.5 191.5 45.5c72 0 135.5 -15.167 190.5 -45.5s97.667 -72.5 128 -126.5s45.5 -115.333 45.5 -184
c0 -58 -12.5 -110.333 -37.5 -157s-58.5 -85.334 -100.5 -116.001h139v-85h-284v80c62 34.667 107.5 74.167 136.5 118.5s43.5 97.5 43.5 159.5c0 51.333 -11.167 96.833 -33.5 136.5s-53.333 70.5 -93 92.5s-84.5 33 -134.5 33s-94.833 -11 -134.5 -33
s-70.667 -52.833 -93 -92.5s-33.5 -85.167 -33.5 -136.5c0 -62 14.333 -115.167 43 -159.5s74 -83.833 136 -118.5v-80h-283v85z" />
    <glyph glyph-name="uni03BC" unicode="&#x3bc;" horiz-adv-x="605" 
d="M65 480h101v-303c0 -74.667 38.333 -112 115 -112c67.333 0 120 30.333 158 91v324h101v-480h-98v68c-22.667 -28.667 -49.5 -49.667 -80.5 -63s-64.5 -20 -100.5 -20c-38 0 -69.667 7.33301 -95 22v-226h-101v699z" />
    <glyph glyph-name="pi" unicode="&#x3c0;" horiz-adv-x="697" 
d="M423 153v241h-191v-394h-103v394h-94v86h585v-86h-94v-238c0 -31.333 5.66699 -54 17 -68s31.333 -21 60 -21c24 0 43.667 3.66699 59 11v-82c-22 -7.33301 -48 -11 -78 -11c-107.333 0 -161 56 -161 168z" />
    <glyph glyph-name="uni0E01" unicode="&#xe01;" horiz-adv-x="640" 
d="M95 333l-49.999 80.999c35.333 44.667 75.666 78.5 120.999 101.5s99 34.5 161 34.5c80 0 141.333 -18.167 184 -54.5s64 -87.166 64 -152.499v-343h-102v335c0 46 -12.167 79.833 -36.5 101.5s-60.833 32.5 -109.5 32.5c-36.667 0 -69 -5.5 -97 -16.5
s-53.333 -28.5 -76 -52.5l43 -67v-333h-102v333z" />
    <glyph glyph-name="uni0E02" unicode="&#xe02;" horiz-adv-x="582" 
d="M160 10c-35.333 16.667 -62.5 40.1641 -81.5 70.4971s-28.5 65.166 -28.5 104.499v34c0 22.667 4.66699 43.334 14 62.001s23 40.334 41 65.001c12.667 16.667 22 30.5 28 41.5s9 21.5 9 31.5c0 12.667 -3.16699 21.667 -9.5 27s-16.833 8 -31.5 8h-56v81h105
c29.333 0 52.5 -8.5 69.5 -25.5s25.5 -39.5 25.5 -67.5c0 -19.333 -4 -37.166 -12 -53.499s-20 -36.166 -36 -59.499c-16 -24 -27.5 -43.333 -34.5 -58s-10.5 -30.667 -10.5 -48v-37c0 -38.667 11.167 -68.5 33.5 -89.5s55.5 -31.5 99.5 -31.5s76.667 10.833 98 32.5
s32 52.167 32 91.5v346h102v-329c0 -68.667 -20.333 -122.667 -61 -162s-97.667 -59 -171 -59c-48 0 -89.667 8.33301 -125 25z" />
    <glyph glyph-name="uni0E03" unicode="&#xe03;" horiz-adv-x="589" 
d="M166 9.5c-35.333 16.333 -62.332 39.498 -80.999 69.498s-28 64.667 -28 104v39c0 21.333 5.66699 41.333 17 60s27.666 41.334 48.999 68.001c14 16.667 24.333 30 31 40s10 19.333 10 28v3c-13.333 -7.33301 -29.333 -11 -48 -11c-22.667 0 -40.167 6.5 -52.5 19.5
s-18.5 32.167 -18.5 57.5v48h73v-35c0 -10.667 2.5 -18.5 7.5 -23.5s13.167 -7.5 24.5 -7.5c13.333 0 24.333 4.33301 33 13v53h79v-91c0 -21.333 -5 -41.666 -15 -60.999s-24 -41 -42 -65c-16 -22 -27.667 -40.167 -35 -54.5s-11 -28.5 -11 -42.5v-36
c0 -38 11 -67.5 33 -88.5s55 -31.5 99 -31.5c44.667 0 77.667 10.833 99 32.5s32 52.167 32 91.5v346h102v-329c0 -68.667 -20.333 -122.667 -61 -162s-98 -59 -172 -59c-48 0 -89.667 8.16699 -125 24.5z" />
    <glyph glyph-name="uni0E04" unicode="&#xe04;" horiz-adv-x="639" 
d="M65 331c0 69.333 22.668 123.167 68.001 161.5s107.666 57.5 186.999 57.5c78.667 0 140.667 -19 186 -57s68 -92 68 -162v-331h-102v334c0 45.333 -13.333 79.166 -40 101.499s-64 33.5 -112 33.5c-48.667 0 -86.334 -11.167 -113.001 -33.5s-40 -56.166 -40 -101.499
v-102c8.66699 16 22.334 28.833 41.001 38.5s40.667 14.5 66 14.5h80v-84h-88c-28 0 -51.5 -9.83301 -70.5 -29.5s-28.5 -42.167 -28.5 -67.5v-104h-102v331z" />
    <glyph glyph-name="uni0E05" unicode="&#xe05;" horiz-adv-x="639" 
d="M65 367c0 57.333 10.9971 102.166 32.9971 134.499s59 48.5 111 48.5c26.667 0 49.334 -5.33301 68.001 -16s32.667 -25.667 42 -45c10 20 24.5 35.167 43.5 45.5s41.5 15.5 67.5 15.5c52 0 89 -16.167 111 -48.5s33 -77.166 33 -134.499v-367h-102v381
c0 30.667 -4.16699 53 -12.5 67s-24.166 21 -47.499 21c-18 0 -31.667 -4.83301 -41 -14.5s-16.666 -25.5 -21.999 -47.5h-60c-4.66699 22 -11.5 37.833 -20.5 47.5s-22.833 14.5 -41.5 14.5c-22.667 0 -38.334 -7 -47.001 -21s-13 -36 -13 -66v-150
c8.66699 16 22.334 28.833 41.001 38.5s40.667 14.5 66 14.5h80v-84h-88c-28 0 -51.5 -9.66699 -70.5 -29s-28.5 -42 -28.5 -68v-104h-102v367z" />
    <glyph glyph-name="uni0E06" unicode="&#xe06;" horiz-adv-x="620" 
d="M244.5 6.5c-33.667 14.333 -63.499 36.167 -89.499 65.5v-72h-98v212c0 22.667 5.66699 44 17 64s28 44.333 50 73c13.333 16 23.333 29.5 30 40.5s10 20.5 10 28.5v3c-13.333 -7.33301 -29.333 -11 -48 -11c-22.667 0 -40.167 6.5 -52.5 19.5s-18.5 32.167 -18.5 57.5
v48h73v-35c0 -10.667 2.5 -18.5 7.5 -23.5s13.167 -7.5 24.5 -7.5c13.333 0 24.333 4.33301 33 13v53h79v-93c0 -20.667 -4.83301 -40.334 -14.5 -59.001s-23.5 -41 -41.5 -67c-16.667 -24 -28.667 -43.167 -36 -57.5s-11 -29.166 -11 -44.499v-57
c39.333 -61.333 93.333 -92 162 -92c88 0 132 40.333 132 121v349h102v-353c0 -58 -18.333 -105.333 -55 -142s-87.334 -55 -152.001 -55c-35.333 0 -69.833 7.16699 -103.5 21.5z" />
    <glyph glyph-name="uni0E07" unicode="&#xe07;" horiz-adv-x="619" 
d="M45 468h101.999l127 -388c62.667 0 111 17.333 145 52s51 83.667 51 147c0 62.667 -11.667 110 -35 142s-60.666 48 -111.999 48c-24 0 -47.333 -3 -70 -9v79c26.667 7.33301 55.667 11 87 11c76 0 134 -24 174 -72s60 -114.333 60 -199c0 -58 -12.5 -108 -37.5 -150
s-58.833 -74 -101.5 -96s-90 -33 -142 -33h-96z" />
    <glyph glyph-name="uni0E08" unicode="&#xe08;" horiz-adv-x="587" 
d="M72 294l100.998 0.000976562l52 -214c64.667 0 116.5 17.5 155.5 52.5s58.5 83.5 58.5 145.5c0 67.333 -16 116 -48 146s-84.667 45 -158 45c-33.333 0 -67.166 -3.16699 -101.499 -9.5s-63.166 -14.833 -86.499 -25.5v80c24.667 11.333 54.834 20.166 90.501 26.499
s72.167 9.5 109.5 9.5c94.667 0 167.834 -22.667 219.501 -68s77.5 -113.333 77.5 -204c0 -52.667 -13.333 -100.167 -40 -142.5s-62.834 -75.5 -108.501 -99.5s-95.834 -36 -150.501 -36h-99z" />
    <glyph glyph-name="uni0E09" unicode="&#xe09;" horiz-adv-x="608" 
d="M109.5 36.5c-33.667 34.333 -50.501 81.498 -50.501 141.498v128h102v-122c0 -40 10.167 -69.833 30.5 -89.5s51.5 -29.5 93.5 -29.5c68 0 120 30.667 156 92v132c0 62 -14.333 107.5 -43 136.5s-78.334 43.5 -149.001 43.5c-36 0 -73 -3.16699 -111 -9.5
s-69 -14.833 -93 -25.5v80c24.667 10.667 56.834 19.334 96.501 26.001s78.5 10 116.5 10c98.667 0 170.834 -21.5 216.501 -64.5s68.5 -107.167 68.5 -192.5v-293h-98v72c-22 -29.333 -49.5 -51.166 -82.5 -65.499s-68.5 -21.5 -106.5 -21.5
c-64 0 -112.833 17.167 -146.5 51.5z" />
    <glyph glyph-name="uni0E0A" unicode="&#xe0a;" horiz-adv-x="584" 
d="M163 10c-36 16.667 -63.834 40.165 -83.501 70.498s-29.5 65.166 -29.5 104.499v34c0 22.667 5 43.834 15 63.501s23.667 41.167 41 64.5c12.667 17.333 21.834 31.333 27.501 42s8.5 20.667 8.5 30c0 12.667 -3.16699 21.667 -9.5 27s-16.833 8 -31.5 8h-56v81h105
c29.333 0 52.5 -8.5 69.5 -25.5s25.5 -39.5 25.5 -67.5c0 -19.333 -4 -37.166 -12 -53.499s-20 -36.166 -36 -59.499c-16 -24 -27.5 -43.333 -34.5 -58s-10.5 -30.667 -10.5 -48v-37c0 -38 12 -67.667 36 -89s57.333 -32 100 -32c45.333 0 80.666 12.333 105.999 37
s38 61 38 109s-10 84 -30 108s-49.333 36 -88 36v55l107 140h110l-113 -149c40.667 -15.333 70.167 -38.833 88.5 -70.5s27.5 -71.5 27.5 -119.5c0 -46 -10.167 -86 -30.5 -120s-49.166 -60.167 -86.499 -78.5s-80.333 -27.5 -129 -27.5c-47.333 0 -89 8.33301 -125 25z" />
    <glyph glyph-name="uni0E0B" unicode="&#xe0b;" horiz-adv-x="591" 
d="M170 10c-36 16.667 -63.834 39.9951 -83.501 69.9951s-29.5 64.333 -29.5 103v39c0 21.333 5.66699 41.333 17 60s27.666 41.334 48.999 68.001c14 16.667 24.333 30 31 40s10 19.333 10 28v3c-13.333 -7.33301 -29.333 -11 -48 -11c-22.667 0 -40.167 6.5 -52.5 19.5
s-18.5 32.167 -18.5 57.5v48h73v-35c0 -10.667 2.5 -18.5 7.5 -23.5s13.167 -7.5 24.5 -7.5c13.333 0 24.333 4.33301 33 13v53h79v-91c0 -21.333 -5 -41.666 -15 -60.999s-24 -41 -42 -65c-16 -22 -27.667 -40.167 -35 -54.5s-11 -28.5 -11 -42.5v-36
c0 -37.333 12 -66.666 36 -87.999s57.333 -32 100 -32c44.667 0 79.834 12.333 105.501 37s38.5 61 38.5 109s-10 84 -30 108s-49.333 36 -88 36v55l106 140h111l-114 -149c40.667 -15.333 70.334 -38.833 89.001 -70.5s28 -71.5 28 -119.5
c0 -45.333 -10.333 -85.166 -31 -119.499s-49.5 -60.666 -86.5 -78.999s-79.833 -27.5 -128.5 -27.5c-47.333 0 -89 8.33301 -125 25z" />
    <glyph glyph-name="uni0E0C" unicode="&#xe0c;" horiz-adv-x="996" 
d="M635.5 5.5c-31.667 13.667 -59.8291 35.166 -84.4961 64.499v-70h-98v335c0 46 -11.167 79.833 -33.5 101.5s-56.5 32.5 -102.5 32.5c-34.667 0 -64.834 -5.33301 -90.501 -16s-49.834 -28.334 -72.501 -53.001l43 -67v-198c0 -18.667 3.83301 -31.667 11.5 -39
s20.5 -11 38.5 -11h56v-85h-106c-33.333 0 -58.666 9.33301 -75.999 28s-26 44.334 -26 77.001v228l-50 81c35.333 44.667 74.666 78.5 117.999 101.5s94.666 34.5 153.999 34.5c77.333 0 136.166 -18.167 176.499 -54.5s60.5 -87.166 60.5 -152.499v-186
c39.333 -61.333 90.333 -92 153 -92c42 0 72.833 10 92.5 30s29.5 50.333 29.5 91v349h102v-353c0 -58.667 -17.333 -106.167 -52 -142.5s-83 -54.5 -145 -54.5c-34 0 -66.833 6.83301 -98.5 20.5z" />
    <glyph glyph-name="uni0E0D" unicode="&#xe0d;" horiz-adv-x="1005" 
d="M597 -86.5c-35.333 7.66699 -63.3301 17.832 -83.9971 30.499v85c56 -31.333 119.333 -47 190 -47c47.333 0 84.666 6.33301 111.999 19s41 31.667 41 57c0 20 -6.33301 36.667 -19 50c-18 -11.333 -39.833 -20.333 -65.5 -27s-52.5 -10 -80.5 -10
c-76.667 0 -135.5 19.667 -176.5 59s-61.5 92.333 -61.5 159v46c0 46 -11.167 79.833 -33.5 101.5s-56.5 32.5 -102.5 32.5c-34.667 0 -64.834 -5.33301 -90.501 -16s-49.834 -28.334 -72.501 -53.001l43 -67v-198c0 -18.667 3.83301 -31.667 11.5 -39s20.5 -11 38.5 -11h56
v-85h-106c-33.333 0 -58.666 9.33301 -75.999 28s-26 44.334 -26 77.001v228l-50 81c35.333 44.667 74.666 78.5 117.999 101.5s94.666 34.5 153.999 34.5c77.333 0 136.166 -18.167 176.499 -54.5s60.5 -87.166 60.5 -152.499v-50c0 -46 10.667 -81.167 32 -105.5
s56.333 -36.5 105 -36.5s85.167 12.833 109.5 38.5s36.5 60.834 36.5 105.501v240h102v-246c0 -50 -12.333 -92.333 -37 -127c16.667 -14.667 28.834 -30.334 36.501 -47.001s11.5 -35.667 11.5 -57c0 -50 -22.833 -88.5 -68.5 -115.5s-105.167 -40.5 -178.5 -40.5
c-35.333 0 -70.666 3.83301 -105.999 11.5z" />
    <glyph glyph-name="uni0E0E" unicode="&#xe0e;" horiz-adv-x="659" 
d="M182 -141c16.667 16.667 39.999 29.999 69.999 39.999s60.333 15 91 15c60.667 0 110.334 -13 149.001 -39v460c0 46 -12.333 79.833 -37 101.5s-61 32.5 -109 32.5c-36.667 0 -68.5 -5.16699 -95.5 -15.5s-51.833 -27.166 -74.5 -50.499l60 -69v-229
c0 -32.667 -8.83301 -58.334 -26.5 -77.001s-43.167 -28 -76.5 -28h-88v85h42c18 0 30.333 3.5 37 10.5s10 20.167 10 39.5v198l-70 81c34 44 74 77.667 120 101s100.333 35 163 35c79.333 0 140.333 -18.167 183 -54.5s64 -87.166 64 -152.499v-564h-91
c-26 20 -51.5 34.167 -76.5 42.5s-52.833 12.5 -83.5 12.5c-30 0 -59.333 -5.33301 -88 -16s-53 -25.667 -73 -45v86z" />
    <glyph glyph-name="uni0E0F" unicode="&#xe0f;" horiz-adv-x="659" 
d="M167 -216c-18.667 5.33301 -34.333 12.332 -47 20.999v79c29.333 -18.667 62.333 -28 99 -28c58 0 92.333 25.667 103 77h60l110 -65v467c0 46 -12.333 79.833 -37 101.5s-61 32.5 -109 32.5c-36.667 0 -68.5 -5.16699 -95.5 -15.5s-51.833 -27.166 -74.5 -50.499l60 -69
v-229c0 -32.667 -8.83301 -58.334 -26.5 -77.001s-43.167 -28 -76.5 -28h-88v85h42c18 0 30.333 3.5 37 10.5s10 20.167 10 39.5v198l-70 81c34 44 74 77.667 120 101s100.333 35 163 35c79.333 0 140.333 -18.167 183 -54.5s64 -87.166 64 -152.499v-564h-97l-129 75
c-25.333 -52 -73 -78 -143 -78c-20 0 -39.333 2.66699 -58 8z" />
    <glyph glyph-name="uni0E10" unicode="&#xe10;" horiz-adv-x="605" 
d="M72 294l100.999 0.000976562l52 -214c64.667 0 116.5 17.5 155.5 52.5s58.5 83.5 58.5 145.5c0 67.333 -16 116 -48 146s-84.667 45 -158 45c-33.333 0 -67.166 -3.16699 -101.499 -9.5s-63.166 -14.833 -86.499 -25.5v80c24.667 11.333 54.834 20.166 90.501 26.499
s72.167 9.5 109.5 9.5c64 0 118 -10.333 162 -31l50 56h113l-93 -106c43.333 -45.333 65 -109 65 -191c0 -52.667 -13.333 -100.167 -40 -142.5s-62.834 -75.5 -108.501 -99.5s-95.834 -36 -150.501 -36h-99zM100.499 -215.999c-19.667 5.33301 -35.832 12.333 -48.499 21
v74c28 -18 61 -27 99 -27c29.333 0 52.166 6.16699 68.499 18.5s27.833 32.166 34.5 59.499h54l116 -70v93h102v-174h-95l-130 78c-13.333 -29.333 -31.333 -50.166 -54 -62.499s-51.667 -18.5 -87 -18.5c-20 0 -39.833 2.66699 -59.5 8z" />
    <glyph glyph-name="uni0E11" unicode="&#xe11;" horiz-adv-x="626" 
d="M70 222c0 21.333 4.83105 41.332 14.498 59.999s23.834 41.334 42.501 68.001c12 16 20.833 29.167 26.5 39.5s8.5 19.833 8.5 28.5v3c-12 -7.33301 -27.667 -11 -47 -11c-46.667 0 -70 25.667 -70 77v48h73v-35c0 -10.667 2.5 -18.5 7.5 -23.5s13.167 -7.5 24.5 -7.5
c13.333 0 24.333 4.33301 33 13v53h79v-41c16 18 37 31.833 63 41.5s52.667 14.5 80 14.5c104 0 156 -59.333 156 -178v-372h-102v383c0 28.667 -6.16699 50.167 -18.5 64.5s-32.166 21.5 -59.499 21.5c-54.667 0 -97.334 -21.333 -128.001 -64
c-4 -14.667 -9 -27.667 -15 -39s-15 -26.333 -27 -45c-13.333 -20.667 -23.166 -38 -29.499 -52s-9.5 -30 -9.5 -48v-221h-102v222z" />
    <glyph glyph-name="uni0E12" unicode="&#xe12;" horiz-adv-x="1038" 
d="M114.5 53.5c-46.333 45.667 -69.499 112.165 -69.499 199.498c0 60.667 7.83301 113.334 23.5 158.001s37.834 79 66.501 103s61.334 36 98.001 36c48.667 0 84 -20.333 106 -61c11.333 20.667 27.666 36 48.999 46s46 15 74 15c46 0 80 -14.5 102 -43.5
s33 -68.5 33 -118.5v-231c39.333 -61.333 90 -92 152 -92c42 0 73 10 93 30s30 50.333 30 91v349h101v-353c0 -58.667 -17.167 -106.167 -51.5 -142.5s-82.833 -54.5 -145.5 -54.5c-34 0 -66.667 6.83301 -98 20.5s-59.333 35.167 -84 64.5v-70h-98v381
c0 30.667 -4.33301 53 -13 67s-24.334 21 -47.001 21c-18.667 0 -33.334 -5.16699 -44.001 -15.5s-18.334 -25.833 -23.001 -46.5h-60c-7.33301 41.333 -26.666 62 -57.999 62c-35.333 0 -61.333 -20.667 -78 -62s-25 -92.666 -25 -153.999c0 -125.333 57 -188 171 -188
c24.667 0 48 3.33301 70 10v-79c-23.333 -7.33301 -52.333 -11 -87 -11c-78.667 0 -141.167 22.833 -187.5 68.5z" />
    <glyph glyph-name="uni0E13" unicode="&#xe13;" horiz-adv-x="996" 
d="M505 39.5c-34.667 36.333 -51.9961 83.833 -51.9961 142.5v153c0 46 -11.167 79.833 -33.5 101.5s-56.5 32.5 -102.5 32.5c-34.667 0 -64.834 -5.33301 -90.501 -16s-49.834 -28.334 -72.501 -53.001l43 -67v-170c0 -30.667 3 -51.334 9 -62.001s19.667 -16 41 -16h56
v-85h-106c-33.333 0 -58.666 9.33301 -75.999 28s-26 44.334 -26 77.001v228l-50 81c35.333 44.667 74.666 78.5 117.999 101.5s94.666 34.5 153.999 34.5c77.333 0 136.166 -18.167 176.499 -54.5s60.5 -87.166 60.5 -152.499v-157c0 -80.667 41 -121 123 -121
c32 0 61 7.66699 87 23s47.667 38.333 65 69v378h102v-535h-98v70c-44.667 -56.667 -105.667 -85 -183 -85c-62 0 -110.333 18.167 -145 54.5z" />
    <glyph glyph-name="uni0E14" unicode="&#xe14;" horiz-adv-x="675" 
d="M113.5 53c-45.667 45.333 -68.5 111.998 -68.5 199.998c0 61.333 11.833 114.333 35.5 159s57.5 78.834 101.5 102.501s96.333 35.5 157 35.5c94 0 162.667 -22.167 206 -66.5s65 -100.833 65 -169.5v-314h-102v315c0 102.667 -56.333 154 -169 154
c-59.333 0 -106 -18.667 -140 -56s-51 -90.666 -51 -159.999c0 -64 14.333 -111.333 43 -142s71.334 -46 128.001 -46c25.333 0 48.666 3.33301 69.999 10v-79c-23.333 -7.33301 -52.333 -11 -87 -11c-80 0 -142.833 22.667 -188.5 68z" />
    <glyph glyph-name="uni0E15" unicode="&#xe15;" horiz-adv-x="675" 
d="M113.5 53c-45.667 45.333 -68.5 111.997 -68.5 199.997c0 60.667 8.33301 113.334 25 158.001s39.5 79 68.5 103s62.167 36 99.5 36c50.667 0 86.334 -20.333 107.001 -61c11.333 20.667 28.333 36 51 46s48 15 76 15c46 0 80.5 -14.667 103.5 -44
s34.5 -68.666 34.5 -117.999v-388h-102v381c0 30 -4.66699 52.167 -14 66.5s-25.333 21.5 -48 21.5c-38 0 -61.667 -20.667 -71 -62h-60c-3.33301 20.667 -9.83301 36.167 -19.5 46.5s-23.5 15.5 -41.5 15.5c-31.333 0 -56.833 -18.667 -76.5 -56
s-29.5 -90.666 -29.5 -159.999c0 -64 14 -111.333 42 -142s71 -46 129 -46c25.333 0 48.666 3.33301 69.999 10v-79c-23.333 -7.33301 -52.333 -11 -87 -11c-80 0 -142.833 22.667 -188.5 68z" />
    <glyph glyph-name="uni0E16" unicode="&#xe16;" horiz-adv-x="640" 
d="M121 28c-17.333 18.667 -26.002 44.333 -26.002 77v228l-50 81c35.333 44.667 75.666 78.5 120.999 101.5s99 34.5 161 34.5c80 0 141.333 -18.167 184 -54.5s64 -87.166 64 -152.499v-343h-102v335c0 46 -12.167 79.833 -36.5 101.5s-60.833 32.5 -109.5 32.5
c-37.333 0 -69.666 -5.33301 -96.999 -16s-52.666 -28.334 -75.999 -53.001l43 -67v-198c0 -18.667 3.83301 -31.667 11.5 -39s20.5 -11 38.5 -11h56v-85h-106c-33.333 -0 -58.666 9.33301 -75.999 28z" />
    <glyph glyph-name="uni0E17" unicode="&#xe17;" horiz-adv-x="628" 
d="M65 535l98.001 0.00195312v-72c26 29.333 56.5 51.166 91.5 65.499s70.5 21.5 106.5 21.5c65.333 0 115.333 -18 150 -54s52 -82.333 52 -139v-357h-102v352c0 37.333 -10.333 66.166 -31 86.499s-52.667 30.5 -96 30.5c-72.667 0 -128.334 -30.333 -167.001 -91v-378
h-102v535z" />
    <glyph glyph-name="uni0E18" unicode="&#xe18;" horiz-adv-x="558" 
d="M112 27.5c-43.333 28.333 -65.001 67.498 -65.001 117.498v67h101v-61c0 -30 12.167 -52.167 36.5 -66.5s57.166 -21.5 98.499 -21.5s73.166 6.66699 95.499 20s33.5 33.666 33.5 60.999c0 22 -5 39 -15 51s-25.5 21.833 -46.5 29.5s-55.167 17.167 -102.5 28.5
c-45.333 10.667 -82.166 21.834 -110.499 33.501s-50.833 27.167 -67.5 46.5s-25 44.333 -25 75c0 48.667 21.167 84.5 63.5 107.5s97.166 34.5 164.499 34.5c38.667 0 77.334 -4.16699 116.001 -12.5s69.334 -18.833 92.001 -31.5v-84
c-24.667 14.667 -54.667 26.167 -90 34.5s-71 12.5 -107 12.5c-45.333 0 -79.5 -4 -102.5 -12s-34.5 -24.333 -34.5 -49c0 -14.667 5.33301 -26.667 16 -36s25 -17.166 43 -23.499s45 -14.166 81 -23.499l36 -10c46.667 -12.667 83.334 -25.5 110.001 -38.5
s46.667 -30 60 -51s20 -48.167 20 -81.5c0 -48 -20 -86.5 -60 -115.5s-96.667 -43.5 -170 -43.5c-70.667 0 -127.667 14.167 -171 42.5z" />
    <glyph glyph-name="uni0E19" unicode="&#xe19;" horiz-adv-x="628" 
d="M119.5 40c-36.333 36.667 -54.5 84 -54.5 142v353h102v-349c0 -40 11.167 -70.167 33.5 -90.5s55.166 -30.5 98.499 -30.5c68.667 0 122.667 30.667 162 92v378h102v-535h-99v72c-50 -58 -114 -87 -192 -87c-65.333 0 -116.166 18.333 -152.499 55z" />
    <glyph glyph-name="uni0E1A" unicode="&#xe1a;" horiz-adv-x="643" 
d="M186 13c-38.667 18.667 -68.5 44.834 -89.5 78.501s-31.5 72.167 -31.5 115.5v328h102v-326c0 -44.667 13.167 -79.834 39.5 -105.501s64.833 -38.5 115.5 -38.5c50 0 88.167 12.833 114.5 38.5s39.5 60.834 39.5 105.501v326h102v-328
c0 -43.333 -10.5 -81.833 -31.5 -115.5s-50.833 -59.834 -89.5 -78.501s-83.667 -28 -135 -28c-52 0 -97.333 9.33301 -136 28z" />
    <glyph glyph-name="uni0E1B" unicode="&#xe1b;" horiz-adv-x="643" 
d="M186 13c-38.667 18.667 -68.5 44.834 -89.5 78.501s-31.5 72.167 -31.5 115.5v328h102v-326c0 -44.667 13.167 -79.834 39.5 -105.501s64.833 -38.5 115.5 -38.5c50 0 88.167 12.833 114.5 38.5s39.5 60.834 39.5 105.501v505h102v-507
c0 -43.333 -10.5 -81.833 -31.5 -115.5s-50.833 -59.834 -89.5 -78.501s-83.667 -28 -135 -28c-52 0 -97.333 9.33301 -136 28z" />
    <glyph glyph-name="uni0E1C" unicode="&#xe1c;" horiz-adv-x="644" 
d="M65 426c0 35.333 9.33203 62.334 27.999 81.001s45.334 28 80.001 28h79v-86h-36c-18 0 -30.833 -3.83301 -38.5 -11.5s-11.5 -20.834 -11.5 -39.501v-249l134 218h44l134 -218v386h101v-535h-92l-165 269l-165 -269h-92v426z" />
    <glyph glyph-name="uni0E1D" unicode="&#xe1d;" horiz-adv-x="644" 
d="M65 426c0 35.333 9.33203 62.334 27.999 81.001s45.334 28 80.001 28h79v-86h-36c-18 0 -30.833 -3.83301 -38.5 -11.5s-11.5 -20.834 -11.5 -39.501v-249l134 218h44l134 -218v565h101v-714h-92l-165 269l-165 -269h-92v426z" />
    <glyph glyph-name="uni0E1E" unicode="&#xe1e;" horiz-adv-x="778" 
d="M35 535h102l97 -392l116 392h78l115 -392l98 392h102l-149 -535h-86l-119 402l-120 -402h-86z" />
    </font>
</defs>
</svg>
