<?xml version="1.0" encoding="utf-8"?>
<!-- Generator: Adobe Illustrator 21.0.2, SVG Export Plug-In . SVG Version: 6.00 Build 0)  -->
<svg version="1.1" id="Layer_1" xmlns="http://www.w3.org/2000/svg" xmlns:xlink="http://www.w3.org/1999/xlink" x="0px" y="0px"
	 viewBox="0 0 436.6 448" enable-background="new 0 0 436.6 448" xml:space="preserve">
<path fill="#FFFFFF" d="M29.2,257.5L7,235.3c-9.4-9.4-9.4-24.6,0-33.9L201.4,7c9.4-9.4,24.6-9.4,33.9,0l194.3,194.3
	c9.4,9.4,9.4,24.6,0,33.9l-22.2,22.2c-9.5,9.5-25,9.3-34.3-0.4L258.4,136.7V424c0,13.3-10.7,24-24,24h-32c-13.3,0-24-10.7-24-24
	V136.7L63.5,257.1C54.2,266.9,38.7,267.1,29.2,257.5z"/>
</svg>
