<svg xmlns="http://www.w3.org/2000/svg" xmlns:xlink="http://www.w3.org/1999/xlink" viewBox="0 0 1920 1659.8"><defs><style>.cls-1{fill:none;}.cls-2{isolation:isolate;}.cls-3{fill:#524635;}.cls-4{fill:#cdbb99;}.cls-5{opacity:0.15;}.cls-5,.cls-9{mix-blend-mode:multiply;}.cls-6{clip-path:url(#clip-path);}.cls-7{fill:#fcfbe3;}.cls-8{fill:#755c3b;}.cls-10{clip-path:url(#clip-path-2);}</style><clipPath id="clip-path"><rect class="cls-1" x="874.36" y="359.35" width="1089.15" height="1089.15" transform="translate(205.78 2069.58) rotate(-76.35)"/></clipPath><clipPath id="clip-path-2"><rect class="cls-1" x="970.37" y="457.55" width="1089.15" height="1089.15" transform="translate(183.72 2237.9) rotate(-76.35)"/></clipPath></defs><title>bg_skill2</title><g class="cls-2"><g id="Layer_1" data-name="Layer 1"><rect class="cls-3" y="1170.85" width="1920" height="488.95"/><polygon class="cls-4" points="1920 1659.8 0 1197 0 0 1920 462.8 1920 1659.8"/><g class="cls-5"><g class="cls-6"><polygon class="cls-7" points="1101.6 269 1235.71 224.94 1200.59 369.6 1101.6 269"/><polygon class="cls-8" points="1183.12 542.93 1317.26 498.93 1282.14 643.59 1183.12 542.93"/><polygon class="cls-7" points="1304.83 659.08 1438.93 615.06 1403.82 759.68 1304.83 659.08"/><polygon class="cls-8" points="1023.69 589.91 1157.8 545.89 1122.69 690.52 1023.69 589.91"/><polygon class="cls-8" points="1510.56 452.03 1644.7 408.02 1609.59 552.68 1510.56 452.03"/><polygon class="cls-7" points="1274.79 650.82 1140.67 694.88 1175.78 550.26 1274.79 650.82"/><polygon class="cls-3" points="1393.11 767.55 1258.92 811.59 1294.05 666.88 1393.11 767.55"/><polygon class="cls-3" points="1430.16 603.39 1296.02 647.4 1331.13 502.77 1430.16 603.39"/><polygon class="cls-8" points="1715.51 674.5 1581.37 718.51 1616.48 573.88 1715.51 674.5"/><polygon class="cls-3" points="1594.46 559.43 1460.31 603.48 1495.41 458.86 1594.46 559.43"/><polygon class="cls-3" points="1478.32 1041.46 1344.21 1085.52 1379.32 940.9 1478.32 1041.46"/><polygon class="cls-3" points="991.37 584.38 857.22 628.39 892.33 483.77 991.37 584.38"/><polygon class="cls-3" points="1473.26 443.89 1178.53 534.6 1252.91 228.19 1473.26 443.89"/><polygon class="cls-3" points="1234.51 811.88 939.78 902.58 1014.16 596.18 1234.51 811.88"/><polygon class="cls-7" points="1108.67 868.01 1403.4 777.31 1329.03 1083.67 1108.67 868.01"/><polygon class="cls-3" points="1423.77 475 1480.48 456.37 1465.62 517.56 1423.77 475"/><polygon class="cls-8" points="1404.24 555.46 1460.94 536.83 1446.09 598.02 1404.24 555.46"/><polygon class="cls-8" points="1342.33 499.93 1399.04 481.26 1384.19 542.45 1342.33 499.93"/><polygon class="cls-3" points="1141.59 705.35 1198.38 686.74 1183.53 747.93 1141.59 705.35"/><polygon class="cls-7" points="1225.99 679.78 1282.79 661.13 1267.94 722.32 1225.99 679.78"/><polygon class="cls-8" points="1206.15 761.52 1262.94 742.91 1248.09 804.06 1206.15 761.52"/><polygon class="cls-8" points="944.45 614.24 1001.17 595.57 986.32 656.75 944.45 614.24"/><polygon class="cls-8" points="924.93 694.65 981.64 676.02 966.8 737.17 924.93 694.65"/><polygon class="cls-3" points="1467.67 612.27 1524.47 593.62 1509.62 654.81 1467.67 612.27"/><polygon class="cls-7" points="1543.88 589.8 1600.67 571.18 1585.82 632.38 1543.88 589.8"/><polygon class="cls-3" points="1524.45 669.84 1581.24 651.23 1566.4 712.38 1524.45 669.84"/><polygon class="cls-7" points="1642.6 482.51 1699.31 463.88 1684.46 525.07 1642.6 482.51"/><polygon class="cls-3" points="1667.14 703.52 1723.85 684.88 1708.99 746.07 1667.14 703.52"/><polygon class="cls-7" points="1454.74 525.08 1397.98 543.7 1412.84 482.51 1454.74 525.08"/><polygon class="cls-8" points="1254.39 734.83 1197.6 753.45 1212.45 692.26 1254.39 734.83"/><polygon class="cls-7" points="976.79 664.64 920.03 683.26 934.89 622.07 976.79 664.64"/><polygon class="cls-8" points="1137.83 915.98 1081.03 934.63 1095.89 873.41 1137.83 915.98"/><polygon class="cls-8" points="1580.18 641.16 1523.43 659.78 1538.29 598.6 1580.18 641.16"/><polygon class="cls-3" points="1435.69 914.26 1378.93 932.92 1393.78 871.73 1435.69 914.26"/><polygon class="cls-3" points="1679.96 536.93 1623.16 555.54 1638.02 494.35 1679.96 536.93"/><polygon class="cls-8" points="1421.01 778.52 1555.21 734.48 1520.08 879.19 1421.01 778.52"/><polygon class="cls-3" points="1502.56 1052.51 1636.72 1008.46 1601.59 1153.17 1502.56 1052.51"/><polygon class="cls-3" points="1624.31 1168.67 1758.42 1124.65 1723.32 1269.23 1624.31 1168.67"/><polygon class="cls-7" points="1343.11 1099.44 1477.3 1055.4 1442.19 1200.02 1343.11 1099.44"/><polygon class="cls-8" points="1594.24 1160.36 1460.1 1204.37 1495.2 1059.74 1594.24 1160.36"/><polygon class="cls-8" points="1310.87 1093.89 1176.67 1137.93 1211.79 993.3 1310.87 1093.89"/><polygon class="cls-3" points="1141.7 1008.96 1198.43 990.24 1183.58 1051.43 1141.7 1008.96"/><polygon class="cls-8" points="1661.74 1009.46 1718.53 990.85 1703.68 1052.04 1661.74 1009.46"/><polygon class="cls-3" points="1461.1 1214.85 1517.79 1196.3 1502.94 1257.45 1461.1 1214.85"/><polygon class="cls-8" points="1545.5 1189.29 1602.2 1170.65 1587.35 1231.84 1545.5 1189.29"/><polygon class="cls-3" points="1525.64 1271.06 1582.35 1252.43 1567.5 1313.62 1525.64 1271.06"/><polygon class="cls-3" points="1181.1 1148.37 1237.9 1129.72 1223.06 1190.87 1181.1 1148.37"/><polygon class="cls-8" points="1263.92 1123.73 1320.67 1105.11 1305.82 1166.3 1263.92 1123.73"/><polygon class="cls-8" points="1244.39 1204.19 1301.14 1185.57 1286.29 1246.76 1244.39 1204.19"/><polygon class="cls-3" points="1296.25 1174.14 1239.5 1192.76 1254.35 1131.57 1296.25 1174.14"/><polygon class="cls-3" points="1457.28 1425.52 1400.49 1444.13 1415.34 1382.98 1457.28 1425.52"/></g></g><g class="cls-9"><g class="cls-10"><polygon class="cls-7" points="1890.03 789.43 1790.99 688.81 1755.88 833.48 1890.03 789.43"/><polygon class="cls-7" points="1728.62 836.84 1629.62 736.24 1594.51 880.86 1728.62 836.84"/><polygon class="cls-3" points="1640.72 558.51 1541.68 457.89 1506.56 602.56 1640.72 558.51"/><polygon class="cls-8" points="1600.43 892.76 1699.49 993.42 1734.62 848.72 1600.43 892.76"/><polygon class="cls-3" points="1642.77 729.88 1741.8 830.5 1776.91 685.88 1642.77 729.88"/><polygon class="cls-8" points="1356.57 662.25 1455.61 762.86 1490.72 618.24 1356.57 662.25"/><polygon class="cls-8" points="1516.91 615.49 1615.93 716.15 1651.04 571.52 1516.91 615.49"/><polygon class="cls-8" points="1399.12 1097.12 1498.1 1197.76 1533.21 1053.14 1399.12 1097.12"/><polygon class="cls-3" points="1807.15 1112.46 1586.81 896.72 1512.44 1203.08 1807.15 1112.46"/><polygon class="cls-3" points="1707.31 618.72 1665.46 576.16 1650.61 637.35 1707.31 618.72"/><polygon class="cls-7" points="1687.78 699.18 1645.93 656.62 1631.07 717.81 1687.78 699.18"/><polygon class="cls-8" points="1768.26 678.22 1726.42 635.62 1711.56 696.8 1768.26 678.22"/><polygon class="cls-3" points="1789.19 891.39 1747.26 848.77 1732.41 909.96 1789.19 891.39"/><polygon class="cls-7" points="1769.35 973.13 1727.41 930.55 1712.57 991.7 1769.35 973.13"/><polygon class="cls-7" points="1605.36 720.58 1563.43 677.96 1548.58 739.15 1605.36 720.58"/><polygon class="cls-3" points="1547.94 665.67 1506 623.09 1491.14 684.28 1547.94 665.67"/><polygon class="cls-3" points="1528.51 745.71 1486.57 703.13 1471.72 764.28 1528.51 745.71"/><polygon class="cls-8" points="1509.4 525.05 1467.54 482.5 1452.69 543.69 1509.4 525.05"/><polygon class="cls-3" points="1386.26 710.21 1344.4 667.65 1329.55 728.84 1386.26 710.21"/><polygon class="cls-3" points="1656.83 649.02 1698.73 691.59 1713.59 630.4 1656.83 649.02"/><polygon class="cls-3" points="1738.7 927.29 1780.65 969.87 1795.5 908.68 1738.7 927.29"/><polygon class="cls-8" points="1759.24 1141.72 1801.17 1184.34 1816.03 1123.11 1759.24 1141.72"/><polygon class="cls-8" points="1492.13 694.67 1534.02 737.24 1548.88 676.05 1492.13 694.67"/><polygon class="cls-8" points="1495.32 1003.62 1537.21 1046.23 1552.06 985.04 1495.32 1003.62"/><polygon class="cls-7" points="1451.25 556.29 1493.18 598.87 1508.04 537.68 1451.25 556.29"/><polygon class="cls-7" points="1570.6 889.72 1471.53 789.05 1436.4 933.76 1570.6 889.72"/><polygon class="cls-3" points="1372.5 1095.82 1273.48 995.16 1238.35 1139.87 1372.5 1095.82"/><polygon class="cls-3" points="1211.05 1143.23 1112.05 1042.62 1076.95 1187.2 1211.05 1143.23"/><polygon class="cls-7" points="1492.7 1210.64 1393.63 1109.97 1358.52 1254.59 1492.7 1210.64"/><polygon class="cls-8" points="1241.58 1149.63 1340.62 1250.24 1375.73 1105.62 1241.58 1149.63"/><polygon class="cls-3" points="1523.88 1220.48 1622.95 1321.15 1658.06 1176.53 1523.88 1220.48"/><polygon class="cls-7" points="1713.17 1222.57 1671.34 1179.92 1656.48 1241.12 1713.17 1222.57"/><polygon class="cls-3" points="1189.84 925.08 1147.9 882.5 1133.05 943.69 1189.84 925.08"/><polygon class="cls-7" points="1170.31 1005.54 1128.38 962.92 1113.52 1024.11 1170.31 1005.54"/><polygon class="cls-3" points="1250.78 984.58 1208.85 942 1193.99 1003.19 1250.78 984.58"/><polygon class="cls-7" points="1334.92 1259.11 1293.05 1216.63 1278.2 1277.78 1334.92 1259.11"/><polygon class="cls-8" points="1271.64 1197.69 1229.78 1155.13 1214.93 1216.32 1271.64 1197.69"/><polygon class="cls-3" points="1251.79 1279.47 1209.93 1236.91 1195.08 1298.1 1251.79 1279.47"/><polygon class="cls-8" points="1614.23 1328.4 1572.3 1285.78 1557.46 1346.93 1614.23 1328.4"/><polygon class="cls-8" points="1551.93 1268.53 1510.03 1225.96 1495.18 1287.15 1551.93 1268.53"/><polygon class="cls-3" points="1532.4 1348.99 1490.5 1306.42 1475.65 1367.61 1532.4 1348.99"/><polygon class="cls-8" points="1087.81 1026.88 1045.91 984.32 1031.05 1045.55 1087.81 1026.88"/><polygon class="cls-8" points="1010.94 1052.1 969.1 1009.45 954.25 1070.64 1010.94 1052.1"/><polygon class="cls-8" points="1139.33 955.33 1181.16 997.97 1196.03 936.75 1139.33 955.33"/><polygon class="cls-7" points="1500.09 1298.5 1541.98 1341.07 1556.84 1279.88 1500.09 1298.5"/><polygon class="cls-3" points="1241.72 1448.08 1283.66 1490.65 1298.5 1429.51 1241.72 1448.08"/><polygon class="cls-3" points="974.65 1001.04 1016.49 1043.63 1031.35 982.45 974.65 1001.04"/><polygon class="cls-3" points="977.84 1309.98 1019.68 1352.62 1034.54 1291.39 977.84 1309.98"/></g></g><polygon class="cls-8" points="1721.05 1004.87 1920 1199.67 1920 943.67 1721.05 1004.87"/><polygon class="cls-7" points="1897.93 784.83 1920 693.92 1920 494.52 1677.59 569.09 1897.93 784.83"/></g></g></svg>